<svg width="61" height="58" viewBox="0 0 61 58" fill="none" xmlns="http://www.w3.org/2000/svg">
<path d="M60.9623 57.9885L59.8754 57.8626C35.0122 54.8853 8.14662 28.9943 0 0.137417L0.411908 0C3.39824 7.64935 15.0232 13.2146 32.3004 15.2873H32.4492L32.4835 15.4476C38.1587 35.5443 48.1818 50.8545 60.0012 57.4618L60.9623 58V57.9885ZM1.10986 2.32458C9.81713 29.6699 35.1037 53.8203 58.8456 57.29C47.3694 50.3735 37.6667 35.3038 32.1059 15.6995C16.3962 13.7986 5.33192 8.98914 1.10986 2.32458Z" fill="#11112B"/>
<path d="M13.8332 27.5056C13.7416 27.5056 13.6959 27.4713 13.6615 27.4483C13.6272 27.414 13.5013 27.2995 13.5814 27.0819L13.9933 27.2308C13.9933 27.2308 13.9933 27.1735 13.959 27.1277C13.9247 27.0819 13.8789 27.0705 13.8675 27.0705C14.1764 27.0705 16.4305 26.1887 32.1516 15.3216L32.3919 15.6766C16.9911 26.3261 14.4053 27.5056 13.8217 27.5056H13.8332Z" fill="#11112B"/>
<path d="M32.3004 46.0335C32.1402 45.919 31.9915 45.8045 31.8313 45.69C30.7672 44.8999 29.4399 43.8922 28.4674 43.0562C28.3072 42.9188 28.1356 42.77 27.9525 42.6211C27.6436 42.3577 27.3346 42.0943 27.0371 41.831C26.3621 41.247 25.6412 40.6286 25.0691 40.1133C24.3025 39.4148 23.3757 38.5101 22.5634 37.7086L21.8997 37.0558C19.1422 34.3763 16.1788 30.689 15.0689 29.3034C13.4099 27.2422 12.7462 26.246 9.94298 22.0549C9.30223 21.093 8.59283 19.8677 7.96353 18.7798L7.52874 18.0241C6.55618 16.3522 5.44632 14.0849 4.57673 12.31C4.37078 11.8748 4.15338 11.3939 3.92455 10.8786C3.51264 9.96247 3.12361 9.04638 2.74603 8.13029L3.1465 7.95853C3.31813 8.35932 3.51264 8.80591 3.70715 9.26396C3.91311 9.7449 4.11906 10.2373 4.32501 10.7068C9.51963 22.2381 17.6434 33.0938 27.3003 41.4874C27.4719 41.6363 27.6436 41.7852 27.8038 41.9226C27.9525 42.0485 28.0898 42.1745 28.2271 42.289C29.4857 43.354 30.7672 44.3617 32.0601 45.3465C32.2203 45.4724 32.3805 45.5869 32.5293 45.69L32.2775 46.045L32.3004 46.0335Z" fill="#11112B"/>
</svg>
