<svg width="61" height="58" viewBox="0 0 61 58" fill="none" xmlns="http://www.w3.org/2000/svg">
<path d="M60.9623 57.9885L59.8754 57.8626C35.0122 54.8853 8.14662 28.9943 0 0.137417L0.411908 0C3.39824 7.64935 15.0232 13.2146 32.3004 15.2873H32.4492L32.4835 15.4476C38.1587 35.5443 48.1818 50.8545 60.0012 57.4618L60.9623 58V57.9885ZM1.10986 2.32458C9.81713 29.6699 35.1037 53.8203 58.8456 57.29C47.3694 50.3735 37.6667 35.3038 32.1059 15.6995C16.3962 13.7986 5.33192 8.98914 1.10986 2.32458Z" fill="#11112B"/>
<path d="M39.5088 34.5366C29.8976 33.3915 19.5313 23.3947 16.3848 12.2642L16.8081 12.1497C19.9089 23.1313 30.115 32.9907 39.566 34.1129L39.5203 34.5481L39.5088 34.5366Z" fill="#11112B"/>
<path d="M48.9484 48.7589C30.9389 46.6061 11.4877 27.8606 5.5951 6.9623L6.01845 6.84779C11.8767 27.5858 31.1563 46.1939 49.0056 48.3238L48.9598 48.7589H48.9484Z" fill="#11112B"/>
<path d="M35.0694 47.9802C29.2912 43.7547 28.1928 31.8914 32.0716 15.4475L32.4949 15.5506C28.6619 31.8112 29.7031 43.5143 35.3325 47.6252L35.0808 47.9802H35.0694Z" fill="#11112B"/>
</svg>
