<svg width="79" height="83" viewBox="0 0 79 83" fill="none" xmlns="http://www.w3.org/2000/svg">
<path d="M4.68919 83C3.22806 83 1.72163 82.9093 0.192549 82.7279L0 82.7052V82.5125C0.509694 62.573 6.47878 46.2496 15.9478 38.8701L16.0157 38.8134H16.1063C21.0447 39.4142 25.3035 38.0766 28.1918 35.05C25.3715 32.7828 23.8197 30.1643 23.6838 27.3644C23.4913 23.4649 26.0624 19.3273 31.1027 15.3939L31.3519 15.2012L31.4425 15.5072C33.6625 23.3515 32.7564 30.391 28.9733 34.8233C28.928 34.8799 28.8714 34.9366 28.8261 34.9933C29.2678 35.3334 29.7548 35.6621 30.2532 35.9908L30.3212 36.0362L30.3438 36.1155C34.6932 51.5434 32.9376 65.373 25.5074 74.0674C20.5237 79.9053 13.2407 83 4.68919 83ZM0.441735 82.3198C10.6923 83.4874 19.4817 80.4721 25.1902 73.784C32.5072 65.2143 34.2401 51.5547 29.9587 36.3082C29.4603 35.9908 28.9846 35.6508 28.5316 35.3107C25.564 38.4393 21.2033 39.8336 16.1516 39.2555C6.84123 46.567 0.985409 62.6411 0.441735 82.3198ZM31.114 15.938C26.3569 19.7128 23.9443 23.6576 24.1142 27.3417C24.2388 30.0169 25.7452 32.5334 28.4863 34.7212C28.5429 34.6645 28.5995 34.5965 28.6448 34.5399C32.2806 30.2776 33.1754 23.5102 31.114 15.9266V15.938Z" fill="#11112B"/>
<path d="M20.4783 78.205C14.6225 59.5917 16.8085 44.0505 26.3115 36.6483L26.572 36.9884C17.2163 44.2772 15.0982 59.6371 20.8861 78.0803L20.4783 78.205Z" fill="#11112B"/>
<path d="M50.8109 47.0545C49.3498 47.0545 47.8434 46.9638 46.3143 46.7824H46.2237L46.167 46.7031C40.651 39.7203 34.5347 35.8548 28.5316 35.2994C25.5527 38.462 21.1467 39.8563 16.0384 39.2555L15.5174 39.1988L15.9252 38.8814C19.8328 35.8321 24.0689 34.5172 28.3617 34.8573C28.4523 34.7666 28.5316 34.6646 28.6222 34.5625C32.3147 30.2436 33.1755 23.3515 31.0008 15.6433L30.9555 15.5072L31.0687 15.4166C40.5264 8.04835 57.403 2.28981 76.205 0.0226719L76.3863 0L76.4316 0.181371C80.781 15.6093 79.0253 29.4388 71.5951 38.1333C66.6114 43.9712 59.3285 47.0658 50.7769 47.0658L50.8109 47.0545ZM46.4502 46.363C56.746 47.5759 65.5694 44.5493 71.3006 37.8386C78.6063 29.2914 80.3505 15.6773 76.0918 0.464763C57.5049 2.7319 40.8549 8.39975 31.4652 15.6546C33.6285 23.4422 32.7224 30.425 28.962 34.8346C28.9394 34.8573 28.928 34.8799 28.9054 34.8913C34.8858 35.5601 40.9568 39.4369 46.4502 46.363ZM16.6387 38.8814C21.2373 39.3009 25.2129 38.0313 27.9766 35.254C24.0689 35.016 20.2179 36.2176 16.6387 38.8814Z" fill="#11112B"/>
<path d="M28.7582 35.4127C27.92 35.4127 27.0592 35.3561 26.1871 35.254L26.2324 34.8233C32.0769 35.5261 37.0832 33.8144 40.3226 30.0169C44.4681 25.1653 45.4422 17.4116 43.007 8.75117L43.4261 8.63781C45.9066 17.4343 44.8985 25.3353 40.6624 30.3003C37.8081 33.6444 33.6399 35.4127 28.7582 35.4127Z" fill="#11112B"/>
<path d="M39.9033 38.2013C38.816 38.2013 37.706 38.1333 36.562 37.9973L36.6073 37.5665C44.2414 38.4847 50.7768 36.2516 55.0243 31.2865C60.4384 24.9499 61.7183 14.8271 58.5242 3.53674L58.9433 3.42338C62.1713 14.8611 60.8688 25.1199 55.3528 31.5699C51.649 35.9115 46.2462 38.2013 39.9033 38.2013Z" fill="#11112B"/>
<path d="M66.6907 42.3728C50.9242 31.7173 35.9278 29.6995 26.5721 36.9884L26.3116 36.6483C35.8145 29.2347 51.0034 31.2412 66.9286 42.0101L66.6907 42.3615V42.3728Z" fill="#11112B"/>
<path d="M50.8562 47.0545C49.3838 47.0545 47.866 46.9638 46.3143 46.7824H46.2237L46.167 46.7031C41.0361 40.1964 35.2709 36.3196 29.483 35.4354C28.373 35.6621 27.4669 36.3309 27.1158 36.5916L26.8553 36.2516C36.3583 28.8493 51.7397 30.7084 68.0046 41.2166L68.2538 41.3753L68.016 41.5567C63.3721 45.1841 57.4936 47.0431 50.8449 47.0431L50.8562 47.0545ZM46.4502 46.363C54.6959 47.3379 61.9789 45.6262 67.5176 41.4206C52.8384 32.0007 38.9181 29.6995 29.5397 34.982C29.5737 34.982 29.585 34.982 29.6076 34.982V35.0273C35.4748 35.9342 41.274 39.845 46.4502 46.3743V46.363Z" fill="#11112B"/>
</svg>
