<svg width="140" height="140" viewBox="0 0 140 140" fill="none" xmlns="http://www.w3.org/2000/svg">
<path d="M2.39323 82.8677L2.348 82.6867C-2.00497 67.2862 -0.252474 53.4813 7.16453 44.8022C12.9986 37.9789 21.9759 34.9011 32.4344 36.1571H32.5248L32.5814 36.2363C38.0876 43.218 44.193 47.0653 50.1854 47.6198C53.159 44.4628 57.5572 43.0596 62.6564 43.6707L63.1765 43.7272L62.7695 44.0441C58.8688 47.088 54.6515 48.4006 50.355 48.0611C50.2646 48.1516 50.1854 48.2535 50.095 48.3553C46.4091 52.6665 45.5498 59.5464 47.7206 67.241L47.7659 67.3768L47.6528 67.4673C38.2119 74.8224 21.3654 80.5707 2.59674 82.8338L2.41584 82.8564L2.39323 82.8677ZM27.957 36.3156C19.5451 36.3156 12.3881 39.3594 7.50373 45.0851C0.199782 53.617 -1.54141 67.207 2.6985 82.3925C21.2523 80.1294 37.8728 74.4716 47.2458 67.2296C45.0862 59.4559 45.9908 52.4855 49.7445 48.0837C49.7671 48.0611 49.7784 48.0385 49.801 48.0158C43.8312 47.3482 37.771 43.4783 32.2874 36.5645C30.8062 36.3948 29.359 36.3042 27.9457 36.3042L27.957 36.3156ZM50.7395 47.6651C54.6289 47.8914 58.4843 46.7032 62.0572 44.0441C57.4668 43.6141 53.4982 44.8927 50.7395 47.6651Z" fill="#11112B"/>
<path d="M19.8278 79.4391C16.6055 68.0217 17.9057 57.7811 23.4119 51.3426C27.7423 46.2732 34.4018 43.9988 42.1693 44.9267L42.124 45.3567C34.5035 44.4401 27.9797 46.6693 23.7398 51.6255C18.3354 57.9509 17.0577 68.0557 20.2461 79.326L19.8278 79.4391Z" fill="#11112B"/>
<path d="M35.3176 74.2227C32.8415 65.4418 33.8477 57.5549 38.0763 52.5987C41.4117 48.6948 46.5335 46.9409 52.5259 47.6538L52.4807 48.0837C46.6466 47.3935 41.6492 49.0908 38.4155 52.8815C34.2774 57.7246 33.305 65.4644 35.7359 74.1095L35.3176 74.2227Z" fill="#11112B"/>
<path d="M38.6528 50.6637C30.7044 50.6637 21.4105 47.3596 11.8566 40.8984L12.094 40.5476C27.8325 51.1842 42.8022 53.1984 52.1413 45.9225L52.4014 46.2619C48.6137 49.2153 43.9329 50.6637 38.6528 50.6637Z" fill="#11112B"/>
<path d="M91.7476 93.7306L91.2728 93.4251C87.2929 90.9018 85.1108 87.8013 84.9412 84.4519C84.8733 82.9469 85.2125 81.408 85.9361 79.8578C79.3558 66.6525 69.1348 54.9183 57.6927 46.9635C49.3599 50.2224 40.1678 46.5561 32.2307 36.4966L31.9028 36.0892L32.4229 36.1458C40.9027 37.1642 49.6199 40.8757 57.738 46.4769C59.3548 45.8206 60.9377 44.904 62.4753 43.7046L62.5432 43.648H62.6336C75.1159 45.153 88.5932 58.1432 92.6748 72.6158L92.72 72.7516L92.6069 72.8421C89.656 75.1505 87.5643 77.5155 86.411 79.8465C88.5479 84.1577 90.3004 88.6273 91.5893 93.1762L91.7363 93.7193L91.7476 93.7306ZM86.1962 80.3557C85.597 81.7362 85.3143 83.1053 85.3821 84.4406C85.5291 87.4958 87.4738 90.3699 91.0353 92.7575C89.8029 88.5368 88.1748 84.384 86.2075 80.367L86.1962 80.3557ZM58.1789 46.7711C69.5079 54.7146 79.6159 66.3244 86.1962 79.3825C87.3834 77.1081 89.4185 74.8224 92.2451 72.6045C88.1635 58.3695 74.9463 45.6282 62.6902 44.112C61.2316 45.2435 59.7166 46.1374 58.1789 46.7824V46.7711ZM32.9091 36.6324C40.5522 46.1035 49.3147 49.6 57.2744 46.658C49.4617 41.3057 41.0836 37.7187 32.9091 36.6324Z" fill="#11112B"/>
<path d="M85.597 87.3034C79.6725 66.3244 60.1689 47.5066 42.1126 45.3454L42.1578 44.9154C60.3724 47.088 80.0343 66.0528 86.0041 87.179L85.5857 87.2921L85.597 87.3034Z" fill="#11112B"/>
<path d="M85.8231 80.2652C81.278 64.1744 66.3196 49.7358 52.4805 48.0837L52.5258 47.6537C66.5231 49.3284 81.6511 63.9029 86.2302 80.1407L85.8118 80.2538L85.8231 80.2652Z" fill="#11112B"/>
<path d="M64.2392 53.8546C63.3686 53.8546 62.5546 53.7188 61.8083 53.4473C59.2531 52.5194 57.4554 49.9847 56.6187 46.1374L57.037 46.0469C57.8398 49.7471 59.547 52.1686 61.9553 53.0512C65.1889 54.228 69.655 52.7004 74.8559 48.6495L75.116 48.9889C70.9778 52.2139 67.2693 53.8659 64.2392 53.8659V53.8546Z" fill="#11112B"/>
<path d="M65.9917 140C64.5332 140 63.0294 139.909 61.503 139.728L61.3108 139.706V139.513C61.8196 119.609 67.7781 103.315 77.2303 95.9485L77.2981 95.892H77.3885C82.3181 96.4917 86.5693 95.1564 89.4525 92.1352C86.6372 89.8721 85.0882 87.2582 84.9525 84.4632C84.7603 80.5707 87.3269 76.4405 92.3582 72.514L92.607 72.3217L92.6974 72.6272C94.9135 80.4575 94.009 87.4845 90.2326 91.9089C90.1874 91.9655 90.1309 92.022 90.0856 92.0786C90.5266 92.4181 91.0128 92.7462 91.5102 93.0744L91.5781 93.1196L91.6007 93.1989C95.9424 108.599 94.1899 122.404 86.7729 131.083C81.798 136.911 74.528 140 65.9917 140ZM61.7518 139.321C71.9841 140.487 80.7579 137.477 86.4563 130.8C93.7602 122.246 95.4901 108.611 91.2163 93.3912C90.7188 93.0744 90.2439 92.7349 89.7917 92.3954C86.8294 95.5185 82.4764 96.9103 77.4338 96.3333C68.1399 103.632 62.2945 119.677 61.7518 139.321ZM92.3695 73.0572C87.6208 76.8252 85.2126 80.7631 85.3822 84.4406C85.5065 87.1111 87.0103 89.6231 89.7464 91.807C89.803 91.7505 89.8595 91.6826 89.9047 91.626C93.5341 87.3713 94.4273 80.616 92.3695 73.0458V73.0572Z" fill="#11112B"/>
<path d="M66.9979 121.895C65.9125 121.895 64.8045 121.827 63.6625 121.691L63.7077 121.261C71.3283 122.167 77.8521 119.938 82.092 114.993C87.4964 108.667 88.7741 98.5738 85.5856 87.2922L86.004 87.179C89.2263 98.5964 87.9261 108.837 82.4199 115.276C78.7227 119.609 73.3295 121.895 66.9979 121.895Z" fill="#11112B"/>
<path d="M71.5885 106.868C70.7518 106.868 69.8925 106.811 69.0219 106.71L69.0671 106.28C74.9013 106.981 79.8987 105.273 83.1323 101.482C87.2705 96.6388 88.2428 88.899 85.812 80.2539L86.2303 80.1407C88.7064 88.9216 87.7001 96.8085 83.4715 101.765C80.6223 105.103 76.4615 106.868 71.5885 106.868Z" fill="#11112B"/>
<path d="M92.4939 118.681C83.3018 105.216 83.4827 92.7462 93.0027 85.3345L93.2627 85.674C83.9575 92.9273 83.7992 105.182 92.8444 118.444L92.4939 118.681Z" fill="#11112B"/>
<path d="M47.3814 67.6709L47.291 67.3654C45.0862 59.535 45.9794 52.5081 49.7558 48.0837C49.801 48.0271 49.8575 47.9705 49.9028 47.914C49.4618 47.5745 48.9756 47.2463 48.4782 46.9182L48.4103 46.8729L48.3877 46.7937C44.046 31.3933 45.7985 17.5883 53.2155 8.90925C59.0383 2.08598 68.0156 -0.980538 78.4741 0.275489L78.6663 0.29812V0.490484C78.1575 20.3945 72.199 36.6889 62.7468 44.0554L62.679 44.1119H62.5886C57.659 43.5122 53.4078 44.8475 50.5246 47.8687C53.3399 50.1318 54.8889 52.7457 55.0246 55.5406C55.2168 59.4332 52.6502 63.5634 47.6189 67.4899L47.3701 67.6822L47.3814 67.6709ZM50.242 48.1742C50.1854 48.2308 50.1402 48.2987 50.0837 48.3553C46.4543 52.6099 45.5611 59.3653 47.6189 66.9354C52.3676 63.1673 54.7758 59.2295 54.6062 55.552C54.4819 52.8815 52.9781 50.3694 50.242 48.1855V48.1742ZM48.7721 46.6014C49.2696 46.9182 49.7445 47.2577 50.1967 47.5971C53.159 44.474 57.512 43.0822 62.5546 43.6593C71.8485 36.3608 77.6939 20.3153 78.2366 0.671533C68.0043 -0.505284 59.2306 2.51597 53.5321 9.19214C46.2282 17.7467 44.4983 31.3819 48.7721 46.6014Z" fill="#11112B"/>
<path d="M52.4014 46.2619L52.1414 45.9224C61.4805 38.6465 63.5948 23.3139 57.8172 4.90353L58.2242 4.77906C64.0584 23.3592 61.8875 38.8728 52.4014 46.2619Z" fill="#11112B"/>
<path d="M92.3695 73.0571L92.2791 72.7516C88.2314 58.4261 74.9238 45.583 62.5998 44.1006L62.0797 44.0441L62.4867 43.7272C71.8484 36.4287 77.739 20.2701 78.2365 0.490508V0.252882L78.474 0.275513C103.043 3.21756 129.59 28.802 137.64 57.3172L137.708 57.5548L137.46 57.5888C118.759 59.8406 101.991 65.5549 92.6183 72.8648L92.3695 73.0571ZM63.1538 43.7385C75.3986 45.5038 88.4801 58.1659 92.607 72.3216C102.048 65.091 118.657 59.4445 137.166 57.1814C129.104 29.0057 102.941 3.77202 78.6662 0.728135C78.1235 20.2475 72.3459 36.259 63.1538 43.7385Z" fill="#11112B"/>
<path d="M75.1045 48.9777L74.8445 48.6382C84.2288 41.3284 94.6307 26.9237 102.67 10.1087L103.054 10.2898C94.9925 27.15 84.5454 41.6112 75.1045 48.9663V48.9777Z" fill="#11112B"/>
<path d="M85.8231 59.3087L85.5631 58.9693C94.97 51.6368 109.307 40.9662 123.903 30.4315L124.152 30.7822C109.567 41.3057 95.2414 51.9763 85.8231 59.3087Z" fill="#11112B"/>
<path d="M112.031 104.118C110.573 104.118 109.069 104.028 107.543 103.847H107.452L107.396 103.768C101.89 96.7971 95.7841 92.9385 89.7917 92.3841C86.8181 95.5411 82.4199 96.9329 77.3207 96.3332L76.8006 96.2766L77.2077 95.9598C81.1084 92.9159 85.337 91.6033 89.6221 91.9428C89.7126 91.8523 89.7917 91.7504 89.8822 91.6486C93.5681 87.3373 94.4273 80.4575 92.2565 72.7629L92.2113 72.6271L92.3244 72.5366C101.765 65.1815 118.612 59.4332 137.38 57.1701L137.561 57.1475L137.607 57.3285C141.948 72.729 140.196 86.5339 132.779 95.213C127.804 101.04 120.534 104.13 111.998 104.13L112.031 104.118ZM107.678 103.428C117.956 104.639 126.764 101.618 132.485 94.9188C139.777 86.3868 141.519 72.7969 137.267 57.6114C118.714 59.8745 102.093 65.5323 92.7201 72.7742C94.8796 80.548 93.9751 87.5184 90.2214 91.9201C90.1987 91.9428 90.1874 91.9654 90.1648 91.9767C96.1346 92.6443 102.195 96.5143 107.678 103.428ZM77.92 95.9598C82.5104 96.3785 86.4789 95.1111 89.2377 92.3388C85.337 92.1012 81.4928 93.3006 77.92 95.9598Z" fill="#11112B"/>
<path d="M93.2627 85.674L93.0027 85.3345C102.466 77.9567 119.573 76.8818 138.782 82.4716L138.658 82.8903C119.584 77.3457 102.624 78.3867 93.2627 85.6853V85.674Z" fill="#11112B"/>
<path d="M86.6599 95.7562L86.2528 95.6204C86.4224 94.9867 86.479 93.9796 86.4111 92.6331C86.3433 91.2865 86.1511 90.3021 85.9023 88.9555C85.744 88.0955 85.484 87.0545 85.2579 86.3303C84.7491 84.6782 84.0707 82.7433 83.5506 81.3854C83.381 80.9441 81.7981 77.2779 80.6109 75.2411C79.6386 73.5664 78.214 71.2693 77.072 69.5267C76.518 68.6781 75.7152 67.6144 75.0029 66.6978C74.0871 65.4984 73.3748 64.6271 72.8434 64.0274C70.9326 61.8887 69.395 60.248 68.2643 59.139C67.6198 58.5054 66.6927 57.6341 65.9465 57.0117L65.2794 56.4573C64.7254 55.9933 64.1262 55.4841 63.6174 55.0881C63.1199 54.692 62.4641 54.2168 61.8875 53.7868L61.3335 53.3794C61.3335 53.3794 58.5069 51.2974 54.8888 49.6227C53.9956 49.2153 51.7117 48.2195 49.6992 47.9819C49.36 47.9366 49.213 47.9366 49.066 47.948L49.0321 47.518C49.3148 47.484 50.3323 47.303 51.576 46.3298C54.4705 44.078 58.2921 43.1615 62.6224 43.6707C75.1047 45.1643 88.5819 58.1546 92.6636 72.6272C95.2301 81.7023 93.6133 89.5666 88.3558 93.6628C87.9149 94.0362 87.6548 94.2512 87.3269 94.6586C86.8747 95.2017 86.7051 95.5751 86.6372 95.7562H86.6599ZM50.2306 47.6198C52.1753 47.948 54.2444 48.8419 55.081 49.2266C58.733 50.924 61.5709 53.0173 61.5935 53.04L62.1475 53.4473C62.7242 53.8773 63.3799 54.3526 63.8887 54.7486C64.3975 55.1447 64.9968 55.6539 65.5621 56.1291L66.2179 56.6836C66.9754 57.3172 67.9138 58.1999 68.5583 58.8335C69.6889 59.9424 71.2379 61.5945 73.16 63.7332C73.7027 64.3442 74.415 65.2268 75.3421 66.4376C76.0544 67.3655 76.8572 68.4291 77.4225 69.3004C78.5758 71.0543 80.0004 73.3627 80.9727 75.0374C82.1825 77.1308 83.7654 80.7744 83.935 81.2496C84.4551 82.6075 85.1335 84.5538 85.6536 86.2172C85.8797 86.9527 86.1397 88.0163 86.298 88.865C86.5581 90.2568 86.7503 91.2526 86.8181 92.6331C86.8634 93.4025 86.8634 94.0815 86.8181 94.6359C86.8747 94.5567 86.9312 94.4775 86.999 94.3983C87.3608 93.957 87.6435 93.7194 88.0732 93.3573C93.2063 89.3516 94.7665 81.657 92.2452 72.7517C88.1975 58.4262 74.8899 45.583 62.5659 44.1007C58.3486 43.5915 54.6288 44.4854 51.8248 46.6693C51.2142 47.1332 50.6602 47.4388 50.1967 47.6198H50.2306Z" fill="#11112B"/>
</svg>
