<svg width="60" height="48" viewBox="0 0 60 48" fill="none" xmlns="http://www.w3.org/2000/svg">
<path d="M2.39654 47.0158L2.34 46.8121C-2.00232 31.4093 -0.249561 17.6022 7.16857 8.92188C12.9923 2.08626 21.9709 -0.980722 32.4309 0.275495L32.5101 0.298129C44.2818 6.88478 54.2782 22.1178 59.9096 42.0815L60.0001 42.387L59.6835 42.3531C42.563 40.3046 21.756 41.9909 2.60008 46.9592L2.39654 47.0158ZM27.9529 0.422619C19.5397 0.422619 12.3816 3.46696 7.48519 9.1935C0.202762 17.7267 -1.55 31.3074 2.69055 46.4839C21.7221 41.5609 42.3594 39.8859 59.4121 41.8777C53.8033 22.197 43.9426 7.19034 32.3404 0.682916C30.8478 0.50184 29.3777 0.422619 27.9416 0.422619H27.9529Z" fill="#11112B"/>
<path d="M21.3944 43.0094C18.2394 31.8506 19.5172 21.8462 24.8999 15.5538C29.1291 10.5968 35.6426 8.36731 43.2304 9.27269L43.1851 9.70274C35.7444 8.82 29.3666 10.9929 25.2278 15.8254C19.9469 22.0046 18.703 31.8733 21.8128 42.885L21.3944 42.9981V43.0094Z" fill="#11112B"/>
<path d="M40.8557 41.3798C39.1707 35.4156 39.8605 30.0625 42.7328 26.7013C45.0057 24.0417 48.4886 22.8421 52.5596 23.3288L52.5143 23.7588C48.5904 23.2835 45.2319 24.4379 43.0607 26.9842C40.2789 30.2436 39.6231 35.4496 41.2627 41.2666L40.8443 41.3798H40.8557Z" fill="#11112B"/>
<path d="M59.5931 42.3192C41.975 30.5153 20.7158 22.9893 1.24317 21.6651L1.2771 21.2351C20.8175 22.5705 42.156 30.1191 59.8306 41.9683L59.5931 42.3305V42.3192Z" fill="#11112B"/>
<path d="M59.5365 42.2625C46.0573 24.0757 28.6993 10.5063 11.9067 5.05137L12.0424 4.64395C28.9141 10.1328 46.3513 23.7475 59.8871 42.0135L59.5478 42.2738L59.5365 42.2625Z" fill="#11112B"/>
</svg>
