<svg width="79" height="83" viewBox="0 0 79 83" fill="none" xmlns="http://www.w3.org/2000/svg">
<path d="M4.68919 83C3.22806 83 1.72163 82.9093 0.192549 82.7279L0 82.7052V82.5125C0.509694 62.573 6.47878 46.2496 15.9478 38.8701L16.0157 38.8134H16.1063C21.0447 39.4142 25.3035 38.0766 28.1918 35.05C25.3715 32.7828 23.8197 30.1643 23.6838 27.3644C23.4913 23.4649 26.0624 19.3273 31.1027 15.3939L31.3519 15.2012L31.4425 15.5072C33.6625 23.3515 32.7564 30.391 28.9733 34.8233C28.928 34.8799 28.8714 34.9366 28.8261 34.9933C29.2678 35.3334 29.7548 35.6621 30.2532 35.9908L30.3212 36.0362L30.3438 36.1155C34.6932 51.5434 32.9376 65.373 25.5074 74.0674C20.5237 79.9053 13.2407 83 4.68919 83ZM0.441735 82.3198C10.6923 83.4874 19.4817 80.4721 25.1902 73.784C32.5072 65.2143 34.2401 51.5547 29.9587 36.3082C29.4603 35.9908 28.9846 35.6508 28.5316 35.3107C25.564 38.4393 21.2033 39.8336 16.1516 39.2555C6.84123 46.567 0.985409 62.6411 0.441735 82.3198ZM31.114 15.938C26.3569 19.7128 23.9443 23.6576 24.1142 27.3417C24.2388 30.0169 25.7452 32.5334 28.4863 34.7212C28.5429 34.6645 28.5995 34.5965 28.6448 34.5399C32.2806 30.2776 33.1754 23.5102 31.114 15.9266V15.938Z" fill="#92DEED"/>
<path d="M20.4784 78.205C14.6226 59.5917 16.8086 44.0505 26.3116 36.6483L26.5721 36.9884C17.2164 44.2772 15.0983 59.6371 20.8862 78.0803L20.4784 78.205Z" fill="#92DEED"/>
<path d="M50.8109 47.0545C49.3497 47.0545 47.8433 46.9638 46.3142 46.7824H46.2236L46.167 46.7031C40.6509 39.7203 34.5346 35.8548 28.5315 35.2994C25.5527 38.462 21.1466 39.8563 16.0384 39.2555L15.5173 39.1988L15.9251 38.8814C19.8328 35.8321 24.0689 34.5172 28.3616 34.8573C28.4523 34.7666 28.5315 34.6646 28.6222 34.5625C32.3146 30.2436 33.1754 23.3515 31.0007 15.6433L30.9554 15.5072L31.0687 15.4166C40.5264 8.04835 57.4029 2.28981 76.205 0.0226719L76.3862 0L76.4315 0.181371C80.7809 15.6093 79.0253 29.4388 71.5951 38.1333C66.6114 43.9712 59.3284 47.0658 50.7769 47.0658L50.8109 47.0545ZM46.4501 46.363C56.746 47.5759 65.5693 44.5493 71.3006 37.8386C78.6062 29.2914 80.3505 15.6773 76.0917 0.464763C57.5048 2.7319 40.8548 8.39975 31.4651 15.6546C33.6285 23.4422 32.7224 30.425 28.9619 34.8346C28.9393 34.8573 28.928 34.8799 28.9053 34.8913C34.8857 35.5601 40.9568 39.4369 46.4501 46.363ZM16.6387 38.8814C21.2372 39.3009 25.2129 38.0313 27.9765 35.254C24.0689 35.016 20.2179 36.2176 16.6387 38.8814Z" fill="#92DEED"/>
<path d="M28.7581 35.4127C27.9199 35.4127 27.0591 35.3561 26.1869 35.254L26.2323 34.8233C32.0768 35.5261 37.0831 33.8144 40.3225 30.0169C44.468 25.1653 45.4421 17.4116 43.0069 8.75117L43.426 8.63781C45.9065 17.4343 44.8984 25.3353 40.6623 30.3003C37.808 33.6444 33.6398 35.4127 28.7581 35.4127Z" fill="#92DEED"/>
<path d="M66.6907 42.3728C50.9242 31.7173 35.9278 29.6995 26.5721 36.9884L26.3116 36.6483C35.8145 29.2347 51.0034 31.2412 66.9286 42.0101L66.6907 42.3615V42.3728Z" fill="#92DEED"/>
<path d="M18.3717 39.3915C17.6241 39.3915 16.8539 39.3462 16.061 39.2555L15.54 39.1988L15.9478 38.8814C20.0027 35.7188 24.3974 34.3925 29.0073 34.9479C29.415 34.9933 29.5283 34.9933 29.6303 34.9933L29.6642 35.424C29.1319 35.4921 28.2711 35.7528 27.1271 36.6143C24.7598 38.462 21.7583 39.4142 18.3717 39.4142V39.3915ZM16.65 38.8814C20.6596 39.2555 24.1822 38.3486 26.8666 36.2515C27.4669 35.7981 27.9992 35.5034 28.4523 35.3107C24.2955 34.9366 20.3312 36.1382 16.6387 38.8814H16.65Z" fill="#92DEED"/>
</svg>
