<svg width="94" height="105" viewBox="0 0 94 105" fill="none" xmlns="http://www.w3.org/2000/svg">
<path d="M62.6169 104.036L61.5421 103.912C36.9577 100.968 10.3934 75.3673 2.33815 46.834L2.74544 46.6982C5.69828 54.2617 17.1929 59.7646 34.2764 61.814H34.4235L34.4574 61.9725C40.0689 81.8439 49.9796 96.9824 61.6666 103.516L62.6169 104.048V104.036ZM3.43557 48.9967C12.0452 76.0353 37.0482 99.915 60.5239 103.346C49.1764 96.5068 39.5825 81.6061 34.0841 62.2216C18.5505 60.342 7.61028 55.5865 3.43557 48.9967Z" fill="#92DEED"/>
<path d="M41.4039 80.8475C31.9005 79.7152 21.6504 69.8305 18.5392 58.8248L18.9578 58.7116C22.0238 69.5701 32.1155 79.3189 41.4605 80.4286L41.4153 80.8588L41.4039 80.8475Z" fill="#92DEED"/>
<path d="M50.7377 94.9103C32.9301 92.7817 13.697 74.2464 7.87051 53.5824L8.28911 53.4692C14.0817 73.9746 33.145 92.374 50.7942 94.4801L50.749 94.9103H50.7377Z" fill="#92DEED"/>
<path d="M37.0143 94.1403C31.3009 89.9623 30.2148 78.2319 34.0501 61.9725L34.4687 62.0744C30.6787 78.1527 31.7082 89.7245 37.2745 93.7893L37.0256 94.1403H37.0143Z" fill="#92DEED"/>
<path d="M34.5479 62.2782L34.2312 62.2443C16.9779 60.1835 5.3589 54.5788 2.34949 46.8567C-2.00624 31.4238 -0.252634 17.6101 7.16907 8.92557C13.0069 2.09796 21.9899 -0.981817 32.4549 0.275005L32.6925 0.308974L32.6359 0.546752C28.1784 19.6935 28.8459 42.0785 34.4574 61.9725L34.5479 62.2782ZM27.9634 0.433523C19.5461 0.433523 12.3846 3.47934 7.49717 9.20863C0.177282 17.7799 -1.5537 31.4465 2.75678 46.7208C5.687 54.2165 17.0571 59.6967 33.9596 61.78C28.4273 41.9766 27.7711 19.7388 32.1721 0.682624C30.7466 0.524106 29.3437 0.444848 27.9747 0.444848L27.9634 0.433523Z" fill="#92DEED"/>
<path d="M18.5393 58.8135C16.8535 52.8464 17.5437 47.4907 20.4173 44.1166C22.6913 41.4557 26.1759 40.2555 30.2488 40.7424L30.2036 41.1727C26.2777 40.7084 22.9176 41.852 20.7454 44.3996C17.9623 47.6606 17.3061 52.869 18.9465 58.6889L18.5279 58.8021L18.5393 58.8135Z" fill="#92DEED"/>
<path d="M7.87051 53.5824C4.71403 42.4182 5.99246 32.4089 11.3777 26.1135C15.609 21.1541 22.1256 18.9235 29.717 19.8407L29.6718 20.2709C22.2274 19.3765 15.8466 21.5617 11.7058 26.3965C6.42238 32.5787 5.17788 42.4522 8.28912 53.4805L7.87051 53.5937V53.5824Z" fill="#92DEED"/>
<path d="M34.1407 62.199C16.4349 50.3441 4.37463 35.5113 1.05975 21.5051L1.47835 21.4032C4.7706 35.3075 16.763 50.0384 34.3782 61.848L34.1407 62.199Z" fill="#92DEED"/>
<path d="M34.0841 62.1537C20.5417 43.8788 12.4073 22.9884 11.7737 4.86069H12.2036C12.8372 22.8978 20.9377 43.6863 34.4348 61.9046L34.0954 62.165L34.0841 62.1537Z" fill="#92DEED"/>
<path d="M49.38 63.0934C44.1192 63.0934 39.0281 62.8104 34.2311 62.2329H34.0841L34.0501 62.0744C28.416 42.1124 27.7485 19.6482 32.2286 0.433494L32.2739 0.24101L32.4662 0.263656C57.0506 3.20756 83.6149 28.8082 91.6702 57.3415L91.7268 57.5566L91.5118 57.6132C77.6753 61.2139 62.9676 63.0934 49.3913 63.0934H49.38ZM34.4235 61.8253C51.473 63.8407 72.143 62.1763 91.1837 57.2509C83.1171 29.0347 56.9149 3.73973 32.602 0.716562C28.201 19.7727 28.8685 42.0332 34.4235 61.8253Z" fill="#92DEED"/>
<path d="M52.7062 62.901C49.6402 52.0425 39.5485 42.2936 30.2035 41.184L30.2488 40.7537C39.7522 41.886 50.0023 51.7707 53.1135 62.7877L52.6949 62.901H52.7062Z" fill="#92DEED"/>
<path d="M72.1769 61.2705C66.3843 40.765 47.321 22.3656 29.6718 20.2596L29.717 19.8293C47.5246 21.958 66.7577 40.4933 72.5842 61.1573L72.1656 61.2705H72.1769Z" fill="#92DEED"/>
<path d="M34.4687 62.0744L34.0501 61.9725C37.8628 45.781 46.1104 26.8721 56.6773 10.1031L57.0393 10.3296C46.4951 27.0646 38.2701 45.9282 34.4687 62.0744Z" fill="#92DEED"/>
<path d="M66.0336 104.184C64.5742 104.184 63.0695 104.093 61.5421 103.912L61.4629 103.889C49.6855 97.3107 39.6956 82.0704 34.0501 62.0858L33.9596 61.78L34.2764 61.814C51.4165 63.8634 72.2335 62.1877 91.3874 57.2057L91.591 57.149L91.6476 57.3529C95.992 72.7631 94.2384 86.5768 86.8167 95.2613C81.8387 101.093 74.5641 104.184 66.0223 104.184H66.0336ZM61.6326 103.493C71.9393 104.704 80.7752 101.693 86.4999 94.9783C93.7858 86.4409 95.5394 72.8537 91.2968 57.6699C72.2674 62.5953 51.6201 64.271 34.5479 62.2782C40.1708 81.9798 50.0249 96.9824 61.6326 103.493Z" fill="#92DEED"/>
<path d="M43.1462 80.9494C42.5806 80.9494 41.9922 80.9154 41.4039 80.8475L41.4492 80.4172C45.3637 80.8815 48.7351 79.7379 50.9073 77.1902C53.6905 73.9293 54.3467 68.7208 52.7062 62.901L53.1248 62.7877C54.8105 68.7548 54.1204 74.1105 51.2468 77.4733C49.3121 79.7492 46.4724 80.9494 43.1575 80.9494H43.1462Z" fill="#92DEED"/>
<path d="M53.996 95.1028C52.9325 95.1028 51.8464 95.0349 50.7377 94.9103L50.7829 94.48C58.2386 95.3745 64.6081 93.1893 68.7489 88.3545C74.0323 82.1722 75.2768 72.2988 72.1656 61.2818L72.5842 61.1686C75.7407 72.3328 74.4622 82.3421 69.077 88.6375C65.4566 92.8722 60.1845 95.1141 53.9847 95.1141L53.996 95.1028Z" fill="#92DEED"/>
<path d="M92.7224 82.9422C73.1838 81.6174 51.8351 74.0539 34.1407 62.199L34.3782 61.8479C52.0048 73.6576 73.2856 81.1872 92.7563 82.5119L92.7224 82.9422Z" fill="#92DEED"/>
<path d="M81.9519 99.5413C65.0833 94.0611 47.6378 80.4286 34.0841 62.1537L34.4235 61.8933C47.9206 80.1002 65.287 93.6762 82.0763 99.1224L81.9405 99.53L81.9519 99.5413Z" fill="#92DEED"/>
<path d="M66.0336 104.184C64.9023 104.184 63.7596 104.127 62.583 104.025L62.6169 104.048L61.4969 103.912C52.627 102.848 43.2141 98.8054 34.2651 92.2155C32.1155 90.5511 29.4116 88.3432 27.5335 86.7127C26.6963 85.9994 25.712 85.0256 24.8522 84.1651C24.5807 83.8933 24.3205 83.6442 24.0829 83.4064C22.0351 81.425 18.9352 77.8357 17.2382 75.6617C15.971 74.0426 14.3193 71.6987 12.1697 68.4944C11.5587 67.5773 10.8686 66.3884 10.2577 65.3241L9.88433 64.69C9.1942 63.5124 8.31175 61.848 7.6895 60.5572C6.86361 58.8588 5.81144 56.515 5.06475 54.7373C4.00127 52.1218 3.08487 49.4609 2.34949 46.8454C-2.00624 31.4238 -0.252634 17.6101 7.16907 8.92557C13.0069 2.09796 21.9899 -0.981817 32.4549 0.275005C57.0393 3.21891 83.6036 28.8196 91.6589 57.3529C96.0033 72.7631 94.2497 86.5768 86.828 95.2613C81.85 101.093 74.5754 104.184 66.0336 104.184ZM61.6326 103.493C71.9393 104.704 80.7752 101.693 86.4999 94.9783C93.8198 86.407 95.5508 72.7291 91.2403 57.4661C83.2303 29.0913 56.8357 3.62653 32.3984 0.70527C22.0691 -0.528907 13.2218 2.49426 7.48585 9.20863C0.177282 17.7799 -1.5537 31.4465 2.75678 46.7208C3.49216 49.325 4.39725 51.9632 5.46072 54.5675C6.20742 56.3451 7.25958 58.6776 8.07416 60.3647C8.69641 61.6442 9.56755 63.2973 10.2577 64.4748L10.631 65.1089C11.242 66.1619 11.9208 67.3508 12.5317 68.2566C14.67 71.4496 16.3218 73.7821 17.5776 75.4013C19.2633 77.5752 22.3519 81.1306 24.3883 83.1121C24.6372 83.3498 24.8975 83.6103 25.169 83.8707C26.0288 84.7199 27.0131 85.6823 27.839 86.3956C29.717 88.0148 32.4097 90.2227 34.5479 91.8758C43.0897 98.1599 52.05 102.112 60.5465 103.346C49.1764 96.4955 39.5599 81.5382 34.0728 62.0858L34.4914 61.9725C40.0916 81.8213 50.0023 96.9597 61.6666 103.493H61.6326Z" fill="#92DEED"/>
</svg>
