<svg width="109" height="140" viewBox="0 0 109 140" fill="none" xmlns="http://www.w3.org/2000/svg">
<path d="M61.8507 140L61.6128 139.977C37.0002 137.03 10.4054 111.4 2.34092 82.834L2.27296 82.5959L2.52214 82.5619C21.2563 80.3061 38.0536 74.5816 47.4433 67.2587L47.6925 67.066L47.7831 67.3721C51.838 81.7231 65.1693 94.5891 77.5153 96.0741L78.0363 96.1308L77.6286 96.4482C68.2502 103.76 62.349 119.947 61.8507 139.762V140ZM2.82796 82.9587C10.9038 111.185 37.1021 136.463 61.4316 139.524C61.9752 119.97 67.7631 103.93 76.9716 96.4368C64.705 94.6685 51.6001 81.9838 47.4659 67.8028C38.0082 75.0464 21.3695 80.7029 2.82796 82.97V82.9587Z" fill="#11112B"/>
<path d="M37.374 130.115L36.9889 129.934C45.0647 113.032 55.5304 98.5566 64.9881 91.1884L65.2486 91.5285C55.8476 98.8514 45.4271 113.282 37.374 130.127V130.115Z" fill="#11112B"/>
<path d="M2.39749 83.0154L2.35218 82.834C-2.00854 67.4061 -0.252924 53.5765 7.1773 44.882C13.0218 38.0466 22.0151 34.9633 32.4922 36.2216H32.5828L32.6394 36.3009C38.1554 43.295 44.2718 47.1492 50.2748 47.7046C53.2537 44.542 57.6598 43.1363 62.768 43.7485L63.2891 43.8052L62.8813 44.1225C58.9736 47.1719 54.7488 48.4868 50.4447 48.1467C50.3541 48.2374 50.2748 48.3394 50.1842 48.4415C46.4918 52.7604 45.631 59.6525 47.8057 67.3608L47.851 67.4968L47.7377 67.5875C38.28 74.9557 21.4035 80.7142 2.60137 82.9814L2.42014 83.004L2.39749 83.0154ZM28.0068 36.3803C19.5799 36.3803 12.4102 39.4296 7.51709 45.1654C0.200138 53.7126 -1.54415 67.3268 2.70331 82.5393C21.2902 80.2721 37.9402 74.6043 47.3299 67.3494C45.1666 59.5618 46.0727 52.579 49.8331 48.1694C49.8558 48.1467 49.8671 48.1241 49.8897 48.1014C43.9093 47.4326 37.8383 43.5558 32.3449 36.6296C30.8611 36.4596 29.4113 36.3689 27.9955 36.3689L28.0068 36.3803ZM50.8298 47.75C54.7262 47.9767 58.5885 46.7864 62.1677 44.1225C57.5692 43.6918 53.5935 44.9727 50.8298 47.75Z" fill="#11112B"/>
<path d="M24.1332 61.1828C17.1561 61.1828 9.36339 60.0152 1.20827 57.6347L1.33286 57.2153C20.4294 62.7698 37.4306 61.7269 46.809 54.4153L47.0695 54.7554C41.6101 59.0063 33.6135 61.1714 24.1332 61.1714V61.1828Z" fill="#11112B"/>
<path d="M108.255 104.088L107.734 104.032C99.2394 103.012 90.5066 99.2934 82.3742 93.6823C80.7545 94.3397 79.1688 95.2579 77.6284 96.4595L77.5604 96.5162H77.4698C64.9653 95.0085 51.464 81.9951 47.3751 67.4968L47.3298 67.3607L47.4431 67.2701C50.3993 64.9576 52.4947 62.5884 53.6387 60.2533C51.498 55.9343 49.7424 51.4567 48.4511 46.8998L48.3039 46.3557L48.7796 46.6617C52.7666 49.1896 54.9526 52.2956 55.1225 55.651C55.1904 57.1586 54.8506 58.7003 54.1257 60.2533C60.7178 73.482 70.957 85.2372 82.4195 93.2062C90.7672 89.9528 99.9756 93.6143 107.927 103.692L108.255 104.1V104.088ZM82.8612 93.4896C90.6879 98.8514 99.0808 102.445 107.27 103.533C99.6132 94.0563 90.8464 90.5423 82.8612 93.4896ZM47.8395 67.5081C51.9284 81.7684 65.1691 94.5324 77.4471 96.0514C78.9082 94.9179 80.426 94.0223 81.9664 93.3762C70.6172 85.4299 60.4913 73.7881 53.8992 60.7067C52.7099 62.9852 50.6711 65.275 47.8395 67.4968V67.5081ZM49.0514 47.3192C50.286 51.5474 51.9171 55.7076 53.8992 59.7318C54.4995 58.3489 54.7827 56.9772 54.7147 55.6396C54.5675 52.579 52.6193 49.6997 49.0514 47.3079V47.3192Z" fill="#11112B"/>
<path d="M87.6069 92.5033C73.5847 90.8256 58.4297 76.2253 53.8425 59.9585L54.2615 59.8451C58.8148 75.9645 73.7999 90.4289 87.6636 92.0839L87.6183 92.5147L87.6069 92.5033Z" fill="#11112B"/>
<path d="M97.9936 95.2466C79.7465 93.0701 60.0496 74.0715 54.0692 52.9077L54.4883 52.7943C60.4234 73.8107 79.9617 92.662 98.0502 94.8272L98.0049 95.2579L97.9936 95.2466Z" fill="#11112B"/>
<path d="M83.099 94.113C82.2948 90.4062 80.5959 87.9804 78.172 87.0962C74.9326 85.9173 70.4699 87.4476 65.2484 91.5058L64.9879 91.1657C70.3227 87.0055 74.9439 85.4638 78.3192 86.6881C80.879 87.6176 82.6799 90.1568 83.5181 94.011L83.099 94.1016V94.113Z" fill="#11112B"/>
<path d="M47.4658 67.7915L47.3752 67.4854C45.1666 59.6411 46.0614 52.6016 49.8444 48.1694C49.8897 48.1127 49.9464 48.056 49.9917 47.9993C49.5499 47.6593 49.0629 47.3305 48.5645 47.0018L48.4966 46.9564L48.4739 46.8771C44.1245 31.4492 45.8801 17.6196 53.3104 8.92513C59.1435 2.08969 68.1368 -0.982285 78.6139 0.275979L78.8064 0.298651V0.491358C78.2967 20.4309 72.3276 36.7543 62.8586 44.1338L62.7907 44.1905H62.7001C57.7617 43.5897 53.5029 44.9273 50.6146 47.954C53.4349 50.2211 54.9867 52.8397 55.1226 55.6396C55.3152 59.5391 52.744 63.6766 47.7037 67.6101L47.4545 67.8028L47.4658 67.7915ZM50.3315 48.26C50.2748 48.3167 50.2295 48.3847 50.1729 48.4414C46.5371 52.7036 45.6423 59.4711 47.7037 67.0547C52.4609 63.2799 54.8734 59.335 54.7035 55.6509C54.5789 52.9757 53.0725 50.4592 50.3315 48.2714V48.26ZM48.859 46.6844C49.3574 47.0018 49.8331 47.3419 50.2862 47.6819C53.2537 44.5533 57.6144 43.159 62.6661 43.7371C71.9765 36.4256 77.8323 20.3515 78.376 0.672729C68.1255 -0.506185 59.3361 2.52045 53.6275 9.20852C46.3105 17.7783 44.5776 31.4378 48.859 46.6844Z" fill="#11112B"/>
<path d="M53.8427 59.9585C51.3622 51.162 52.3703 43.261 56.6064 38.2959C59.9478 34.3851 65.09 32.6281 71.0818 33.3422L71.0365 33.773C65.2033 33.0702 60.1856 34.7819 56.9349 38.5793C52.7894 43.431 51.8153 51.1847 54.2618 59.8451L53.8427 59.9585Z" fill="#11112B"/>
<path d="M54.0693 52.9077C50.8412 41.4699 52.1438 31.2111 57.6598 24.7611C61.9979 19.6827 68.6692 17.3929 76.4506 18.3338L76.4053 18.7645C68.7712 17.8463 62.2357 20.0795 57.9883 25.0445C52.5742 31.3812 51.2943 41.504 54.4884 52.7943L54.0693 52.9077Z" fill="#11112B"/>
<path d="M47.0693 54.7667L46.8088 54.4267C56.1306 47.1605 56.2892 34.8839 47.2279 21.5984L47.579 21.3604C56.7875 34.8499 56.6063 47.3418 47.0693 54.7667Z" fill="#11112B"/>
<path d="M77.5604 96.5049H77.4698C64.9652 94.9972 51.464 81.9838 47.3751 67.4855C44.804 58.3942 46.4237 50.5159 51.6905 46.4124C52.0303 46.129 52.9591 45.3808 53.4235 44.3153L53.8312 44.4626C53.5481 45.4828 53.6613 47.1379 53.718 48.0334C53.7859 48.9969 53.8199 49.2123 54.3183 51.7401C54.4542 52.4656 54.7147 53.4292 54.9412 54.166C55.4283 55.6623 56.1418 57.6687 56.7082 59.1424C57.0593 60.0379 57.5916 61.2281 58.0447 62.101C58.1806 62.373 58.3392 62.6678 58.4978 62.9738C58.8489 63.654 59.2 64.3568 59.5172 64.9349C59.8456 65.5357 60.276 66.2499 60.6951 66.9413C60.8763 67.2474 61.0576 67.5535 61.2161 67.8255C61.2275 67.8482 62.6999 70.308 65.1125 73.448C66.0413 74.661 66.7548 75.5451 67.2985 76.1573C68.6464 77.6649 70.4926 79.6373 71.8858 81.043C73.4601 82.63 76.5863 85.1578 76.9034 85.3959C78.1493 86.3254 79.8823 87.5157 81.1962 88.3772C81.8531 88.8079 82.7706 89.3294 83.4841 89.6921C85.2398 90.5763 85.8288 90.871 87.1766 91.3585C87.7429 91.5625 88.4678 91.7892 88.9775 91.9252C89.4079 92.0386 90.0082 92.1406 90.4387 92.2086L90.382 92.6394C85.8967 92.1066 81.6039 93.3989 77.6396 96.4822L77.5717 96.5389L77.5604 96.5049ZM53.2309 45.4602C52.7552 46.095 52.2002 46.5484 51.951 46.7524C46.8201 50.7426 45.2683 58.4622 47.7828 67.3721C51.8264 81.6891 65.1125 94.5325 77.4358 96.0628C80.7544 93.5009 84.2883 92.1633 87.9921 92.0726C87.6636 91.9706 87.3238 91.8572 87.018 91.7439C85.6475 91.2451 85.0472 90.9504 83.2803 90.0548C82.5554 89.6921 81.6153 89.1593 80.947 88.7172C79.6218 87.8557 77.8888 86.6428 76.6316 85.7133C76.3144 85.4752 73.143 82.9247 71.5573 81.3264C70.1528 79.9094 68.3066 77.937 66.9474 76.418C66.3924 75.7945 65.6675 74.899 64.7387 73.6861C62.3261 70.5461 60.831 68.0409 60.8197 68.0182C60.6611 67.7462 60.4799 67.4514 60.2987 67.1454C59.8796 66.4539 59.4605 65.7284 59.1207 65.1163C58.8036 64.5382 58.4411 63.8354 58.09 63.1439C57.9314 62.8378 57.7842 62.5317 57.6369 62.271C57.1839 61.3982 56.6402 60.1853 56.2891 59.2784C55.7114 57.8048 54.9979 55.787 54.5108 54.2793C54.273 53.5425 54.0125 52.545 53.8765 51.8195C53.3782 49.2576 53.3329 49.0422 53.2649 48.056C53.2196 47.4099 53.1516 46.3897 53.2196 45.4602H53.2309Z" fill="#11112B"/>
</svg>
