<svg width="94" height="105" viewBox="0 0 94 105" fill="none" xmlns="http://www.w3.org/2000/svg">
<path d="M66.0265 104.168C64.6239 104.168 63.1873 104.089 61.728 103.919L61.2982 103.863C36.7854 100.783 10.3722 75.2546 2.34077 46.8275C-2.00298 31.4197 -0.249644 17.608 7.17094 8.92483C13.0079 2.08695 21.9895 -0.981046 32.4529 0.275586C41.3667 1.33976 50.8121 5.404 59.7937 12.0268C61.0719 12.9777 62.5199 14.0646 63.5719 14.9816C63.8547 15.2193 64.1488 15.4797 64.4655 15.7514C65.28 16.4533 66.2075 17.2458 66.9202 17.9024C67.6555 18.5816 68.5604 19.4534 69.3522 20.2345L70.0649 20.9251C72.7345 23.5176 75.653 27.1403 76.7502 28.5102C78.4017 30.5706 79.0578 31.5668 81.8292 35.7103C82.4401 36.6273 83.1414 37.8387 83.7522 38.9028L84.2047 39.6727C85.1662 41.3255 86.2974 43.635 87.0779 45.2313C87.4738 46.0577 87.915 47.0766 88.3335 48.0502C88.5258 48.5144 88.7181 48.9559 88.8991 49.3521C89.9851 52.0012 90.9127 54.6843 91.6592 57.3334C96.003 72.7413 94.2496 86.5529 86.8291 95.2361C81.8518 101.066 74.5783 104.157 66.0379 104.157L66.0265 104.168ZM61.8185 103.5C72.0445 104.667 80.7998 101.633 86.4897 94.9645C93.8085 86.3944 95.5392 72.7187 91.2294 57.458C90.4828 54.8202 89.5665 52.1484 88.4919 49.5219C88.3222 49.1257 88.1299 48.6842 87.9376 48.22C87.5191 47.2464 87.0892 46.2389 86.6933 45.4124C85.9241 43.8275 84.7929 41.518 83.8427 39.8764L83.3903 39.1066C82.7794 38.0538 82.0894 36.8537 81.4786 35.9367C78.7185 31.8046 78.0624 30.8196 76.4222 28.7819C75.3249 27.412 72.4177 23.8006 69.7708 21.2308L69.0581 20.5402C68.2663 19.7704 67.3727 18.8873 66.6374 18.2194C65.9247 17.5741 65.0085 16.7816 64.194 16.0797C63.8773 15.808 63.5719 15.5476 63.3004 15.3099C62.2484 14.3929 60.7439 13.2608 59.5449 12.3777C50.6311 5.80023 41.2423 1.75864 32.4077 0.705784C22.08 -0.528206 13.2341 2.4945 7.49898 9.20786C0.180208 17.7779 -1.55051 31.4536 2.75931 46.7143C10.7455 75.0168 37.0229 100.421 61.4 103.444C65.8116 84.334 65.1329 62.0317 59.5335 42.2086L59.9521 42.0954C59.986 42.1973 60.0086 42.3105 60.0426 42.4124C60.0426 42.4124 60.0652 42.4916 60.0765 42.5369C65.5741 62.292 66.2075 84.4699 61.8298 103.489L61.8185 103.5Z" fill="#92DEED"/>
</svg>
