<svg width="60" height="48" viewBox="0 0 60 48" fill="none" xmlns="http://www.w3.org/2000/svg">
<path d="M2.39653 47.0157L2.33999 46.812C-2.00232 31.4092 -0.249561 17.6022 7.16855 8.92186C12.9922 2.08625 21.9709 -0.98072 32.4308 0.275494L32.51 0.298128C44.2817 6.88476 54.2781 22.1178 59.9095 42.0814L60 42.3869L59.6834 42.353C42.5629 40.3046 21.756 41.9908 2.60008 46.9591L2.39653 47.0157ZM27.9528 0.422618C19.5396 0.422618 12.3816 3.46696 7.48518 9.19348C0.202762 17.7267 -1.55 31.3074 2.69054 46.4838C21.7221 41.5608 42.3594 39.8858 59.412 41.8777C53.8031 22.197 43.9425 7.19033 32.3404 0.682915C30.8477 0.501839 29.3777 0.422618 27.9415 0.422618H27.9528Z" fill="#92DEED"/>
<path d="M21.3943 43.0094C18.2393 31.8506 19.5171 21.8461 24.8998 15.5537C29.129 10.5968 35.6425 8.36729 43.2302 9.27267L43.185 9.70272C35.7442 8.81998 29.3665 10.9929 25.2277 15.8254C19.9468 22.0046 18.7029 31.8732 21.8127 42.8849L21.3943 42.998V43.0094Z" fill="#92DEED"/>
<path d="M40.8555 41.3797C39.1706 35.4155 39.8604 30.0625 42.7327 26.7013C45.0056 24.0417 48.4885 22.8421 52.5594 23.3287L52.5142 23.7588C48.5902 23.2834 45.2317 24.4378 43.0606 26.9842C40.2788 30.2435 39.6229 35.4495 41.2626 41.2665L40.8442 41.3797H40.8555Z" fill="#92DEED"/>
<path d="M59.593 42.3191C41.975 30.5152 20.7158 22.9892 1.24323 21.6651L1.27715 21.2351C20.8175 22.5705 42.1559 30.1191 59.8305 41.9682L59.593 42.3304V42.3191Z" fill="#92DEED"/>
<path d="M59.5365 42.2624C46.0572 24.0756 28.6993 10.5063 11.9068 5.05136L12.0425 4.64394C28.9141 10.1328 46.3512 23.7474 59.887 42.0135L59.5478 42.2738L59.5365 42.2624Z" fill="#92DEED"/>
</svg>
