<svg width="28" height="28" viewBox="0 0 28 28" fill="none" xmlns="http://www.w3.org/2000/svg">
<g clip-path="url(#clip0_86_4060)">
<path d="M13.9996 6.125C10.9235 6.125 9.08691 8.04781 9.08691 11.2683C9.08691 13.1009 11.522 17.3351 13.9987 20.7156C16.4605 17.3237 18.9123 13.1421 18.9123 11.2683C18.9123 8.04781 17.0757 6.125 13.9996 6.125ZM13.9944 13.4719C12.8026 13.4719 11.8366 12.5059 11.8366 11.3142C11.8366 10.1224 12.8026 9.15644 13.9944 9.15644C15.1861 9.15644 16.1521 10.1224 16.1521 11.3142C16.1521 12.5059 15.1861 13.4719 13.9944 13.4719Z" fill="#92DEED"/>
<path d="M14 0C6.26806 0 0 6.26806 0 14C0 21.7319 6.26806 28 14 28C21.7319 28 28 21.7319 28 14C28 6.26806 21.7319 0 14 0ZM14.8199 22.5487L14 23.625L13.1849 22.5487C12.5851 21.7647 7.33731 14.7586 7.33731 11.2683C7.33731 7.08094 9.95094 4.375 14 4.375C18.0491 4.375 20.6627 7.08094 20.6627 11.2683C20.6627 14.7534 15.4144 21.7595 14.8199 22.5487Z" fill="#92DEED"/>
</g>
<defs>
<clipPath id="clip0_86_4060">
<rect width="28" height="28" fill="white"/>
</clipPath>
</defs>
</svg>
