<svg width="72" height="72" viewBox="0 0 72 72" fill="none" xmlns="http://www.w3.org/2000/svg">
<mask id="mask0_88_4114" style="mask-type:luminance" maskUnits="userSpaceOnUse" x="0" y="0" width="72" height="72">
<path d="M0 7.62939e-06H72V72H0V7.62939e-06Z" fill="white"/>
</mask>
<g mask="url(#mask0_88_4114)">
<path d="M53.3332 34.7427C55.0979 32.9781 55.0979 30.1167 53.3332 28.352C51.5686 26.5874 48.7072 26.5874 46.9426 28.352C44.9917 30.3042 42.5041 32.7905 40.5519 34.7427C38.7874 36.5073 38.7874 39.3687 40.5519 41.1333C42.3178 42.898 45.1781 42.898 46.9426 41.1333C48.8948 39.1812 51.3823 36.6947 53.3332 34.7427Z" stroke="#11112B" stroke-width="4" stroke-miterlimit="10" stroke-linecap="round" stroke-linejoin="round"/>
<path d="M58.1265 42.7307C59.891 40.9661 59.891 38.1047 58.1265 36.34C56.3619 34.5754 53.5005 34.5754 51.7359 36.34C50.2333 37.8425 48.445 39.6309 46.9426 41.1333C45.178 42.8979 45.178 45.7582 46.9426 47.5239C48.7071 49.2884 51.5686 49.2884 53.3331 47.5239C54.8357 46.0203 56.6239 44.2331 58.1265 42.7307Z" stroke="#11112B" stroke-width="4" stroke-miterlimit="10" stroke-linecap="round" stroke-linejoin="round"/>
<path d="M62.9179 50.7187C63.7663 49.8715 64.2419 48.7214 64.2419 47.524C64.2419 46.3253 63.7663 45.1753 62.9179 44.328C62.0708 43.4808 60.9219 43.0052 59.7232 43.0052C58.5246 43.0052 57.3757 43.4808 56.5283 44.328C55.4992 45.3561 54.3605 46.4948 53.3325 47.524C52.4852 48.3713 52.0098 49.5202 52.0098 50.7187C52.0098 51.9173 52.4852 53.0662 53.3325 53.9134C54.1797 54.7618 55.3298 55.2374 56.5283 55.2374C57.7259 55.2374 58.8759 54.7618 59.7232 53.9134C60.7513 52.8855 61.8899 51.7467 62.9179 50.7187Z" stroke="#11112B" stroke-width="4" stroke-miterlimit="10" stroke-linecap="round" stroke-linejoin="round"/>
<path d="M46.9421 28.352C46.9421 28.352 53.8897 21.4055 58.126 17.1692C58.9734 16.3208 59.449 15.1719 59.449 13.9734C59.449 12.7748 58.9734 11.6259 58.126 10.7786C57.2788 9.93123 56.1287 9.45465 54.9302 9.45465C53.7316 9.45465 52.5826 9.93123 51.7355 10.7786L27.7714 34.7427C27.7714 34.7427 26.7626 30.3742 25.6712 25.643C25.1291 23.2921 23.3531 21.4203 21.0328 20.7549C18.7136 20.0894 16.2158 20.7356 14.5099 22.4426C14.5088 22.4426 14.5088 22.4438 14.5088 22.4438L14.5359 49.5563L7.75781 56.3344L21.3141 69.8906H40.9401C42.7376 69.8906 44.4614 69.1755 45.7322 67.9046C50.6351 63.003 62.9181 50.7187 62.9181 50.7187" stroke="#11112B" stroke-width="4" stroke-miterlimit="10" stroke-linecap="round" stroke-linejoin="round"/>
<path d="M27.7715 34.7427C27.7715 34.7427 28.4154 35.3866 29.3688 36.3401C33.7803 40.7515 33.7803 47.9046 29.3688 52.316" stroke="#11112B" stroke-width="4" stroke-miterlimit="10" stroke-linecap="round" stroke-linejoin="round"/>
</g>
</svg>
