<svg width="63" height="63" viewBox="0 0 63 63" fill="none" xmlns="http://www.w3.org/2000/svg">
<path d="M20.1381 63C14.8649 63 9.76184 62.7163 4.95362 62.1375H4.8062L4.77218 61.9786C-0.875212 41.9697 -1.54428 19.4527 2.94642 0.192936L2.99178 0L3.18456 0.0226991C27.8267 2.97352 54.4534 28.6343 62.5275 57.2346L62.5842 57.4502L62.3688 57.5069C48.4998 61.116 33.7576 63 20.1494 63H20.1381ZM5.14641 61.7289C22.236 63.7491 42.9544 62.0807 62.0399 57.1438C53.9544 28.8613 27.6906 3.50693 3.32064 0.476669C-1.09068 19.5776 -0.421606 41.8903 5.14641 61.7289Z" fill="#11112B"/>
<path d="M23.4721 62.8071C20.399 51.9231 10.2836 42.1513 0.916592 41.0391L0.961954 40.6078C10.4877 41.7428 20.7618 51.6507 23.8804 62.6936L23.4608 62.8071H23.4721Z" fill="#11112B"/>
<path d="M42.9884 61.1728C37.1823 40.6192 18.0741 22.1766 0.383485 20.0656L0.428846 19.6343C18.2782 21.768 37.5565 40.3468 43.3967 61.0593L42.9771 61.1728H42.9884Z" fill="#11112B"/>
<path d="M5.19184 61.9786L4.77226 61.8765C8.59388 45.6469 16.8608 26.6936 27.4525 9.88527L27.8154 10.1123C17.2464 26.8865 9.00213 45.7945 5.19184 61.9786Z" fill="#11112B"/>
</svg>
