<svg width="86" height="86" viewBox="0 0 86 86" fill="none" xmlns="http://www.w3.org/2000/svg">
<path d="M61.5315 27.2863L50.1982 38.6196L54.5764 42.9977L65.9097 31.6644L61.5315 27.2863Z" fill="white"/>
<path d="M38.6214 50.1944L27.2881 61.5276L31.6662 65.9058L42.9995 54.5725L38.6214 50.1944Z" fill="white"/>
<path d="M54.3323 20.0897L42.999 31.423L47.3771 35.8011L58.7104 24.4678L54.3323 20.0897Z" fill="white"/>
<path d="M31.4222 43.0023L20.0889 54.3356L24.467 58.7137L35.8003 47.3804L31.4222 43.0023Z" fill="white"/>
<path d="M24.4699 27.2862L20.0918 31.6643L31.4251 42.9976L35.8032 38.6195L24.4699 27.2862Z" fill="white"/>
<path d="M31.6662 20.0916L27.2881 24.4697L38.6214 35.803L42.9995 31.4249L31.6662 20.0916Z" fill="white"/>
<path d="M54.5744 43.0024L50.1963 47.3806L61.5296 58.7138L65.9077 54.3357L54.5744 43.0024Z" fill="white"/>
<path d="M47.382 50.1969L43.0039 54.575L54.3372 65.9083L58.7153 61.5302L47.382 50.1969Z" fill="white"/>
<path d="M58.7091 70.289L54.333 65.9085L42.9981 77.2434L31.6676 65.9085L27.2871 70.289L42.9981 86L58.7091 70.289Z" fill="white"/>
<path d="M20.087 31.6673L15.711 27.2867L0 42.9977L15.711 58.7087L20.087 54.3326L8.75657 42.9977L20.087 31.6673Z" fill="white"/>
<path d="M70.2887 27.2867L65.9082 31.6673L77.2431 42.9977L65.9082 54.3326L70.2887 58.7087L85.9997 42.9977L70.2887 27.2867Z" fill="white"/>
<path d="M54.333 20.087L58.7091 15.711L42.9981 0L27.2871 15.711L31.6676 20.087L42.9981 8.75657L54.333 20.087Z" fill="white"/>
</svg>
