<svg width="140" height="140" viewBox="0 0 140 140" fill="none" xmlns="http://www.w3.org/2000/svg">
<path d="M2.39323 82.8677L2.348 82.6867C-2.00497 67.2862 -0.252474 53.4813 7.16453 44.8022C12.9986 37.9789 21.9759 34.9011 32.4344 36.1571H32.5248L32.5814 36.2363C38.0876 43.218 44.193 47.0653 50.1854 47.6198C53.159 44.4628 57.5572 43.0596 62.6564 43.6707L63.1765 43.7272L62.7695 44.0441C58.8688 47.088 54.6515 48.4006 50.355 48.0611C50.2646 48.1516 50.1854 48.2535 50.095 48.3553C46.4091 52.6665 45.5498 59.5464 47.7206 67.241L47.7659 67.3768L47.6528 67.4673C38.2119 74.8224 21.3654 80.5707 2.59674 82.8338L2.41584 82.8564L2.39323 82.8677ZM27.957 36.3156C19.5451 36.3156 12.3881 39.3594 7.50373 45.0851C0.199782 53.617 -1.54141 67.207 2.6985 82.3925C21.2523 80.1294 37.8728 74.4716 47.2458 67.2296C45.0862 59.4559 45.9908 52.4855 49.7445 48.0837C49.7671 48.0611 49.7784 48.0385 49.801 48.0158C43.8312 47.3482 37.771 43.4783 32.2874 36.5645C30.8062 36.3948 29.359 36.3042 27.9457 36.3042L27.957 36.3156ZM50.7395 47.6651C54.6289 47.8914 58.4843 46.7032 62.0572 44.0441C57.4668 43.6141 53.4982 44.8927 50.7395 47.6651Z" fill="#92DEED"/>
<path d="M19.8277 79.4391C16.6054 68.0217 17.9056 57.7811 23.4119 51.3426C27.7422 46.2732 34.4017 43.9988 42.1692 44.9267L42.124 45.3567C34.5035 44.4401 27.9797 46.6693 23.7398 51.6255C18.3353 57.9509 17.0577 68.0557 20.2461 79.326L19.8277 79.4391Z" fill="#92DEED"/>
<path d="M35.3175 74.2227C32.8414 65.4418 33.8477 57.5549 38.0763 52.5987C41.4117 48.6948 46.5335 46.9409 52.5259 47.6538L52.4806 48.0837C46.6465 47.3935 41.6491 49.0908 38.4155 52.8815C34.2773 57.7246 33.305 65.4644 35.7358 74.1095L35.3175 74.2227Z" fill="#92DEED"/>
<path d="M38.6529 50.6637C30.7045 50.6637 21.4106 47.3596 11.8567 40.8984L12.0941 40.5476C27.8327 51.1842 42.8024 53.1984 52.1415 45.9225L52.4015 46.2619C48.6139 49.2153 43.933 50.6637 38.6529 50.6637Z" fill="#92DEED"/>
<path d="M91.7478 93.7306L91.273 93.4251C87.2931 90.9018 85.111 87.8013 84.9414 84.4519C84.8735 82.9469 85.2127 81.408 85.9363 79.8578C79.356 66.6525 69.135 54.9183 57.6929 46.9635C49.3601 50.2224 40.168 46.5561 32.2309 36.4966L31.903 36.0892L32.4231 36.1458C40.9029 37.1642 49.6201 40.8757 57.7381 46.4769C59.3549 45.8206 60.9378 44.904 62.4755 43.7046L62.5434 43.648H62.6338C75.1161 45.153 88.5933 58.1432 92.675 72.6158L92.7202 72.7516L92.6071 72.8421C89.6561 75.1505 87.5645 77.5155 86.4112 79.8465C88.5481 84.1577 90.3006 88.6273 91.5895 93.1762L91.7365 93.7193L91.7478 93.7306ZM86.1964 80.3557C85.5971 81.7362 85.3145 83.1053 85.3823 84.4406C85.5293 87.4958 87.474 90.3699 91.0355 92.7575C89.8031 88.5368 88.175 84.384 86.2077 80.367L86.1964 80.3557ZM58.1791 46.7711C69.5081 54.7146 79.616 66.3244 86.1964 79.3825C87.3835 77.1081 89.4187 74.8224 92.2453 72.6045C88.1637 58.3695 74.9465 45.6282 62.6903 44.112C61.2318 45.2435 59.7168 46.1374 58.1791 46.7824V46.7711ZM32.9092 36.6324C40.5524 46.1035 49.3149 49.6 57.2746 46.658C49.4618 41.3057 41.0838 37.7187 32.9092 36.6324Z" fill="#92DEED"/>
<path d="M85.5971 87.3034C79.6726 66.3244 60.169 47.5066 42.1127 45.3454L42.1579 44.9154C60.3725 47.088 80.0344 66.0528 86.0042 87.179L85.5858 87.2921L85.5971 87.3034Z" fill="#92DEED"/>
<path d="M85.8233 80.2652C81.2781 64.1744 66.3197 49.7358 52.4807 48.0837L52.5259 47.6537C66.5232 49.3284 81.6512 63.9029 86.2303 80.1407L85.812 80.2538L85.8233 80.2652Z" fill="#92DEED"/>
<path d="M64.2393 53.8546C63.3687 53.8546 62.5547 53.7188 61.8085 53.4473C59.2532 52.5194 57.4555 49.9847 56.6188 46.1374L57.0371 46.0469C57.8399 49.7471 59.5472 52.1686 61.9554 53.0512C65.1891 54.228 69.6551 52.7004 74.8561 48.6495L75.1161 48.9889C70.9779 52.2139 67.2695 53.8659 64.2393 53.8659V53.8546Z" fill="#92DEED"/>
<path d="M65.9918 140C64.5333 140 63.0295 139.909 61.5032 139.728L61.3109 139.706V139.513C61.8197 119.609 67.7782 103.315 77.2304 95.9485L77.2982 95.892H77.3887C82.3183 96.4917 86.5695 95.1564 89.4526 92.1352C86.6373 89.8721 85.0883 87.2582 84.9527 84.4632C84.7604 80.5707 87.327 76.4405 92.3583 72.514L92.6071 72.3217L92.6975 72.6272C94.9136 80.4575 94.0091 87.4845 90.2327 91.9089C90.1875 91.9655 90.131 92.022 90.0858 92.0786C90.5267 92.4181 91.0129 92.7462 91.5104 93.0744L91.5782 93.1196L91.6008 93.1989C95.9425 108.599 94.19 122.404 86.773 131.083C81.7982 136.911 74.5281 140 65.9918 140ZM61.7519 139.321C71.9842 140.487 80.758 137.477 86.4564 130.8C93.7604 122.246 95.4902 108.611 91.2164 93.3912C90.7189 93.0744 90.2441 92.7349 89.7918 92.3954C86.8295 95.5185 82.4765 96.9103 77.4339 96.3333C68.14 103.632 62.2946 119.677 61.7519 139.321ZM92.3697 73.0572C87.621 76.8252 85.2127 80.7631 85.3823 84.4406C85.5067 87.1111 87.0104 89.6231 89.7466 91.807C89.8031 91.7505 89.8596 91.6826 89.9049 91.626C93.5342 87.3713 94.4274 80.616 92.3697 73.0458V73.0572Z" fill="#92DEED"/>
<path d="M66.9981 121.895C65.9127 121.895 64.8046 121.827 63.6627 121.691L63.7079 121.261C71.3284 122.167 77.8522 119.938 82.0922 114.993C87.4966 108.667 88.7742 98.5738 85.5858 87.2922L86.0042 87.179C89.2265 98.5964 87.9263 108.837 82.42 115.276C78.7228 119.609 73.3297 121.895 66.9981 121.895Z" fill="#92DEED"/>
<path d="M71.5885 106.868C70.7518 106.868 69.8925 106.811 69.0219 106.71L69.0671 106.28C74.9013 106.981 79.8987 105.273 83.1323 101.482C87.2705 96.6388 88.2428 88.899 85.812 80.2539L86.2303 80.1407C88.7064 88.9216 87.7001 96.8085 83.4715 101.765C80.6223 105.103 76.4615 106.868 71.5885 106.868Z" fill="#92DEED"/>
<path d="M92.494 118.681C83.3019 105.216 83.4828 92.7462 93.0028 85.3345L93.2628 85.674C83.9577 92.9273 83.7994 105.182 92.8445 118.444L92.494 118.681Z" fill="#92DEED"/>
<path d="M47.3814 67.6709L47.291 67.3654C45.0862 59.535 45.9794 52.5081 49.7558 48.0837C49.801 48.0271 49.8575 47.9705 49.9028 47.914C49.4618 47.5745 48.9756 47.2463 48.4782 46.9182L48.4103 46.8729L48.3877 46.7937C44.046 31.3933 45.7985 17.5883 53.2155 8.90925C59.0383 2.08598 68.0156 -0.980538 78.4741 0.275489L78.6663 0.29812V0.490484C78.1575 20.3945 72.199 36.6889 62.7468 44.0554L62.679 44.1119H62.5886C57.659 43.5122 53.4078 44.8475 50.5246 47.8687C53.3399 50.1318 54.8889 52.7457 55.0246 55.5406C55.2168 59.4332 52.6502 63.5634 47.6189 67.4899L47.3701 67.6822L47.3814 67.6709ZM50.242 48.1742C50.1854 48.2308 50.1402 48.2987 50.0837 48.3553C46.4543 52.6099 45.5611 59.3653 47.6189 66.9354C52.3676 63.1673 54.7758 59.2295 54.6062 55.552C54.4819 52.8815 52.9781 50.3694 50.242 48.1855V48.1742ZM48.7721 46.6014C49.2696 46.9182 49.7445 47.2577 50.1967 47.5971C53.159 44.474 57.512 43.0822 62.5546 43.6593C71.8485 36.3608 77.6939 20.3153 78.2366 0.671533C68.0043 -0.505284 59.2306 2.51597 53.5321 9.19214C46.2282 17.7467 44.4983 31.3819 48.7721 46.6014Z" fill="#92DEED"/>
<path d="M52.4015 46.2619L52.1415 45.9224C61.4806 38.6465 63.5949 23.3139 57.8173 4.90353L58.2243 4.77906C64.0584 23.3592 61.8876 38.8728 52.4015 46.2619Z" fill="#92DEED"/>
<path d="M92.3697 73.0571L92.2792 72.7516C88.2315 58.4261 74.9239 45.583 62.5999 44.1006L62.0798 44.0441L62.4868 43.7272C71.8485 36.4287 77.7392 20.2701 78.2367 0.490508V0.252882L78.4741 0.275513C103.043 3.21756 129.59 28.802 137.641 57.3172L137.708 57.5548L137.46 57.5888C118.759 59.8406 101.991 65.5549 92.6184 72.8648L92.3697 73.0571ZM63.1539 43.7385C75.3987 45.5038 88.4803 58.1659 92.6071 72.3216C102.048 65.091 118.657 59.4445 137.166 57.1814C129.104 29.0057 102.941 3.77202 78.6663 0.728135C78.1236 20.2475 72.346 36.259 63.1539 43.7385Z" fill="#92DEED"/>
<path d="M75.1048 48.9777L74.8447 48.6382C84.2291 41.3284 94.631 26.9237 102.67 10.1087L103.054 10.2898C94.9928 27.15 84.5456 41.6112 75.1048 48.9663V48.9777Z" fill="#92DEED"/>
<path d="M85.8232 59.3087L85.5632 58.9693C94.9701 51.6368 109.307 40.9662 123.903 30.4315L124.152 30.7822C109.567 41.3057 95.2415 51.9763 85.8232 59.3087Z" fill="#92DEED"/>
<path d="M112.032 104.118C110.573 104.118 109.069 104.028 107.543 103.847H107.452L107.396 103.768C101.89 96.7971 95.7842 92.9385 89.7918 92.3841C86.8183 95.5411 82.4201 96.9329 77.3209 96.3332L76.8008 96.2766L77.2078 95.9598C81.1085 92.9159 85.3371 91.6033 89.6222 91.9428C89.7127 91.8523 89.7918 91.7504 89.8823 91.6486C93.5682 87.3373 94.4275 80.4575 92.2566 72.7629L92.2114 72.6271L92.3245 72.5366C101.765 65.1815 118.612 59.4332 137.381 57.1701L137.561 57.1475L137.607 57.3285C141.948 72.729 140.196 86.5339 132.779 95.213C127.804 101.04 120.534 104.13 111.998 104.13L112.032 104.118ZM107.679 103.428C117.956 104.639 126.764 101.618 132.485 94.9188C139.777 86.3868 141.519 72.7969 137.267 57.6114C118.714 59.8745 102.093 65.5323 92.7202 72.7742C94.8797 80.548 93.9752 87.5184 90.2215 91.9201C90.1989 91.9428 90.1876 91.9654 90.165 91.9767C96.1347 92.6443 102.195 96.5143 107.679 103.428ZM77.9201 95.9598C82.5105 96.3785 86.4791 95.1111 89.2378 92.3388C85.3371 92.1012 81.4929 93.3006 77.9201 95.9598Z" fill="#92DEED"/>
<path d="M93.2629 85.674L93.0029 85.3345C102.466 77.9567 119.573 76.8818 138.783 82.4716L138.658 82.8903C119.584 77.3457 102.625 78.3867 93.2629 85.6853V85.674Z" fill="#92DEED"/>
<path d="M86.6599 95.7562L86.2529 95.6204C86.4225 94.9867 86.479 93.9796 86.4112 92.6331C86.3433 91.2865 86.1511 90.3021 85.9024 88.9555C85.7441 88.0955 85.484 87.0545 85.2579 86.3303C84.7491 84.6782 84.0707 82.7433 83.5507 81.3854C83.3811 80.9441 81.7981 77.2779 80.611 75.2411C79.6386 73.5664 78.214 71.2693 77.0721 69.5267C76.5181 68.6781 75.7153 67.6144 75.003 66.6978C74.0872 65.4984 73.3749 64.6271 72.8435 64.0274C70.9327 61.8887 69.395 60.248 68.2644 59.139C67.6199 58.5054 66.6928 57.6341 65.9466 57.0117L65.2795 56.4573C64.7255 55.9933 64.1262 55.4841 63.6174 55.0881C63.12 54.692 62.4642 54.2168 61.8876 53.7868L61.3335 53.3794C61.3335 53.3794 58.5069 51.2974 54.8889 49.6227C53.9957 49.2153 51.7118 48.2195 49.6992 47.9819C49.3601 47.9366 49.2131 47.9366 49.0661 47.948L49.0322 47.518C49.3148 47.484 50.3324 47.303 51.5761 46.3298C54.4706 44.078 58.2921 43.1615 62.6225 43.6707C75.1048 45.1643 88.582 58.1546 92.6636 72.6272C95.2302 81.7023 93.6134 89.5666 88.3559 93.6628C87.9149 94.0362 87.6549 94.2512 87.327 94.6586C86.8747 95.2017 86.7051 95.5751 86.6373 95.7562H86.6599ZM50.2306 47.6198C52.1753 47.948 54.2444 48.8419 55.0811 49.2266C58.7331 50.924 61.571 53.0173 61.5936 53.04L62.1476 53.4473C62.7242 53.8773 63.38 54.3526 63.8888 54.7486C64.3976 55.1447 64.9968 55.6539 65.5621 56.1291L66.2179 56.6836C66.9754 57.3172 67.9139 58.1999 68.5583 58.8335C69.689 59.9424 71.238 61.5945 73.1601 63.7332C73.7028 64.3442 74.4151 65.2268 75.3422 66.4376C76.0545 67.3655 76.8572 68.4291 77.4226 69.3004C78.5758 71.0543 80.0004 73.3627 80.9728 75.0374C82.1826 77.1308 83.7655 80.7744 83.9351 81.2496C84.4552 82.6075 85.1335 84.5538 85.6536 86.2172C85.8798 86.9527 86.1398 88.0163 86.2981 88.865C86.5581 90.2568 86.7504 91.2526 86.8182 92.6331C86.8634 93.4025 86.8634 94.0815 86.8182 94.6359C86.8747 94.5567 86.9313 94.4775 86.9991 94.3983C87.3609 93.957 87.6436 93.7194 88.0732 93.3573C93.2063 89.3516 94.7666 81.657 92.2453 72.7517C88.1976 58.4262 74.8899 45.583 62.5659 44.1007C58.3486 43.5915 54.6288 44.4854 51.8248 46.6693C51.2143 47.1332 50.6603 47.4388 50.1967 47.6198H50.2306Z" fill="#92DEED"/>
</svg>
