<svg width="60" height="48" viewBox="0 0 60 48" fill="none" xmlns="http://www.w3.org/2000/svg">
<path d="M32.0585 47.0119C30.5998 47.0119 29.0958 46.9214 27.5692 46.7403L27.49 46.7177C15.7183 40.1423 5.73322 24.9093 0.0904649 4.93433L0 4.62876L0.316626 4.66271C17.4484 6.71113 38.2554 5.03618 57.4 0.0565811L57.6036 0L57.6601 0.203711C62.0024 15.6065 60.2497 29.4136 52.8315 38.0939C47.856 43.9223 40.5849 47.0119 32.0472 47.0119H32.0585ZM27.6597 46.3216C37.9614 47.5325 46.793 44.5221 52.5149 37.811C59.7974 29.2778 61.5501 15.697 57.3096 0.520593C38.2893 5.4436 17.652 7.11856 0.588021 5.12672C6.20816 24.8188 16.0575 39.8141 27.6597 46.3216Z" fill="#11112B"/>
<path d="M9.18217 23.7889C8.61677 23.7889 8.02875 23.7549 7.44072 23.687L7.48596 23.2569C11.3986 23.721 14.7684 22.5779 16.9395 20.0315C19.7213 16.7722 20.3772 11.5662 18.7375 5.74914L19.1559 5.63597C20.8408 11.6002 20.1511 16.9532 17.2788 20.3145C15.3451 22.5892 12.5068 23.7889 9.19348 23.7889H9.18217Z" fill="#11112B"/>
<path d="M20.0268 37.9354C18.9638 37.9354 17.8782 37.8675 16.77 37.743L16.8152 37.313C24.2673 38.2071 30.6338 36.0228 34.7725 31.1904C40.0534 25.0111 41.2973 15.1425 38.1876 4.13077L38.606 4.0176C41.761 15.1764 40.4831 25.1809 35.1005 31.4733C31.4819 35.7059 26.2123 37.9468 20.0154 37.9468L20.0268 37.9354Z" fill="#11112B"/>
<path d="M58.7344 25.7807C39.2053 24.4566 17.8668 16.8966 0.180945 5.04748L0.418415 4.69663C18.0365 16.5005 39.307 24.0265 58.7683 25.3506L58.7344 25.7807Z" fill="#11112B"/>
<path d="M47.969 42.3718C31.1085 36.8943 13.6714 23.2683 0.124293 5.00223L0.463538 4.74193C13.9541 22.9401 31.3121 36.5095 48.0933 41.9531L47.9577 42.3605L47.969 42.3718Z" fill="#11112B"/>
</svg>
