<svg width="550" height="586" viewBox="0 0 550 586" fill="none" xmlns="http://www.w3.org/2000/svg">
<mask id="mask0_86_4095" style="mask-type:alpha" maskUnits="userSpaceOnUse" x="0" y="0" width="550" height="586">
<rect width="550" height="586" rx="25" fill="#11112B"/>
</mask>
<g mask="url(#mask0_86_4095)">
<rect width="550" height="586" rx="25" fill="#11112B"/>
<rect x="191" y="356" width="13" height="13" fill="#D9D9D9"/>
<rect x="448" y="74" width="28" height="28" fill="#D9D9D9"/>
<g opacity="0.25">
<path d="M1341.12 238.207C1330.81 144.814 1245.23 85.3397 1154.4 83.133C1063.57 80.9263 970.317 125.378 888.119 181.669C805.921 237.96 730.92 306.635 648.847 363.139C566.774 419.642 473.769 464.615 382.807 463.231C272.491 461.544 183.687 393.272 83.2359 358.098C-75.0944 302.628 -269.522 333.963 -427.291 440.386C-508.621 495.236 -587.273 587.063 -576.428 678.936" stroke="white" stroke-width="0.85" stroke-linecap="round" stroke-linejoin="round"/>
<path d="M1352.16 256.753C1341.85 163.361 1256.27 103.886 1165.44 101.679C1074.61 99.4727 981.357 143.924 899.159 200.216C816.961 256.507 741.96 325.182 659.887 381.685C577.814 438.189 484.809 483.161 393.847 481.778C283.531 480.091 194.727 411.819 94.2758 376.645C-64.0544 321.175 -258.482 352.51 -416.251 458.932C-497.58 513.782 -576.233 605.61 -565.388 697.483" stroke="white" stroke-width="0.85" stroke-linecap="round" stroke-linejoin="round"/>
<path d="M1363.21 275.321C1352.9 181.929 1267.32 122.454 1176.49 120.248C1085.66 118.041 992.402 162.493 910.204 218.784C828.006 275.075 753.005 343.75 670.932 400.253C588.859 456.757 495.854 501.729 404.892 500.346C294.576 498.659 205.772 430.387 105.321 395.213C-53.0095 339.743 -247.437 371.078 -405.207 477.501C-486.536 532.35 -565.188 624.178 -554.343 716.051" stroke="white" stroke-width="0.85" stroke-linecap="round" stroke-linejoin="round"/>
<path d="M1374.23 293.898C1363.92 200.506 1278.34 141.031 1187.51 138.825C1096.68 136.618 1003.43 181.07 921.229 237.361C839.031 293.652 764.029 362.327 681.956 418.83C599.883 475.334 506.879 520.306 415.917 518.923C305.601 517.236 216.796 448.964 116.345 413.79C-41.985 358.32 -236.413 389.655 -394.182 496.078C-475.511 550.928 -554.164 642.755 -543.319 734.628" stroke="white" stroke-width="0.85" stroke-linecap="round" stroke-linejoin="round"/>
<path d="M1385.27 312.467C1374.97 219.074 1289.39 159.599 1198.56 157.393C1107.73 155.186 1014.47 199.638 932.274 255.929C850.076 312.22 775.074 380.895 693.001 437.399C610.928 493.902 517.924 538.874 426.962 537.491C316.645 535.804 227.841 467.532 127.39 432.358C-30.9402 376.888 -225.368 408.223 -383.137 514.646C-464.466 569.496 -543.119 661.323 -532.274 753.196" stroke="white" stroke-width="0.85" stroke-linecap="round" stroke-linejoin="round"/>
<path d="M1396.31 331.013C1386.01 237.62 1300.43 178.146 1209.6 175.939C1118.77 173.732 1025.51 218.184 943.314 274.475C861.116 330.766 786.114 399.441 704.041 455.945C621.968 512.448 528.964 557.421 438.002 556.037C327.686 554.35 238.881 486.078 138.43 450.904C-19.9001 395.434 -214.328 426.769 -372.097 533.192C-453.426 588.042 -532.079 679.869 -521.234 771.742" stroke="white" stroke-width="0.85" stroke-linecap="round" stroke-linejoin="round"/>
<path d="M1407.36 349.581C1397.05 256.189 1311.47 196.714 1220.64 194.507C1129.81 192.3 1036.56 236.752 954.36 293.043C872.162 349.334 797.16 418.01 715.087 474.513C633.014 531.016 540.01 575.989 449.048 574.605C338.731 572.918 249.927 504.647 149.476 469.472C-8.85425 414.003 -203.282 445.337 -361.051 551.76C-442.38 606.61 -521.033 698.438 -510.188 790.31" stroke="white" stroke-width="0.85" stroke-linecap="round" stroke-linejoin="round"/>
<path d="M1418.38 368.158C1408.08 274.765 1322.49 215.291 1231.67 213.084C1140.84 210.877 1047.58 255.329 965.383 311.62C883.185 367.911 808.184 436.586 726.111 493.09C644.038 549.593 551.033 594.566 460.071 593.182C349.755 591.495 260.951 523.223 160.499 488.049C2.16918 432.579 -192.259 463.914 -350.028 570.337C-431.357 625.187 -510.01 717.014 -499.164 808.887" stroke="white" stroke-width="0.85" stroke-linecap="round" stroke-linejoin="round"/>
<path d="M1429.43 386.726C1419.12 293.334 1333.54 233.859 1242.71 231.652C1151.88 229.446 1058.63 273.897 976.428 330.188C894.23 386.48 819.228 455.155 737.155 511.658C655.082 568.161 562.078 613.134 471.116 611.751C360.8 610.063 271.996 541.792 171.544 506.617C13.2142 451.148 -181.214 482.483 -338.983 588.905C-420.312 643.755 -498.965 735.583 -488.119 827.456" stroke="white" stroke-width="0.85" stroke-linecap="round" stroke-linejoin="round"/>
<path d="M1440.48 405.294C1430.17 311.902 1344.59 252.427 1253.76 250.22C1162.93 248.013 1069.67 292.465 987.474 348.756C905.276 405.047 830.274 473.723 748.201 530.226C666.128 586.729 573.124 631.702 482.162 630.318C371.846 628.631 283.041 560.36 182.59 525.185C24.26 469.716 -170.168 501.05 -327.937 607.473C-409.266 662.323 -487.919 754.151 -477.074 846.024" stroke="white" stroke-width="0.85" stroke-linecap="round" stroke-linejoin="round"/>
</g>
</g>
</svg>
