<svg width="100" height="100" viewBox="0 0 100 100" fill="none" xmlns="http://www.w3.org/2000/svg">
<g clip-path="url(#clip0_81_3531)">
<path d="M99.9452 2.81601C99.8628 1.32523 98.6719 0.134277 97.1811 0.0526428C97.1422 0.0503539 96.2053 0 94.5886 0C90.1277 0 81.1304 0.37384 70.9963 2.87933C58.188 6.04553 47.8212 11.5234 40.1834 19.1612C36.8593 22.4853 33.9487 26.3176 31.4607 30.6351L28.1244 27.2995C27.2486 26.4236 25.9172 26.1932 24.7988 26.7235L1.67559 37.6755C0.619681 38.176 -0.037973 39.2563 0.00169976 40.4243L1.21935 75.7172C1.25902 76.8829 1.98763 77.9137 3.07253 78.3417C3.42119 78.4798 3.78512 78.5461 4.14599 78.5461C4.90893 78.5461 5.6589 78.2478 6.21813 77.6878L26.0523 57.8537L32.0268 63.8275L12.1919 83.6616C11.0483 84.8061 11.0483 86.6608 12.1919 87.8052C12.7641 88.3774 13.5141 88.6635 14.2633 88.6635C15.0133 88.6635 15.7633 88.3774 16.3355 87.8052L36.1696 67.9703L42.1434 73.9441L22.31 93.779C21.4845 94.6037 21.2282 95.8397 21.6554 96.9246C22.0835 98.0102 23.1142 98.7381 24.28 98.7785L59.5728 99.9954C59.6071 99.9969 59.6407 99.9969 59.6742 99.9969C60.8034 99.9969 61.8356 99.3469 62.3216 98.3215L73.2752 75.1991C73.8054 74.0799 73.5742 72.7486 72.6991 71.8727L69.362 68.5371C73.6803 66.0484 77.5125 63.1378 80.8359 59.8144C85.6951 54.9553 89.7234 48.912 92.8079 41.8518C95.2486 36.2671 97.1086 30.0339 98.3354 23.3261C100.417 11.9446 99.9651 3.18375 99.9452 2.81601ZM5.9244 42.1463L25.4412 32.9018L28.6485 36.1099C26.4284 40.9836 24.6675 46.3707 23.3736 52.2461L6.84221 68.7775L5.9244 42.1463ZM67.0961 74.5567L57.8508 94.0735L31.2197 93.1549L47.7503 76.6235C53.6264 75.3296 59.0135 73.5687 63.8872 71.3486L67.0961 74.5567ZM92.5455 22.4136C90.7495 32.1503 86.5404 45.8237 76.6931 55.6709C72.9921 59.3719 68.5571 62.5114 63.4271 65.0742C63.2646 65.1367 63.1082 65.2161 62.9564 65.3091C58.2742 67.5972 53.0214 69.4115 47.2246 70.739L40.3131 63.8275L50.4114 53.7292C51.5558 52.5848 51.5558 50.7301 50.4114 49.5857C49.2677 48.4413 47.4123 48.4421 46.2686 49.5857L36.1696 59.684L29.2581 52.7725C30.5849 46.9765 32.3999 41.7244 34.688 37.0422C34.7811 36.8904 34.8604 36.7325 34.9237 36.5692C37.4864 31.44 40.6252 27.005 44.3262 23.304C60.2091 7.42111 85.9018 5.91125 94.1347 5.86014C94.1126 9.2041 93.8562 15.3145 92.5455 22.4136Z" fill="white"/>
<path d="M69.0283 42.5041C72.1091 42.5041 75.0059 41.304 77.1857 39.1251C81.6824 34.6275 81.6824 27.3094 77.1849 22.8127C75.0059 20.6337 72.1098 19.4336 69.0283 19.4336C65.9468 19.4336 63.0507 20.6337 60.8717 22.8127C58.6928 24.9908 57.4927 27.8877 57.4927 30.9692C57.4927 34.0507 58.6928 36.9469 60.8717 39.1258C63.0507 41.304 65.9468 42.5041 69.0283 42.5041ZM65.0153 26.9554C66.0872 25.8835 67.5124 25.293 69.0283 25.293C70.5443 25.293 71.9695 25.8835 73.0421 26.9554C75.2547 29.1679 75.2547 32.769 73.0421 34.9823C71.9702 36.0542 70.5443 36.6447 69.0283 36.6447C67.5124 36.6447 66.0872 36.0542 65.0145 34.9823C63.9426 33.9104 63.3521 32.4852 63.3521 30.9692C63.3521 29.4525 63.9426 28.0273 65.0153 26.9554Z" fill="white"/>
</g>
<defs>
<clipPath id="clip0_81_3531">
<rect width="100" height="100" fill="white"/>
</clipPath>
</defs>
</svg>
