<svg width="94" height="105" viewBox="0 0 94 105" fill="none" xmlns="http://www.w3.org/2000/svg">
<path d="M66.0336 104.184C64.9023 104.184 63.7596 104.127 62.583 104.025L62.6169 104.048L61.4969 103.912C52.627 102.848 43.2141 98.8054 34.2651 92.2155C32.1155 90.5511 29.4116 88.3432 27.5335 86.7127C26.6963 85.9994 25.712 85.0256 24.8522 84.1651C24.5807 83.8933 24.3205 83.6442 24.0829 83.4064C22.0351 81.425 18.9352 77.8357 17.2382 75.6617C15.971 74.0426 14.3193 71.6987 12.1697 68.4944C11.5587 67.5773 10.8686 66.3884 10.2577 65.3241L9.88433 64.69C9.1942 63.5124 8.31175 61.848 7.6895 60.5572C6.86361 58.8588 5.81144 56.515 5.06475 54.7373C4.00127 52.1218 3.08487 49.4609 2.34949 46.8454C-2.00624 31.4238 -0.252634 17.6101 7.16907 8.92557C13.0069 2.09796 21.9899 -0.981817 32.4549 0.275005C57.0393 3.21891 83.6036 28.8196 91.6589 57.3529C96.0033 72.7631 94.2497 86.5768 86.828 95.2613C81.85 101.093 74.5754 104.184 66.0336 104.184ZM61.6326 103.493C71.9393 104.704 80.7752 101.693 86.4999 94.9783C93.8198 86.407 95.5508 72.7291 91.2403 57.4661C83.2303 29.0913 56.8357 3.62653 32.3984 0.70527C22.0691 -0.528907 13.2218 2.49426 7.48585 9.20863C0.177282 17.7799 -1.5537 31.4465 2.75678 46.7208C3.49216 49.325 4.39725 51.9632 5.46072 54.5675C6.20742 56.3451 7.25958 58.6776 8.07416 60.3647C8.69641 61.6442 9.56755 63.2973 10.2577 64.4748L10.631 65.1089C11.242 66.1619 11.9208 67.3508 12.5317 68.2566C14.67 71.4496 16.3218 73.7821 17.5776 75.4013C19.2633 77.5752 22.3519 81.1306 24.3883 83.1121C24.6372 83.3498 24.8975 83.6103 25.169 83.8707C26.0288 84.7199 27.0131 85.6823 27.839 86.3956C29.717 88.0148 32.4097 90.2227 34.5479 91.8758C43.0897 98.1599 52.05 102.112 60.5465 103.346C49.1764 96.4955 39.5599 81.5382 34.0728 62.0858L34.4914 61.9725C40.0916 81.8213 50.0023 96.9597 61.6666 103.493H61.6326Z" fill="#11112B"/>
</svg>
