<svg width="61" height="58" viewBox="0 0 61 58" fill="none" xmlns="http://www.w3.org/2000/svg">
<path d="M60.5504 58C57.5527 50.3506 45.9277 44.7854 28.6619 42.7127L28.5132 42.6898L28.4788 42.5524C22.8037 22.4671 12.7806 7.14551 0.961114 0.538203L0 0L1.08698 0.125962C25.9502 3.10326 52.8157 28.9943 60.9623 57.8511L60.5504 57.9885V58ZM28.8564 42.3005C44.5661 44.2014 55.6304 49.0108 59.8525 55.6754C51.1452 28.3301 25.8587 4.17966 2.11675 0.721421C13.593 7.6379 23.2957 22.7076 28.8564 42.3119V42.3005Z" fill="#92DEED"/>
<path d="M54.9439 51.1637C49.0857 30.4257 29.8061 11.8176 11.9568 9.68769L12.0025 9.25254C30.012 11.4054 49.4632 30.1509 55.3558 51.0492L54.9325 51.1637H54.9439Z" fill="#92DEED"/>
<path d="M44.1657 45.8732C41.0649 34.8916 30.8588 25.0322 21.4078 23.91L21.4535 23.4748C31.0647 24.6199 41.4311 34.6168 44.5776 45.7587L44.1542 45.8732H44.1657Z" fill="#92DEED"/>
<path d="M28.9022 42.5524L28.4789 42.4493C32.3005 26.1887 31.2707 14.4971 25.6413 10.3633L25.893 10.0083C31.6711 14.2452 32.7696 26.0971 28.8908 42.541L28.9022 42.5524Z" fill="#92DEED"/>
</svg>
