<svg width="28" height="28" viewBox="0 0 28 28" fill="none" xmlns="http://www.w3.org/2000/svg">
<path d="M23.898 4.099C18.4298 -1.36749 9.5655 -1.36618 4.099 4.10201C-1.36749 9.5702 -1.36618 18.4345 4.10201 23.901C9.5702 29.3675 18.4345 29.3662 23.901 23.898C26.5263 21.2718 28.0008 17.7103 28 13.997C27.9992 10.2843 26.5237 6.72389 23.898 4.099ZM21.2025 19.5018C21.2019 19.5024 21.2013 19.5031 21.2006 19.5037V19.499L20.4913 20.2037C19.5739 21.1326 18.2378 21.5149 16.9679 21.2117C15.6885 20.8692 14.4723 20.3241 13.3653 19.597C12.3368 18.9397 11.3837 18.1714 10.5233 17.3057C9.73159 16.5198 9.02032 15.6568 8.39995 14.7297C7.72139 13.7321 7.1843 12.6453 6.80395 11.5003C6.36793 10.1552 6.72925 8.67929 7.7373 7.6877L8.56795 6.85705C8.79889 6.62507 9.17416 6.62425 9.40609 6.85519C9.40669 6.85579 9.40734 6.8564 9.40795 6.85705L12.0306 9.4797C12.2626 9.71064 12.2634 10.0859 12.0324 10.3178C12.0318 10.3184 12.0312 10.319 12.0306 10.3197L10.4906 11.8597C10.0487 12.2968 9.99315 12.9913 10.3599 13.493C10.9169 14.2575 11.5333 14.9768 12.2033 15.6444C12.9503 16.3946 13.7623 17.077 14.6299 17.6837C15.1313 18.0334 15.8109 17.9744 16.2446 17.5437L17.7332 16.0317C17.9642 15.7998 18.3394 15.7989 18.5714 16.0299C18.572 16.0305 18.5726 16.0311 18.5732 16.0317L21.2006 18.6637C21.4326 18.8946 21.4334 19.2698 21.2025 19.5018Z" fill="#92DEED"/>
</svg>
