<svg width="72" height="72" viewBox="0 0 72 72" fill="none" xmlns="http://www.w3.org/2000/svg">
<path d="M65.9996 15V27C65.9996 27.7957 65.6836 28.5587 65.121 29.1213C64.5583 29.6839 63.7953 30 62.9996 30C62.204 30 61.4409 29.6839 60.8783 29.1213C60.3157 28.5587 59.9996 27.7957 59.9996 27V22.56L41.2496 43.98C40.9685 44.3 40.6224 44.5565 40.2345 44.7323C39.8465 44.9082 39.4256 44.9995 38.9996 45C38.5876 45.0105 38.1779 44.936 37.7959 44.7812C37.4139 44.6264 37.068 44.3945 36.7796 44.1L30.0596 37.32L11.1596 58.98C10.9056 59.2954 10.5903 59.5561 10.2329 59.7464C9.87537 59.9367 9.48306 60.0526 9.07956 60.0872C8.67607 60.1218 8.26975 60.0744 7.88508 59.9477C7.50042 59.8211 7.14538 59.6178 6.84136 59.3503C6.53734 59.0828 6.29063 58.7565 6.11611 58.391C5.94159 58.0256 5.84286 57.6286 5.82588 57.224C5.8089 56.8193 5.87402 56.4155 6.01731 56.0367C6.1606 55.6579 6.3791 55.3121 6.65963 55.02L27.6596 31.02C27.9298 30.7104 28.2608 30.4597 28.6319 30.2833C29.003 30.1069 29.4064 30.0086 29.8171 29.9945C30.2277 29.9805 30.6369 30.0509 31.0192 30.2015C31.4016 30.3521 31.7489 30.5796 32.0396 30.87L38.9996 37.59L56.0096 18H50.9996C50.204 18 49.4409 17.6839 48.8783 17.1213C48.3157 16.5587 47.9996 15.7956 47.9996 15C47.9996 14.2044 48.3157 13.4413 48.8783 12.8787C49.4409 12.3161 50.204 12 50.9996 12H62.9996C63.7953 12 64.5583 12.3161 65.121 12.8787C65.6836 13.4413 65.9996 14.2044 65.9996 15Z" fill="#11112B"/>
</svg>
