<svg width="100" height="100" viewBox="0 0 100 100" fill="none" xmlns="http://www.w3.org/2000/svg">
<path d="M91.2109 5.53809H8.78906C3.94277 5.53809 0 9.48086 0 14.3271V68.6773C0 73.5236 3.94277 77.4664 8.78906 77.4664H38.3777V88.6023H33.9662C32.3482 88.6023 31.0365 89.9141 31.0365 91.532C31.0365 93.15 32.3482 94.4617 33.9662 94.4617H66.034C67.652 94.4617 68.9637 93.15 68.9637 91.532C68.9637 89.9141 67.652 88.6023 66.034 88.6023H61.6225V77.4664H91.2109C96.0572 77.4664 100 73.5236 100 68.6773V14.3271C100 9.48086 96.0572 5.53809 91.2109 5.53809ZM55.7629 88.6025H44.2371V77.4666H55.7629V88.6025ZM94.1406 68.6775C94.1406 70.293 92.8264 71.6072 91.2109 71.6072H8.78906C7.17363 71.6072 5.85938 70.293 5.85938 68.6775V64.2238H94.1406V68.6775ZM94.1406 58.3644H5.85938V14.3271C5.85938 12.7117 7.17363 11.3975 8.78906 11.3975H91.2109C92.8264 11.3975 94.1406 12.7117 94.1406 14.3271V58.3644Z" fill="white"/>
<path d="M35.6008 42.3617L27.6646 36.9436L35.6008 31.5254C36.9371 30.6131 37.2809 28.7902 36.3686 27.4539C35.4564 26.1178 33.6334 25.774 32.2971 26.6861L20.8168 34.5238C20.0172 35.0697 19.5391 35.9754 19.5391 36.9434C19.5391 37.9113 20.0172 38.8174 20.8168 39.3633L32.2971 47.201C32.8023 47.5461 33.3773 47.7113 33.9463 47.7113C34.8818 47.7113 35.8014 47.2641 36.3686 46.4332C37.2809 45.0969 36.9371 43.274 35.6008 42.3617Z" fill="white"/>
<path d="M79.1832 34.5242L67.703 26.6865C66.3668 25.7744 64.544 26.1181 63.6315 27.4543C62.7192 28.7906 63.0629 30.6135 64.3992 31.5258L72.3354 36.9439L64.3992 42.3617C63.0629 43.274 62.7192 45.0969 63.6315 46.4332C64.1989 47.2642 65.118 47.7113 66.0537 47.7113C66.6227 47.7113 67.1977 47.5459 67.703 47.201L79.1832 39.3633C79.9828 38.8174 80.461 37.9117 80.461 36.9437C80.461 35.9758 79.9826 35.0703 79.1832 34.5242Z" fill="white"/>
<path d="M57.3164 23.9289C55.9063 23.1361 54.1199 23.6365 53.327 25.0473L41.5656 45.9697C40.7731 47.3799 41.2736 49.166 42.6842 49.959C43.1381 50.2143 43.6309 50.3354 44.117 50.3354C45.1412 50.3354 46.1358 49.7973 46.6734 48.8408L58.4348 27.9184C59.2277 26.508 58.727 24.7219 57.3164 23.9289Z" fill="white"/>
</svg>
