<svg width="64" height="64" viewBox="0 0 64 64" fill="none" xmlns="http://www.w3.org/2000/svg">
<g clip-path="url(#clip0_81_3637)">
<path d="M56.7271 7.28418C52.0298 2.58691 45.7842 0 39.1406 0C32.4976 0 26.252 2.58691 21.5542 7.28418C18.959 9.87939 17.0581 12.9106 15.8521 16.144L13.8301 14.6416C14.1333 13.8501 14.2993 12.9912 14.2993 12.0942C14.2993 8.15234 11.0918 4.94482 7.14941 4.94482C3.20703 4.94482 0 8.15234 0 12.0947C0 16.0366 3.20703 19.2441 7.14941 19.2441C8.83936 19.2441 10.394 18.6548 11.6191 17.6709L14.7583 20.0039C13.5591 26.0615 14.623 32.4829 17.9512 37.8955L1.69873 54.1475C-0.551758 56.3979 -0.551758 60.0591 1.69873 62.3096C2.78857 63.3994 4.23828 64 5.78027 64C7.32178 64 8.77148 63.3994 9.86182 62.3096L26.1094 46.0625C29.9893 48.458 34.4663 49.7388 39.1406 49.7388C45.7842 49.7388 52.0298 47.1519 56.7271 42.4546C66.4243 32.7578 66.4243 16.981 56.7271 7.28418ZM7.14941 15.4941C5.27539 15.4941 3.75098 13.9692 3.75098 12.0947C3.75098 10.2202 5.27539 8.69482 7.14941 8.69482C9.02393 8.69482 10.5488 10.2202 10.5488 12.0947C10.5488 13.9692 9.02393 15.4941 7.14941 15.4941ZM7.20947 59.6582C6.82764 60.0396 6.31982 60.25 5.78027 60.25C5.24023 60.25 4.73242 60.0396 4.35107 59.6582C3.5625 58.8696 3.5625 57.5874 4.35107 56.7988L7.86279 53.2876L10.7212 56.1465L7.20947 59.6582ZM13.373 53.4941L10.5146 50.6357L20.1826 40.9678C20.6162 41.4775 21.0732 41.9736 21.5542 42.4546C22.0342 42.9346 22.5298 43.3921 23.041 43.8271L13.373 53.4941ZM54.0747 39.8032C50.0859 43.792 44.7822 45.9888 39.1406 45.9888C33.4995 45.9888 28.1958 43.792 24.2065 39.8032C19.4951 35.0913 17.479 28.6895 18.1592 22.5312L26.1836 28.4937C25.8809 29.2856 25.7144 30.1445 25.7144 31.0415C25.7144 34.9834 28.9219 38.1909 32.8643 38.1909C36.8066 38.1909 40.0137 34.9834 40.0137 31.0415C40.0137 29.7495 39.6694 28.5366 39.0674 27.4897L47.5894 18.9673L46.9243 23.6768C46.7798 24.7021 47.4937 25.6504 48.519 25.7954C48.6079 25.8081 48.6963 25.814 48.7837 25.814C49.7031 25.814 50.5059 25.1372 50.6382 24.2007L51.7231 16.5156C51.8931 15.311 51.4976 14.127 50.6372 13.2671C49.7769 12.4072 48.5923 12.0112 47.3887 12.1812L39.7036 13.2661C38.6777 13.4111 37.9639 14.3599 38.1089 15.3848C38.2534 16.4102 39.2026 17.124 40.228 16.9795L44.938 16.3145L36.4155 24.8379C35.3687 24.2363 34.1558 23.8921 32.8638 23.8921C31.1743 23.8921 29.6196 24.481 28.3945 25.4648L19.0093 18.4907C19.9961 15.3589 21.7285 12.4136 24.2065 9.93555C28.1958 5.94678 33.4995 3.75 39.1406 3.75C44.7822 3.75 50.0859 5.94678 54.0747 9.93555C62.3101 18.1699 62.3101 31.5688 54.0747 39.8032ZM29.4653 31.041C29.4653 29.167 30.9897 27.6416 32.8638 27.6416C34.7383 27.6416 36.2627 29.167 36.2627 31.041C36.2627 32.9155 34.7383 34.4409 32.8638 34.4409C30.9897 34.4409 29.4653 32.9155 29.4653 31.041Z" fill="white"/>
</g>
<defs>
<clipPath id="clip0_81_3637">
<rect width="64" height="64" fill="white"/>
</clipPath>
</defs>
</svg>
