<svg width="100" height="100" viewBox="0 0 100 100" fill="none" xmlns="http://www.w3.org/2000/svg">
<path d="M89.0625 64.2197V35.7803C92.6242 35.0545 95.3125 31.8979 95.3125 28.125C95.3125 23.8172 91.8078 20.3125 87.5 20.3125C85.1883 20.3125 83.1086 21.3227 81.677 22.9238L57.7293 8.9459C57.7834 8.57559 57.8125 8.19746 57.8125 7.8125C57.8125 3.50469 54.3078 0 50 0C45.6922 0 42.1875 3.50469 42.1875 7.8125C42.1875 8.19746 42.2166 8.57559 42.2707 8.9459L18.323 22.9238C16.8914 21.3227 14.8119 20.3125 12.5 20.3125C8.19219 20.3125 4.6875 23.8172 4.6875 28.125C4.6875 31.8979 7.37578 35.0545 10.9375 35.7803V64.2197C7.37578 64.9455 4.6875 68.1021 4.6875 71.875C4.6875 76.1828 8.19219 79.6875 12.5 79.6875C14.8123 79.6875 16.8922 78.6768 18.324 77.075L42.2709 91.0525C42.2168 91.4232 42.1875 91.8019 42.1875 92.1873C42.1875 96.4951 45.6922 99.9998 50 99.9998C54.3078 99.9998 57.8125 96.4951 57.8125 92.1873C57.8125 91.8018 57.7834 91.4232 57.7291 91.0525L81.676 77.075C83.1078 78.6768 85.1877 79.6875 87.5 79.6875C91.8078 79.6875 95.3125 76.1828 95.3125 71.875C95.3125 68.1021 92.6242 64.9455 89.0625 64.2197ZM84.9803 64.4818L70.5461 39.8223L81.6768 33.3262C82.7771 34.5568 84.26 35.4385 85.9373 35.7805V64.2199C85.6104 64.2863 85.2914 64.3756 84.9803 64.4818ZM51.5625 70.3125V57.6553C53.2398 57.3135 54.7227 56.4316 55.823 55.201L80.1016 69.3705C79.9977 69.6768 79.9102 69.9906 79.8447 70.3123H51.5625V70.3125ZM20.1553 70.3125C20.0896 69.9906 20.0023 69.677 19.8984 69.3707L44.177 55.2012C45.2773 56.4318 46.7602 57.3135 48.4375 57.6555V70.3125H20.1553ZM14.0625 64.2197V35.7803C15.7398 35.4385 17.2227 34.5566 18.323 33.326L29.4537 39.8221L15.0197 64.4818C14.7086 64.3756 14.3896 64.2863 14.0625 64.2197ZM32.1514 41.3967L42.6016 47.4957C42.3346 48.2824 42.1875 49.1242 42.1875 50C42.1875 50.8758 42.3346 51.7176 42.6016 52.5043L18.323 66.6738C18.1311 66.4592 17.9277 66.2549 17.7135 66.0625L32.1514 41.3967ZM48.4375 15.4678V42.3447C46.7602 42.6865 45.2773 43.5684 44.177 44.799L33.7291 38.7014L47.4816 15.2063C47.7922 15.3123 48.1107 15.4012 48.4375 15.4678ZM52.5184 15.2061L66.2709 38.7012L55.823 44.7988C54.7227 43.5682 53.2398 42.6865 51.5625 42.3445V15.4678C51.8893 15.4012 52.2078 15.3123 52.5184 15.2061ZM50 54.6875C48.3266 54.6875 46.8559 53.8051 46.0264 52.4818C46.0061 52.4385 45.9842 52.3953 45.9594 52.3531C45.9332 52.3086 45.9051 52.266 45.8754 52.2252C45.5166 51.5627 45.3125 50.8047 45.3125 50C45.3125 49.1861 45.5215 48.4201 45.8879 47.7523C45.9121 47.7176 45.9375 47.6842 45.9594 47.6469C45.9836 47.6053 46.0051 47.5629 46.0252 47.5199C46.8545 46.1957 48.3258 45.3125 50 45.3125C51.6746 45.3125 53.1463 46.1961 53.9756 47.5209C53.9955 47.5633 54.0166 47.6055 54.0406 47.6469C54.0619 47.6834 54.0871 47.7162 54.1109 47.7504C54.4781 48.4186 54.6875 49.1852 54.6875 50C54.6875 50.8031 54.4842 51.5596 54.1266 52.2211C54.0961 52.2633 54.0672 52.3072 54.0406 52.3531C54.0164 52.3947 53.9949 52.4371 53.9748 52.4801C53.1455 53.8043 51.6742 54.6875 50 54.6875ZM81.677 66.6738L57.3984 52.5043C57.6654 51.7176 57.8125 50.8758 57.8125 50C57.8125 49.1242 57.6654 48.2824 57.3984 47.4957L67.8486 41.3967L82.2865 66.0627C82.0723 66.2551 81.8689 66.4592 81.677 66.6738ZM87.5 23.4375C90.0844 23.4375 92.1875 25.5406 92.1875 28.125C92.1875 30.7094 90.0844 32.8125 87.5 32.8125C85.8254 32.8125 84.3537 31.9289 83.5246 30.6041C83.5047 30.5615 83.4836 30.5195 83.4594 30.4781C83.433 30.433 83.4045 30.3898 83.3746 30.3484C83.0162 29.6863 82.8125 28.9291 82.8125 28.125C82.8125 27.3111 83.0215 26.5451 83.3879 25.8773C83.4121 25.8426 83.4375 25.8092 83.4594 25.7719C83.4836 25.7303 83.5051 25.6879 83.5252 25.6449C84.3545 24.3207 85.8258 23.4375 87.5 23.4375ZM80.1016 25.6205C79.8346 26.4072 79.6875 27.249 79.6875 28.125C79.6875 29.001 79.8346 29.8426 80.1016 30.6293L68.9684 37.127L55.2125 13.6258C55.7645 13.1305 56.2451 12.5578 56.6385 11.9252L80.1016 25.6205ZM50 3.125C52.5844 3.125 54.6875 5.22813 54.6875 7.8125C54.6875 8.30059 54.6123 8.77148 54.473 9.21445C54.4725 9.21641 54.4717 9.21816 54.4711 9.22012C54.1225 10.325 53.3746 11.2539 52.3979 11.8381C52.3871 11.8439 52.3762 11.8486 52.3656 11.8547C52.3572 11.8596 52.3496 11.8654 52.3414 11.8705C51.6518 12.2701 50.8525 12.5 50 12.5C49.1477 12.5 48.3484 12.2701 47.659 11.8707C47.6506 11.8656 47.643 11.8596 47.6344 11.8547C47.623 11.848 47.6113 11.8432 47.5998 11.8367C46.6234 11.2521 45.876 10.3227 45.5279 9.21777L45.5277 9.21738C45.3881 8.77363 45.3125 8.30176 45.3125 7.8125C45.3125 5.22813 47.4156 3.125 50 3.125ZM43.3617 11.9252C43.7551 12.5578 44.2357 13.1305 44.7877 13.6258L31.0314 37.127L19.8982 30.6293C20.1652 29.8426 20.3123 29.0008 20.3123 28.125C20.3123 27.249 20.1652 26.4074 19.8982 25.6205L43.3617 11.9252ZM7.8125 28.125C7.8125 25.5406 9.91563 23.4375 12.5 23.4375C14.1746 23.4375 15.6463 24.3211 16.4756 25.6459C16.4955 25.6883 16.5166 25.7305 16.5406 25.7719C16.5619 25.8084 16.5871 25.8412 16.6109 25.8754C16.9781 26.5437 17.1875 27.3104 17.1875 28.125C17.1875 28.9281 16.9842 29.6844 16.6268 30.3459C16.5963 30.3881 16.5674 30.432 16.5406 30.4781C16.5164 30.5197 16.4949 30.5621 16.4748 30.6051C15.6455 31.9293 14.1742 32.8125 12.5 32.8125C9.91563 32.8125 7.8125 30.7094 7.8125 28.125ZM12.5 76.5625C9.91563 76.5625 7.8125 74.4594 7.8125 71.875C7.8125 69.2906 9.91563 67.1875 12.5 67.1875C13.3576 67.1875 14.1617 67.4203 14.8541 67.8242C14.8586 67.827 14.8627 67.8301 14.8672 67.8328C14.8715 67.8354 14.8762 67.8369 14.8805 67.8395C15.5285 68.2232 16.0764 68.7582 16.4754 69.3959C16.4953 69.4385 16.5164 69.4805 16.5406 69.5219C16.5621 69.5584 16.5871 69.5914 16.6109 69.6256C16.9781 70.2937 17.1875 71.0603 17.1875 71.875C17.1875 72.676 16.9852 73.4305 16.6295 74.0906C16.5979 74.134 16.5682 74.1793 16.5406 74.2266C16.5148 74.2709 16.4916 74.316 16.4707 74.3615C15.6406 75.6822 14.1713 76.5625 12.5 76.5625ZM19.8988 74.3781C20.0025 74.0723 20.0898 73.759 20.1553 73.4375H48.4375V84.5322C46.3002 84.9678 44.4785 86.2795 43.3625 88.0736L19.8988 74.3781ZM50 96.875C47.4156 96.875 45.3125 94.7719 45.3125 92.1875C45.3125 89.6031 47.4156 87.5 50 87.5C52.5844 87.5 54.6875 89.6031 54.6875 92.1875C54.6875 94.7719 52.5844 96.875 50 96.875ZM56.6375 88.0736C55.5215 86.2795 53.6998 84.9678 51.5625 84.5322V73.4375H79.8447C79.9102 73.759 79.9975 74.0723 80.1012 74.3781L56.6375 88.0736ZM87.5 76.5625C85.8281 76.5625 84.3586 75.6818 83.5287 74.3605C83.5078 74.3152 83.485 74.2705 83.4594 74.2266C83.432 74.1797 83.4025 74.135 83.3713 74.092C83.015 73.4314 82.8125 72.6766 82.8125 71.875C82.8125 71.0611 83.0215 70.2951 83.3881 69.6272C83.4123 69.5924 83.4377 69.559 83.4594 69.5219C83.4836 69.4803 83.5051 69.4379 83.5252 69.3949C83.9242 68.7576 84.4719 68.2231 85.1195 67.8395C85.1238 67.8369 85.1285 67.8354 85.1328 67.8328C85.1373 67.8303 85.1412 67.827 85.1457 67.8244C85.8381 67.4203 86.6422 67.1875 87.5 67.1875C90.0844 67.1875 92.1875 69.2906 92.1875 71.875C92.1875 74.4594 90.0844 76.5625 87.5 76.5625Z" fill="white"/>
</svg>
