<svg width="100" height="100" viewBox="0 0 100 100" fill="none" xmlns="http://www.w3.org/2000/svg">
<path d="M61.4705 77.9411L77.3529 93.8235C81.7646 98.2352 89.4117 98.2352 93.8235 93.8235C98.5294 89.4117 98.5294 81.7646 93.8235 77.3529L77.9411 61.4705C80.8823 55.8823 82.647 49.4117 82.647 42.647C82.647 41.4705 82.647 40.2941 82.3529 39.4117L93.2352 28.5294C94.4117 27.3529 94.4117 25.5882 93.2352 24.4117C92.0588 23.2352 90.2941 23.2352 89.1176 24.4117L81.1764 32.3529C79.4117 25.5882 75.8823 19.7058 70.8823 14.7058C55.2941 -0.882411 30.2941 -0.882411 14.7058 14.7058C-0.882411 30.2941 -0.882411 55.2941 14.7058 70.8823C27.647 83.8235 46.7647 85.8823 61.4705 77.9411ZM89.4117 81.4705C91.7647 83.8235 91.7647 87.3529 89.4117 89.7058C87.0588 92.0588 83.5294 92.0588 81.1764 89.7058L66.1764 74.7058C67.647 73.5294 69.1176 72.3529 70.5882 70.8823C72.0588 69.4117 73.2352 67.9411 74.4117 66.4705L89.4117 81.4705ZM18.8235 18.8235C32.0588 5.58818 53.5294 5.58818 66.7647 18.8235C71.7647 23.8235 74.9999 30.2941 76.1764 37.3529L70.2941 43.2352L60.5882 33.5294C59.4117 32.3529 57.647 32.3529 56.4705 33.5294L41.1764 48.8235L34.4117 42.0588C33.2352 40.8823 31.4705 40.8823 30.2941 42.0588L18.5294 53.8235C17.3529 54.9999 17.3529 56.7647 18.5294 57.9411C19.7058 59.1176 21.4705 59.1176 22.647 57.9411L32.3529 48.2352C36.7647 51.7646 39.9999 58.2352 43.2352 54.9999L58.5294 39.7058L68.2352 49.4117C69.4117 50.5882 71.1764 50.5882 72.3529 49.4117L76.4705 45.2941C75.8823 53.5294 72.3529 60.8823 66.7647 66.7647C53.5294 79.9999 32.0588 79.9999 18.8235 66.7647C5.58818 53.5294 5.58818 32.0588 18.8235 18.8235Z" fill="white"/>
</svg>
