<svg width="64" height="64" viewBox="0 0 64 64" fill="none" xmlns="http://www.w3.org/2000/svg">
<g clip-path="url(#clip0_99_8931)">
<path d="M26.5328 48.7803L18.9914 56.3217C15.8649 59.4482 10.8017 59.4482 7.67783 56.3223C4.55332 53.1978 4.55332 48.1341 7.67721 45.0102L22.7627 29.9248C25.8866 26.8008 30.9502 26.8008 34.0741 29.9248C35.1155 30.9662 36.804 30.9662 37.8454 29.9248C38.8868 28.8834 38.8868 27.1949 37.8454 26.1535C32.6386 20.9467 24.1982 20.9467 18.9914 26.1535L3.90606 41.2388C-1.30072 46.4456 -1.30072 54.886 3.90606 60.0928C9.11222 65.3023 17.5533 65.3023 22.7628 60.0928L30.3042 52.5514C31.3456 51.51 31.3456 49.8215 30.3042 48.7801C29.2628 47.7388 27.5742 47.7389 26.5328 48.7803Z" fill="#11112B"/>
<path d="M60.0943 3.90496C54.8875 -1.30182 46.4444 -1.30182 41.2376 3.90496L32.1895 12.953C31.1481 13.9944 31.1481 15.6829 32.1895 16.7243C33.2309 17.7657 34.9194 17.7657 35.9608 16.7243L45.0088 7.67624C48.1327 4.55222 53.199 4.55222 56.323 7.67624C59.4469 10.8001 59.4469 15.8638 56.323 18.9877L39.7309 35.5799C36.6069 38.7039 31.5434 38.7039 28.4195 35.5799C27.3781 34.5385 25.6896 34.5385 24.6482 35.5799C23.6068 36.6213 23.6068 38.3098 24.6482 39.3512C29.855 44.5579 38.2954 44.5579 43.5022 39.3512L60.0943 22.7591C65.3011 17.5523 65.3011 9.11174 60.0943 3.90496Z" fill="#11112B"/>
</g>
<defs>
<clipPath id="clip0_99_8931">
<rect width="64" height="64" fill="white"/>
</clipPath>
</defs>
</svg>
