<svg width="109" height="140" viewBox="0 0 109 140" fill="none" xmlns="http://www.w3.org/2000/svg">
<path d="M61.8717 140L61.6338 139.977C37.0212 137.03 10.4265 111.4 2.36195 82.834L2.29399 82.5959L2.54318 82.5619C21.2773 80.3061 38.0746 74.5816 47.4643 67.2587L47.7135 67.066L47.8041 67.3721C51.859 81.7231 65.1904 94.5891 77.5363 96.0741L78.0573 96.1308L77.6496 96.4482C68.2712 103.76 62.3701 119.947 61.8717 139.762V140ZM2.849 82.9587C10.9248 111.185 37.1232 136.463 61.4526 139.524C61.9963 119.97 67.7842 103.93 76.9927 96.4368C64.726 94.6685 51.6212 81.9838 47.487 67.8028C38.0293 75.0464 21.3906 80.7029 2.849 82.97V82.9587Z" fill="#92DEED"/>
<path d="M63.7972 121.919C45.5501 119.743 25.8532 100.744 19.8728 79.5806L20.2919 79.4673C26.227 100.484 45.7653 119.335 63.8538 121.5L63.8085 121.931L63.7972 121.919Z" fill="#92DEED"/>
<path d="M69.166 106.9C55.1437 105.222 39.9888 90.6216 35.4015 74.3549L35.8206 74.2415C40.3739 90.3609 55.3589 104.825 69.2226 106.48L69.1773 106.911L69.166 106.9Z" fill="#92DEED"/>
<path d="M37.395 130.115L37.0099 129.934C45.0857 113.032 55.5515 98.5566 65.0091 91.1884L65.2697 91.5285C55.8686 98.8514 45.4482 113.282 37.395 130.127V130.115Z" fill="#92DEED"/>
<path d="M2.41859 83.0154L2.37328 82.834C-1.98744 67.4061 -0.231828 53.5765 7.19839 44.882C13.0429 38.0466 22.0362 34.9633 32.5132 36.2216H32.6039L32.6605 36.3009C38.1765 43.295 44.2929 47.1492 50.2959 47.7046C53.2748 44.542 57.6809 43.1363 62.7891 43.7485L63.3102 43.8052L62.9024 44.1225C58.9947 47.1719 54.7699 48.4868 50.4658 48.1467C50.3752 48.2374 50.2959 48.3394 50.2053 48.4415C46.5129 52.7604 45.6521 59.6525 47.8268 67.3608L47.8721 67.4968L47.7588 67.5875C38.3011 74.9557 21.4245 80.7142 2.62246 82.9814L2.44124 83.004L2.41859 83.0154ZM28.0279 36.3803C19.601 36.3803 12.4313 39.4296 7.53819 45.1654C0.221234 53.7126 -1.52306 67.3268 2.7244 82.5393C21.3113 80.2721 37.9613 74.6043 47.351 67.3494C45.1877 59.5618 46.0938 52.579 49.8542 48.1694C49.8769 48.1467 49.8882 48.1241 49.9108 48.1014C43.9304 47.4326 37.8594 43.5558 32.366 36.6296C30.8822 36.4596 29.4324 36.3689 28.0166 36.3689L28.0279 36.3803ZM50.8509 47.75C54.7473 47.9767 58.6096 46.7864 62.1888 44.1225C57.5902 43.6918 53.6146 44.9727 50.8509 47.75Z" fill="#92DEED"/>
<path d="M19.8842 79.5806C16.6561 68.1429 17.9586 57.8841 23.4747 51.4341C27.8127 46.3557 34.4841 44.0772 42.2654 45.0067L42.2201 45.4375C34.586 44.5193 28.0506 46.7524 23.8031 51.7175C18.3891 58.0541 17.1092 68.1769 20.3032 79.4673L19.8842 79.5806Z" fill="#92DEED"/>
<path d="M35.4015 74.3549C32.921 65.5584 33.9291 57.6574 38.1652 52.6924C41.5065 48.7815 46.6375 47.0245 52.6405 47.7387L52.5952 48.1694C46.7507 47.4779 41.7444 49.1783 38.505 52.9758C34.3595 57.8274 33.3854 65.5811 35.8206 74.2416L35.4015 74.3549Z" fill="#92DEED"/>
<path d="M24.1543 61.1828C17.1771 61.1828 9.38442 60.0152 1.2293 57.6347L1.35389 57.2153C20.4505 62.7698 37.4516 61.7269 46.83 54.4153L47.0905 54.7554C41.6311 59.0063 33.6346 61.1714 24.1543 61.1714V61.1828Z" fill="#92DEED"/>
<path d="M108.277 104.088L107.756 104.032C99.2606 103.012 90.5279 99.2934 82.3954 93.6823C80.7757 94.3397 79.19 95.2579 77.6496 96.4595L77.5816 96.5162H77.491C64.9865 95.0085 51.4852 81.9951 47.3963 67.4968L47.351 67.3607L47.4643 67.2701C50.4205 64.9576 52.5159 62.5884 53.6599 60.2533C51.5192 55.9343 49.7636 51.4567 48.4724 46.8998L48.3251 46.3557L48.8008 46.6617C52.7878 49.1896 54.9738 52.2956 55.1437 55.651C55.2117 57.1586 54.8719 58.7003 54.147 60.2533C60.739 73.482 70.9782 85.2372 82.4407 93.2062C90.7884 89.9528 99.9969 93.6143 107.948 103.692L108.277 104.1V104.088ZM82.8824 93.4896C90.7091 98.8514 99.1021 102.445 107.291 103.533C99.6344 94.0563 90.8677 90.5423 82.8824 93.4896ZM47.8607 67.5081C51.9496 81.7684 65.1904 94.5324 77.4683 96.0514C78.9295 94.9179 80.4472 94.0223 81.9876 93.3762C70.6384 85.4299 60.5125 73.7881 53.9204 60.7067C52.7311 62.9852 50.6924 65.275 47.8607 67.4968V67.5081ZM49.0727 47.3192C50.3073 51.5474 51.9383 55.7076 53.9204 59.7318C54.5207 58.3489 54.8039 56.9772 54.7359 55.6396C54.5887 52.579 52.6405 49.6997 49.0727 47.3079V47.3192Z" fill="#92DEED"/>
<path d="M83.1203 94.113C82.3161 90.4062 80.6171 87.9804 78.1933 87.0962C74.9539 85.9173 70.4912 87.4476 65.2697 91.5058L65.0091 91.1657C70.344 87.0055 74.9652 85.4638 78.3405 86.6881C80.9003 87.6176 82.7012 90.1568 83.5394 94.011L83.1203 94.1016V94.113Z" fill="#92DEED"/>
<path d="M54.5434 81.1676L54.2829 80.8275C61.1015 75.5111 63.1743 73.6294 63.7972 72.9606C63.514 73.0853 63.0497 73.3346 62.2568 73.8107L62.0416 73.4367C64.0464 72.2351 64.2843 72.2804 64.4428 72.5071C64.6241 72.7679 64.8732 73.1306 54.5661 81.1676H54.5434Z" fill="#92DEED"/>
<path d="M47.4869 67.7915L47.3963 67.4854C45.1877 59.6411 46.0825 52.6016 49.8655 48.1694C49.9108 48.1127 49.9675 48.056 50.0128 47.9993C49.571 47.6593 49.084 47.3305 48.5856 47.0018L48.5177 46.9564L48.495 46.8771C44.1456 31.4492 45.9012 17.6196 53.3314 8.92513C59.1646 2.08969 68.1579 -0.982285 78.635 0.275979L78.8275 0.298651V0.491358C78.3178 20.4309 72.3487 36.7543 62.8797 44.1338L62.8118 44.1905H62.7212C57.7828 43.5897 53.524 44.9273 50.6357 47.954C53.456 50.2211 55.0078 52.8397 55.1437 55.6396C55.3362 59.5391 52.7651 63.6766 47.7248 67.6101L47.4756 67.8028L47.4869 67.7915ZM50.3526 48.26C50.2959 48.3167 50.2506 48.3847 50.194 48.4414C46.5582 52.7036 45.6634 59.4711 47.7248 67.0547C52.482 63.2799 54.8945 59.335 54.7246 55.6509C54.6 52.9757 53.0936 50.4592 50.3526 48.2714V48.26ZM48.8801 46.6844C49.3785 47.0018 49.8542 47.3419 50.3073 47.6819C53.2748 44.5533 57.6355 43.159 62.6872 43.7371C71.9976 36.4256 77.8534 20.3515 78.3971 0.672729C68.1466 -0.506185 59.3572 2.52045 53.6486 9.20852C46.3316 17.7783 44.5987 31.4378 48.8801 46.6844Z" fill="#92DEED"/>
<path d="M47.0905 54.7667L46.83 54.4267C56.1517 47.1605 56.3103 34.8839 47.2491 21.5984L47.6002 21.3604C56.8087 34.8499 56.6275 47.3418 47.0905 54.7667Z" fill="#92DEED"/>
<path d="M61.8717 140L61.6339 139.977C37.0212 137.03 10.4265 111.4 2.36197 82.834C-2.68967 64.9576 0.470437 49.4843 10.8003 41.4247L10.9249 41.334L11.0494 41.4133C27.1558 51.8308 42.3447 53.6899 51.7005 46.401L51.961 46.7411C46.8414 50.7313 45.2783 58.4396 47.8041 67.3608C51.859 81.7118 65.1904 94.5778 77.5363 96.0628L78.0574 96.1195L77.6496 96.4369C68.2712 103.748 62.3701 119.936 61.8717 139.751V139.989V140ZM10.9475 41.8667C0.85554 49.8244 -2.20263 65.0823 2.78106 82.7207C10.7776 111.037 37.0552 136.463 61.4526 139.524C61.9963 119.97 67.7842 103.93 76.9927 96.4369C64.6354 94.6572 51.44 81.8025 47.3964 67.4968C45.165 59.5845 46.0938 52.6017 49.8316 48.2147C40.272 53.8373 26.0005 51.5701 10.9475 41.8781V41.8667Z" fill="#92DEED"/>
</svg>
