<svg width="32" height="32" viewBox="0 0 32 32" fill="none" xmlns="http://www.w3.org/2000/svg">
<g clip-path="url(#clip0_49_115)">
<path d="M31.4885 14.757L19.9322 3.20041C19.6023 2.87052 19.1626 2.68945 18.6938 2.68945C18.2245 2.68945 17.7851 2.87078 17.4552 3.20041L16.406 4.2499C16.0764 4.57926 15.8948 5.01919 15.8948 5.48826C15.8948 5.95707 16.0764 6.41183 16.406 6.74119L23.1478 13.4978H1.72877C0.763051 13.4978 0 14.2538 0 15.2198V16.7035C0 17.6695 0.763051 18.5017 1.72877 18.5017H23.2243L16.4062 25.2961C16.0766 25.626 15.895 26.0539 15.895 26.523C15.895 26.9916 16.0766 27.4258 16.4062 27.7554L17.4555 28.8015C17.7854 29.1314 18.2248 29.3111 18.6941 29.3111C19.1629 29.3111 19.6026 29.129 19.9325 28.7992L31.4888 17.2428C31.8195 16.9119 32.0013 16.4702 32 16.0006C32.001 15.5294 31.8195 15.0874 31.4885 14.757Z" fill="white"/>
</g>
<defs>
<clipPath id="clip0_49_115">
<rect width="32" height="32" fill="white"/>
</clipPath>
</defs>
</svg>
