<svg width="140" height="140" viewBox="0 0 140 140" fill="none" xmlns="http://www.w3.org/2000/svg">
<path d="M2.39312 82.8702L2.3479 82.6891C-2.00488 67.2893 -0.252464 53.4849 7.16423 44.8063C12.9981 37.9833 21.975 34.9056 32.433 36.1616H32.5234L32.58 36.2408C38.0859 43.2222 44.1912 47.0693 50.1833 47.6237C53.1568 44.4668 57.5548 43.0638 62.6537 43.6748L63.1738 43.7314L62.7668 44.0482C58.8662 47.0919 54.6491 48.4045 50.3529 48.065C50.2624 48.1556 50.1833 48.2574 50.0928 48.3592C46.4071 52.6703 45.5479 59.5498 47.7186 67.2441L47.7638 67.3799L47.6508 67.4704C38.2103 74.8252 21.3645 80.5732 2.59663 82.8362L2.41574 82.8589L2.39312 82.8702ZM27.9558 36.32C19.5442 36.32 12.3876 39.3637 7.50341 45.0892C0.199774 53.6207 -1.54134 67.2101 2.69838 82.3949C21.2514 80.1319 37.8711 74.4744 47.2438 67.2328C45.0843 59.4593 45.9888 52.4892 49.7424 48.0877C49.765 48.065 49.7763 48.0424 49.7989 48.0198C43.8294 47.3522 37.7694 43.4824 32.286 36.5689C30.8049 36.3992 29.3578 36.3087 27.9445 36.3087L27.9558 36.32ZM50.7373 47.669C54.6265 47.8953 58.4818 46.7072 62.0545 44.0482C57.4643 43.6182 53.4959 44.8968 50.7373 47.669Z" fill="#11112B"/>
<path d="M38.6511 50.6675C30.7031 50.6675 21.4096 47.3635 11.8561 40.9026L12.0935 40.5518C27.8314 51.188 42.8004 53.2021 52.1391 45.9265L52.3991 46.266C48.6117 49.2192 43.931 50.6675 38.6511 50.6675Z" fill="#11112B"/>
<path d="M91.7437 93.7326L91.2689 93.4271C87.2892 90.9039 85.1071 87.8035 84.9375 84.4543C84.8697 82.9494 85.2089 81.4105 85.9325 79.8604C79.3524 66.6557 69.1319 54.9219 57.6903 46.9674C49.3578 50.2262 40.1661 46.5601 32.2293 36.501L31.9014 36.0937L32.4215 36.1502C40.901 37.1686 49.6178 40.8799 57.7355 46.4809C59.3522 45.8246 60.9351 44.9081 62.4727 43.7087L62.5405 43.6521H62.6309C75.1127 45.157 88.5894 58.1467 92.6708 72.6187L92.716 72.7545L92.603 72.845C89.6521 75.1533 87.5605 77.5181 86.4073 79.849C88.5441 84.1601 90.2966 88.6295 91.5854 93.1782L91.7324 93.7213L91.7437 93.7326ZM86.1925 80.3582C85.5933 81.7386 85.3106 83.1078 85.3785 84.4429C85.5255 87.498 87.4701 90.3721 91.0314 92.7595C89.7991 88.539 88.171 84.3864 86.2038 80.3695L86.1925 80.3582ZM58.1764 46.7751C69.505 54.7183 79.6125 66.3275 86.1925 79.3851C87.3796 77.1108 89.4147 74.8251 92.2412 72.6074C88.1597 58.373 74.9431 45.6323 62.6875 44.1161C61.229 45.2476 59.714 46.1414 58.1764 46.7864V46.7751ZM32.9077 36.6368C40.5505 46.1075 49.3126 49.6039 57.2719 46.6619C49.4595 41.3099 41.0818 37.723 32.9077 36.6368Z" fill="#11112B"/>
<path d="M64.2365 53.8583C63.3659 53.8583 62.5519 53.7225 61.8057 53.451C59.2505 52.5231 57.4529 49.9886 56.6163 46.1414L57.0346 46.0509C57.8373 49.7509 59.5445 52.1724 61.9527 53.0549C65.1862 54.2317 69.652 52.7042 74.8527 48.6534L75.1128 48.9928C70.9748 52.2176 67.2665 53.8696 64.2365 53.8696V53.8583Z" fill="#11112B"/>
<path d="M75.9154 67.7419C75.7911 67.7419 75.7345 67.6853 75.6893 67.6174C75.5084 67.3572 75.2597 66.9951 85.5481 58.9727L85.8081 59.3122C79.002 64.619 76.933 66.4973 76.3111 67.1648C76.5938 67.0291 77.0573 66.7914 77.8601 66.3162L78.0749 66.6896C76.7069 67.5043 76.1642 67.7419 75.9041 67.7419H75.9154Z" fill="#11112B"/>
<path d="M65.9889 140C64.5304 140 63.0267 139.909 61.5004 139.728L61.3082 139.706V139.513C61.817 119.61 67.7752 103.317 77.227 95.9504L77.2948 95.8938H77.3852C82.3146 96.4935 86.5656 95.1584 89.4487 92.1372C86.6335 89.8742 85.0846 87.2604 84.9489 84.4656C84.7567 80.5732 87.3231 76.4432 92.3543 72.5169L92.603 72.3245L92.6935 72.6301C94.9094 80.4601 94.0049 87.4867 90.2288 91.9109C90.1835 91.9675 90.127 92.0241 90.0818 92.0807C90.5227 92.4201 91.0089 92.7482 91.5063 93.0764L91.5742 93.1216L91.5968 93.2009C95.9383 108.601 94.1858 122.405 86.7692 131.084C81.7946 136.911 74.5248 140 65.9889 140ZM61.7491 139.321C71.981 140.487 80.7544 137.477 86.4526 130.801C93.7562 122.247 95.486 108.612 91.2124 93.3932C90.7149 93.0764 90.2401 92.7369 89.7878 92.3975C86.8257 95.5204 82.4729 96.9122 77.4305 96.3351C68.137 103.633 62.2918 119.678 61.7491 139.321ZM92.3656 73.06C87.6171 76.8279 85.2089 80.7656 85.3785 84.443C85.5029 87.1133 87.0066 89.6253 89.7426 91.8091C89.7991 91.7525 89.8557 91.6846 89.9009 91.6281C93.5301 87.3736 94.4233 80.6185 92.3656 73.0487V73.06Z" fill="#11112B"/>
<path d="M92.4899 118.682C83.2982 105.217 83.4791 92.7482 92.9987 85.3369L93.2587 85.6763C83.954 92.9293 83.7957 105.184 92.8404 118.445L92.4899 118.682Z" fill="#11112B"/>
<path d="M47.3794 67.674L47.289 67.3685C45.0843 59.5385 45.9775 52.5118 49.7537 48.0876C49.7989 48.031 49.8554 47.9745 49.9006 47.9179C49.4597 47.5784 48.9735 47.2503 48.4761 46.9222L48.4083 46.8769L48.3856 46.7977C44.0442 31.3979 45.7966 17.5935 53.2133 8.91486C59.0358 2.09187 68.0127 -0.974514 78.4707 0.281458L78.6629 0.304088V0.496445C78.1542 20.3996 72.1959 36.6933 62.7442 44.0595L62.6763 44.116H62.5859C57.6565 43.5163 53.4055 44.8515 50.5225 47.8726C53.3376 50.1357 54.8865 52.7494 55.0222 55.5443C55.2144 59.4366 52.648 63.5666 47.6168 67.493L47.3681 67.6853L47.3794 67.674ZM50.2398 48.1781C50.1833 48.2347 50.1381 48.3026 50.0815 48.3592C46.4523 52.6137 45.5592 59.3687 47.6168 66.9385C52.3653 63.1706 54.7735 59.233 54.6039 55.5556C54.4795 52.8852 52.9758 50.3733 50.2398 48.1895V48.1781ZM48.77 46.6053C49.2675 46.9222 49.7424 47.2616 50.1946 47.6011C53.1567 44.4781 57.5095 43.0864 62.552 43.6634C71.8454 36.3652 77.6906 20.3204 78.2333 0.677486C68.0014 -0.499281 59.228 2.52184 53.5298 9.19773C46.2262 17.7519 44.4964 31.3866 48.77 46.6053Z" fill="#11112B"/>
<path d="M53.7447 59.8553C51.2687 51.0748 52.2749 43.1882 56.5033 38.2322C59.8386 34.3285 64.9715 32.5747 70.9523 33.2875L70.9071 33.7175C65.0845 33.0159 60.076 34.7245 56.8312 38.5151C52.6932 43.3579 51.7209 51.0974 54.163 59.7421L53.7447 59.8553Z" fill="#11112B"/>
<path d="M53.9708 52.8173C50.7486 41.4004 52.0488 31.1603 57.5548 24.722C61.885 19.6529 68.5442 17.3672 76.3114 18.3064L76.2661 18.7363C68.6459 17.8198 62.1224 20.0489 57.8827 25.0049C52.4784 31.33 51.2009 41.4344 54.3892 52.7042L53.9708 52.8173Z" fill="#11112B"/>
<path d="M52.3992 46.2659L52.1392 45.9264C61.4779 38.6508 63.5921 23.3189 57.8147 4.9093L58.2218 4.78484C64.0556 23.3642 61.8849 38.8771 52.3992 46.2659Z" fill="#11112B"/>
<path d="M92.3656 73.06L92.2752 72.7545C88.2276 58.4296 74.9206 45.587 62.5971 44.1047L62.077 44.0482L62.484 43.7313C71.8453 36.4331 77.7357 20.2752 78.2332 0.496469V0.258853L78.4706 0.281483C103.038 3.2234 129.585 28.8068 137.635 57.3207L137.702 57.5584L137.454 57.5923C118.754 59.844 101.987 65.5581 92.6143 72.8676L92.3656 73.06ZM63.1511 43.7427C75.3954 45.5078 88.4764 58.1694 92.603 72.3245C102.043 65.0942 118.652 59.448 137.16 57.185C129.099 29.0104 102.937 3.77784 78.6628 0.734085C78.1201 20.2526 72.3428 36.2634 63.1511 43.7427Z" fill="#11112B"/>
<path d="M104.248 65.8976C99.7031 49.8076 84.7454 35.3695 70.9069 33.7175L70.9522 33.2876C84.9489 34.9622 100.076 49.536 104.655 65.7731L104.237 65.8863L104.248 65.8976Z" fill="#11112B"/>
<path d="M119.737 60.6813C113.813 39.7032 94.3102 20.8862 76.2546 18.7251L76.2999 18.2951C94.5137 20.4676 114.175 39.4316 120.144 60.5569L119.726 60.67L119.737 60.6813Z" fill="#11112B"/>
<path d="M75.1013 48.9816L74.8413 48.6421C84.2252 41.3326 94.6267 26.9285 102.665 10.1143L103.05 10.2953C94.9885 27.1548 84.5418 41.6154 75.1013 48.9702V48.9816Z" fill="#11112B"/>
<path d="M112.027 104.12C110.568 104.12 109.064 104.029 107.538 103.848H107.448L107.391 103.769C101.885 96.799 95.78 92.9406 89.7879 92.3861C86.8144 95.543 82.4164 96.9348 77.3174 96.3351L76.7974 96.2785L77.2044 95.9617C81.1049 92.9179 85.3333 91.6054 89.6183 91.9448C89.7087 91.8543 89.7879 91.7525 89.8783 91.6506C93.5641 87.3396 94.4233 80.46 92.2526 72.7658L92.2073 72.63L92.3204 72.5395C101.761 65.1847 118.607 59.4366 137.375 57.1736L137.555 57.151L137.601 57.332C141.942 72.7318 140.19 86.5362 132.773 95.2149C127.798 101.042 120.529 104.131 111.993 104.131L112.027 104.12ZM107.674 103.43C117.951 104.64 126.758 101.619 132.479 94.9207C139.771 86.3891 141.513 72.7997 137.261 57.6149C118.708 59.8779 102.089 65.5355 92.7161 72.7771C94.8755 80.5506 93.9711 87.5206 90.2175 91.9222C90.1949 91.9448 90.1836 91.9675 90.161 91.9788C96.1305 92.6464 102.19 96.5161 107.674 103.43ZM77.9167 95.9617C82.5069 96.3803 86.4752 95.1131 89.2339 92.3409C85.3333 92.1032 81.4893 93.3026 77.9167 95.9617Z" fill="#11112B"/>
<path d="M90.0141 92.4993C89.1774 92.4993 88.3182 92.4427 87.4476 92.3409L87.4928 91.9109C93.3267 92.6124 98.3239 90.9039 101.557 87.1133C105.695 82.2705 106.668 74.531 104.237 65.8862L104.655 65.7731C107.131 74.5536 106.125 82.4402 101.897 87.3962C99.0475 90.7341 94.8869 92.4993 90.0141 92.4993Z" fill="#11112B"/>
<path d="M101.139 95.2828C100.054 95.2828 98.9456 95.2149 97.8037 95.0791L97.8489 94.6491C105.469 95.5657 111.993 93.3366 116.232 88.3806C121.637 82.0555 122.914 71.9511 119.726 60.6813L120.144 60.5681C123.366 71.9851 122.066 82.2252 116.56 88.6635C112.863 92.9971 107.47 95.2828 101.139 95.2828Z" fill="#11112B"/>
<path d="M93.2587 85.6763L92.9987 85.3368C102.462 77.9594 119.568 76.8845 138.776 82.4741L138.652 82.8928C119.579 77.3484 102.62 78.3894 93.2587 85.6876V85.6763Z" fill="#11112B"/>
<path d="M129.087 98.7339L128.963 98.6547C112.886 88.2674 97.7246 86.4005 88.3859 93.6647L88.1259 93.3253C93.2362 89.3424 94.7964 81.6481 92.2752 72.7432C88.2276 58.4183 74.9206 45.5757 62.5971 44.0934C58.38 43.5842 54.6603 44.4781 51.8565 46.6619L51.5964 46.3225C60.9238 39.0469 62.8571 23.8621 56.7406 5.7014L56.6954 5.5543L56.8198 5.46378C62.4727 1.06222 69.9686 -0.74819 78.4706 0.281481C103.038 3.2234 129.585 28.8068 137.635 57.3207C142.677 75.1646 139.523 90.6097 129.212 98.6547L129.087 98.7452V98.7339ZM102.202 88.8558C110.15 88.8558 119.455 92.0127 129.065 98.2021C139.138 90.2476 142.191 75.0175 137.216 57.4226C129.212 29.067 102.835 3.61943 78.4254 0.700139C70.0929 -0.295587 62.7554 1.43562 57.1929 5.72403C62.8685 22.6966 61.557 37.1007 53.7785 44.976C56.311 43.7313 59.3297 43.2901 62.6536 43.6861C75.1354 45.1797 88.6121 58.1694 92.6935 72.6413C94.9208 80.5393 93.9937 87.5093 90.2627 91.8883C93.6997 89.8629 97.7472 88.8671 102.213 88.8671L102.202 88.8558Z" fill="#11112B"/>
</svg>
