<svg width="48" height="48" viewBox="0 0 48 48" fill="none" xmlns="http://www.w3.org/2000/svg">
<path d="M19.3918 26.4959C19.2478 26.4959 16.0798 26.4959 14.6398 26.4959C13.8718 26.4959 13.6318 26.2079 13.6318 25.4879C13.6318 23.5679 13.6318 21.5999 13.6318 19.6799C13.6318 18.9119 13.9198 18.6719 14.6398 18.6719H19.3918C19.3918 18.5279 19.3918 15.7439 19.3918 14.4479C19.3918 12.5279 19.7278 10.7039 20.6878 9.0239C21.6958 7.2959 23.1358 6.1439 24.9598 5.4719C26.1598 5.0399 27.3598 4.8479 28.6558 4.8479H33.3598C34.0318 4.8479 34.3198 5.1359 34.3198 5.8079V11.2799C34.3198 11.9519 34.0318 12.2399 33.3598 12.2399C32.0638 12.2399 30.7678 12.2399 29.4718 12.2879C28.1758 12.2879 27.5038 12.9119 27.5038 14.2559C27.4558 15.6959 27.5038 17.0879 27.5038 18.5759H33.0718C33.8398 18.5759 34.1278 18.8639 34.1278 19.6319V25.4399C34.1278 26.2079 33.8878 26.4479 33.0718 26.4479C31.3438 26.4479 27.6478 26.4479 27.5038 26.4479V42.0959C27.5038 42.9119 27.2638 43.1999 26.3998 43.1999C24.3838 43.1999 22.4158 43.1999 20.3998 43.1999C19.6798 43.1999 19.3918 42.9119 19.3918 42.1919C19.3918 37.1519 19.3918 26.6399 19.3918 26.4959Z" fill="#11112B"/>
</svg>
