<svg width="35" height="63" viewBox="0 0 35 63" fill="none" xmlns="http://www.w3.org/2000/svg">
<path d="M6.66116 63C5.18472 63 3.66249 62.9083 2.11738 62.7251L1.87703 62.6907L1.93426 62.4502C6.4437 43.0691 5.76843 20.4234 0.0915644 0.309273L0 0L0.320467 0.0343622C17.7631 2.11909 29.5174 7.78909 32.5733 15.6011V15.624C36.9797 31.2136 35.2057 45.1882 27.6976 53.9738C22.6617 59.8729 15.3024 63 6.66116 63ZM2.40351 62.3242C12.7501 63.504 21.6087 60.4342 27.3657 53.6874C34.7708 45.0163 36.5219 31.1907 32.1613 15.75C29.174 8.15563 17.683 2.60018 0.583712 0.515455C6.18046 20.538 6.83284 43.0347 2.39207 62.3242H2.40351Z" fill="#92DEED"/>
<path d="M8.18337 43.1378C7.10751 43.1378 6.00877 43.0691 4.88713 42.9431L4.9329 42.5078C12.4753 43.4127 18.9191 41.202 23.108 36.3109C28.453 30.0567 29.712 20.0684 26.5645 8.92312L26.988 8.80857C30.1812 20.1027 28.8879 30.2286 23.4399 36.5973C19.7889 40.8813 14.4439 43.1493 8.18337 43.1493V43.1378Z" fill="#92DEED"/>
<path d="M6.11178 21.8782C5.53951 21.8782 4.9558 21.8438 4.3492 21.7751L4.39498 21.3398C8.3665 21.8095 11.7658 20.6526 13.9632 18.0753C16.7788 14.7764 17.4426 9.50729 15.783 3.61966L16.2065 3.50511C17.9119 9.54166 17.2137 14.9597 14.3066 18.3617C12.3495 20.664 9.47669 21.8782 6.12322 21.8782H6.11178Z" fill="#92DEED"/>
<path d="M33.466 41.3394C30.124 27.2733 17.992 12.3595 0.18314 0.423823L0.42349 0.0572776C18.3239 12.0502 30.5246 27.0556 33.8895 41.2249L33.466 41.328V41.3394Z" fill="#92DEED"/>
<path d="M22.6159 58.0974C21.975 39.8274 13.7802 18.7855 0.125924 0.378009L0.469286 0.114555C14.1693 18.5907 22.3985 39.7244 23.0394 58.0745H22.6045L22.6159 58.0974Z" fill="#92DEED"/>
</svg>
