<svg width="61" height="58" viewBox="0 0 61 58" fill="none" xmlns="http://www.w3.org/2000/svg">
<path d="M60.5504 58C57.5527 50.3506 45.9277 44.7854 28.6619 42.7127L28.5132 42.6898L28.4788 42.5524C22.8037 22.4671 12.7806 7.14551 0.961114 0.538203L0 0L1.08698 0.125962C25.9502 3.10326 52.8157 28.9943 60.9623 57.8511L60.5504 57.9885V58ZM28.8564 42.3005C44.5661 44.2014 55.6304 49.0108 59.8525 55.6754C51.1452 28.3301 25.8587 4.17966 2.11675 0.721421C13.593 7.6379 23.2957 22.7076 28.8564 42.3119V42.3005Z" fill="#11112B"/>
<path d="M28.8107 42.6783L28.5705 42.3234C46.5228 29.9103 47.0605 30.3798 47.3123 30.5631C47.3466 30.5974 47.4724 30.7119 47.3923 30.9295L46.9919 30.7692C46.9919 30.7692 46.9919 30.8264 47.0262 30.8722C47.0605 30.918 47.1063 30.9295 47.1177 30.9295C46.8088 30.9295 44.5548 31.8112 28.8451 42.6783H28.8107Z" fill="#11112B"/>
<path d="M57.7815 49.9613C57.1751 48.5299 56.3971 46.7779 55.6991 45.2892C50.6533 34.8687 43.2504 25.0894 34.5431 17.3027C32.7238 15.7568 30.3897 13.8559 28.5018 12.3787L28.7649 12.0351C30.8474 13.5696 32.8726 15.2186 34.8291 16.9706C35.0923 17.1881 35.3326 17.4057 35.5728 17.6118C36.3967 18.3218 37.3807 19.2952 38.2503 20.1425C38.5363 20.4288 38.8109 20.7036 39.0741 20.9556C41.1107 22.9366 44.2229 26.5323 45.9278 28.7309C47.2092 30.3798 48.8912 32.7502 51.0537 35.9795C51.6601 36.8955 52.3581 38.0865 52.9645 39.14L53.365 39.827C54.0515 40.995 54.944 42.6784 55.5847 44.0067C55.7449 44.3502 55.928 44.7167 56.111 45.106C56.8662 46.6634 57.5641 48.2207 58.2049 49.801L57.8044 49.9727L57.7815 49.9613Z" fill="#11112B"/>
</svg>
