<svg width="79" height="83" viewBox="0 0 79 83" fill="none" xmlns="http://www.w3.org/2000/svg">
<path d="M4.68855 82.9887C3.22762 82.9887 1.7214 82.898 0.192523 82.7166L0 82.694V82.5013C0.509625 62.5645 6.4779 46.2433 15.9456 38.8648L16.0135 38.8081H16.1041C21.0418 39.4088 25.3 38.0714 28.1879 35.0452C25.368 32.7784 23.8165 30.1602 23.6806 27.3606C23.4881 23.4617 26.0588 19.3247 31.0984 15.3918L31.3476 15.1991L31.4382 15.5051C33.6579 23.3483 32.7519 30.3869 28.9693 34.8185C28.924 34.8752 28.8674 34.9318 28.8221 34.9885C29.2638 35.3285 29.7508 35.6572 30.2491 35.9859L30.317 36.0313L30.3397 36.1106C34.6885 51.5364 32.9331 65.364 25.5039 74.0573C20.5209 79.8944 13.2389 82.9887 4.68855 82.9887ZM0.441674 82.3086C10.6908 83.476 19.479 80.4611 25.1868 73.774C32.5028 65.2054 34.2355 51.5477 29.9546 36.3033C29.4563 35.9859 28.9807 35.6459 28.5277 35.3059C25.5605 38.4341 21.2004 39.8282 16.1494 39.2502C6.8403 46.5607 0.985274 62.6325 0.441674 82.3086ZM31.1098 15.9358C26.3533 19.7101 23.941 23.6544 24.1109 27.338C24.2355 30.0128 25.7417 32.529 28.4824 34.7165C28.539 34.6598 28.5956 34.5918 28.6409 34.5352C32.2762 30.2735 33.1709 23.507 31.1098 15.9245V15.9358Z" fill="#11112B"/>
<path d="M5.69643 64.854C4.60923 64.854 3.49938 64.786 2.35555 64.65L2.40085 64.2193C10.0339 65.126 16.5684 62.8932 20.8153 57.9402C26.2287 51.6044 27.5084 41.4943 24.3147 30.1942L24.7338 30.0809C27.9614 41.517 26.659 51.7744 21.1437 58.2235C17.4405 62.5645 12.0384 64.854 5.69643 64.854Z" fill="#11112B"/>
<path d="M10.2943 49.8023C9.45626 49.8023 8.59555 49.7456 7.72353 49.6436L7.76883 49.2129C13.6125 49.9156 18.6182 48.2042 21.8571 44.4072C26.0021 39.5562 26.976 31.8036 24.5412 23.1443L24.9602 23.031C27.4404 31.8263 26.4324 39.7262 22.1969 44.6906C19.343 48.0342 15.1754 49.8023 10.2943 49.8023Z" fill="#11112B"/>
<path d="M20.4755 78.1943C14.6205 59.5836 16.8062 44.0445 26.3079 36.6433L26.5684 36.9833C17.2139 44.2712 15.0962 59.629 20.8832 78.0696L20.4755 78.1943Z" fill="#11112B"/>
<path d="M50.804 47.0481C49.3431 47.0481 47.8368 46.9574 46.308 46.7761H46.2174L46.1607 46.6967C40.6455 39.7149 34.53 35.8499 28.5277 35.2946C25.5492 38.4568 21.1438 39.8509 16.0362 39.2502L15.5153 39.1935L15.923 38.8761C19.8301 35.8273 24.0657 34.5125 28.3578 34.8525C28.4484 34.7619 28.5277 34.6598 28.6183 34.5578C32.3103 30.2395 33.171 23.3484 30.9966 15.6411L30.9513 15.5051L31.0645 15.4145C40.5209 8.04725 57.3951 2.2895 76.1946 0.0226688L76.3758 0L76.4211 0.181346C80.7699 15.6071 79.0146 29.4348 71.5854 38.1281C66.6024 43.9652 59.3204 47.0594 50.77 47.0594L50.804 47.0481ZM46.4439 46.3567C56.7383 47.5694 65.5605 44.5432 71.2909 37.8334C78.5955 29.2875 80.3396 15.6751 76.0814 0.4647C57.4971 2.73153 40.8493 8.39861 31.4609 15.6525C33.624 23.439 32.718 30.4209 28.9581 34.8299C28.9354 34.8525 28.9241 34.8752 28.9014 34.8865C34.881 35.5552 40.9512 39.4315 46.4439 46.3567ZM16.6365 38.8761C21.2344 39.2955 25.2095 38.0261 27.9728 35.2492C24.0657 35.0112 20.2152 36.2126 16.6365 38.8761Z" fill="#11112B"/>
<path d="M66.6816 42.367C50.9172 31.7129 35.9229 29.6955 26.5685 36.9833L26.308 36.6433C35.8097 29.2308 50.9965 31.2369 66.9194 42.0044L66.6816 42.3557V42.367Z" fill="#11112B"/>
<path d="M4.73385 82.9887C3.2616 82.9887 1.74405 82.898 0.192523 82.7167L0 82.694V82.5013C0.509625 62.5645 6.4779 46.2434 15.9456 38.8648L16.0135 38.8081H16.1041C20.3397 39.3182 24.0543 38.4341 26.8629 36.2466L27.1234 36.5867C17.7689 43.8745 15.8437 59.085 21.9705 77.2763L22.0158 77.4236L21.8912 77.5143C17.248 81.1412 11.3703 83 4.72252 83L4.73385 82.9887ZM0.441674 82.3086C8.70893 83.2494 15.9909 81.5152 21.5175 77.2536C15.8323 60.2524 17.1347 45.824 24.949 37.9354C22.4348 39.1708 19.4337 39.6242 16.1495 39.2388C6.8403 46.5494 0.985274 62.6212 0.441674 82.2973V82.3086Z" fill="#11112B"/>
</svg>
