<svg width="48" height="48" viewBox="0 0 48 48" fill="none" xmlns="http://www.w3.org/2000/svg">
<path d="M24 0C15.1778 0 8 7.17778 8 16C8 18.6485 8.66216 21.2744 9.92094 23.6035L23.1251 47.4844C23.3008 47.8027 23.6358 48 24 48C24.3643 48 24.6992 47.8027 24.875 47.4844L38.084 23.5957C39.3379 21.2744 40.0001 18.6484 40.0001 15.9999C40.0001 7.17778 32.8223 0 24 0ZM24 24C19.5889 24 16.0001 20.4112 16.0001 16C16.0001 11.5889 19.5889 8.00006 24 8.00006C28.4112 8.00006 32 11.5889 32 16C32 20.4112 28.4112 24 24 24Z" fill="#11112B"/>
</svg>
