<svg width="35" height="63" viewBox="0 0 35 63" fill="none" xmlns="http://www.w3.org/2000/svg">
<path d="M34.9483 63L34.6279 62.9656C17.1747 60.881 5.42101 55.2113 2.37672 47.3997C-2.02949 31.788 -0.255562 17.8142 7.25216 9.02901C13.1576 2.12228 22.2447 -0.993196 32.8311 0.278192L33.0714 0.312555L33.0142 0.553089C28.505 19.9217 29.1802 42.5662 34.8568 62.6907L34.9483 63ZM28.2875 0.438547C19.7727 0.438547 12.5282 3.51966 7.58405 9.31536C0.179336 17.986 -1.5717 31.8109 2.78873 47.2623C5.7529 54.8448 17.2548 60.3885 34.3532 62.496C28.7567 42.4631 28.093 19.9675 32.5449 0.690535C31.1029 0.53018 29.6838 0.450003 28.299 0.450003L28.2875 0.438547Z" fill="#11112B"/>
<path d="M18.7541 59.4951C17.0488 53.4588 17.747 48.0411 20.6539 44.6279C22.9543 41.9362 26.4793 40.7221 30.5994 41.2146L30.5536 41.6498C26.5823 41.1802 23.1832 42.3371 20.9858 44.9142C18.1704 48.2129 17.5066 53.4818 19.1661 59.3691L18.7427 59.4836L18.7541 59.4951Z" fill="#11112B"/>
<path d="M7.96173 54.2034C4.76866 42.9098 6.06191 32.7845 11.5096 26.4161C15.7899 21.3993 22.382 19.1429 30.0614 20.0706L30.0157 20.5059C22.485 19.601 16.0302 21.8116 11.8415 26.7025C6.49681 32.9563 5.23789 42.9442 8.38518 54.1003L7.96173 54.2148V54.2034Z" fill="#11112B"/>
<path d="M34.5364 62.9198C16.6254 50.9276 4.42539 35.9229 1.07209 21.7544L1.49555 21.6513C4.82595 35.7167 16.9573 50.6183 34.7767 62.5648L34.5364 62.9198Z" fill="#11112B"/>
<path d="M34.4791 62.874C20.7798 44.3873 12.5511 23.2548 11.9101 4.91703H12.345C12.9859 23.1632 21.1804 44.1926 34.8339 62.622L34.4905 62.8855L34.4791 62.874Z" fill="#11112B"/>
</svg>
