<svg width="80" height="80" viewBox="0 0 80 80" fill="none" xmlns="http://www.w3.org/2000/svg">
<g clip-path="url(#clip0_29_1054)">
<path d="M78.7213 36.8915L49.8305 8.00004C49.0058 7.17534 47.9066 6.72266 46.7346 6.72266C45.5613 6.72266 44.4627 7.17599 43.638 8.00004L41.015 10.6238C40.1909 11.4472 39.7369 12.547 39.7369 13.7197C39.7369 14.8917 40.1909 16.0286 41.015 16.852L57.8694 33.7436H4.32192C1.90763 33.7436 0 35.6336 0 38.0486L0 41.7578C0 44.1728 1.90763 46.2534 4.32192 46.2534H58.0607L41.0156 63.2393C40.1915 64.064 39.7376 65.1339 39.7376 66.3066C39.7376 67.4779 40.1915 68.5635 41.0156 69.3875L43.6387 72.0028C44.4634 72.8275 45.5619 73.2769 46.7352 73.2769C47.9073 73.2769 49.0064 72.8216 49.8311 71.9969L78.722 43.1061C79.5486 42.2788 80.0033 41.1744 80 40.0004C80.0026 38.8226 79.5486 37.7175 78.7213 36.8915Z" fill="#11112B"/>
</g>
<defs>
<clipPath id="clip0_29_1054">
<rect width="80" height="80" fill="white"/>
</clipPath>
</defs>
</svg>
