<svg width="52" height="3014" viewBox="0 0 52 3014" fill="none" xmlns="http://www.w3.org/2000/svg">
<g filter="url(#filter0_f_81_3709)">
<rect x="24" y="25" width="4" height="214" fill="#92DEED"/>
</g>
<rect x="24" y="25" width="4" height="214" fill="#92DEED"/>
<rect x="22" y="945" width="4" height="214" fill="white"/>
<rect x="22" y="1865" width="4" height="214" fill="white"/>
<rect x="22" y="2785" width="4" height="214" fill="white"/>
<g filter="url(#filter1_f_81_3709)">
<circle cx="26" cy="26" r="16" fill="#92DEED"/>
</g>
<circle cx="26" cy="26" r="16" fill="#92DEED"/>
<circle cx="24" cy="946" r="16" fill="white"/>
<circle cx="24" cy="1866" r="16" fill="white"/>
<circle cx="24" cy="2786" r="16" fill="white"/>
<circle cx="24" cy="1158" r="16" fill="white"/>
<circle cx="24" cy="2078" r="16" fill="white"/>
<circle cx="24" cy="2998" r="16" fill="white"/>
<g filter="url(#filter2_f_81_3709)">
<circle cx="26" cy="238" r="16" fill="#92DEED"/>
</g>
<circle cx="26" cy="238" r="16" fill="#92DEED"/>
<defs>
<filter id="filter0_f_81_3709" x="14" y="15" width="24" height="234" filterUnits="userSpaceOnUse" color-interpolation-filters="sRGB">
<feFlood flood-opacity="0" result="BackgroundImageFix"/>
<feBlend mode="normal" in="SourceGraphic" in2="BackgroundImageFix" result="shape"/>
<feGaussianBlur stdDeviation="5" result="effect1_foregroundBlur_81_3709"/>
</filter>
<filter id="filter1_f_81_3709" x="0" y="0" width="52" height="52" filterUnits="userSpaceOnUse" color-interpolation-filters="sRGB">
<feFlood flood-opacity="0" result="BackgroundImageFix"/>
<feBlend mode="normal" in="SourceGraphic" in2="BackgroundImageFix" result="shape"/>
<feGaussianBlur stdDeviation="5" result="effect1_foregroundBlur_81_3709"/>
</filter>
<filter id="filter2_f_81_3709" x="0" y="212" width="52" height="52" filterUnits="userSpaceOnUse" color-interpolation-filters="sRGB">
<feFlood flood-opacity="0" result="BackgroundImageFix"/>
<feBlend mode="normal" in="SourceGraphic" in2="BackgroundImageFix" result="shape"/>
<feGaussianBlur stdDeviation="5" result="effect1_foregroundBlur_81_3709"/>
</filter>
</defs>
</svg>
