<svg width="64" height="64" viewBox="0 0 64 64" fill="none" xmlns="http://www.w3.org/2000/svg">
<path d="M32 60.4395C31.0889 60.4395 30.2104 60.1094 29.5259 59.5098C26.9404 57.249 24.4478 55.1245 22.2485 53.2505L22.2373 53.2407C15.7896 47.7461 10.2217 43.001 6.34766 38.3267C2.01709 33.1011 0 28.1465 0 22.7339C0 17.4751 1.80322 12.6235 5.07715 9.07227C8.39014 5.479 12.936 3.5 17.8789 3.5C21.5732 3.5 24.9565 4.66797 27.9346 6.97119C29.4375 8.13379 30.7998 9.55664 32 11.2163C33.2007 9.55664 34.5625 8.13379 36.0659 6.97119C39.0439 4.66797 42.4272 3.5 46.1216 3.5C51.064 3.5 55.6104 5.479 58.9233 9.07227C62.1973 12.6235 64 17.4751 64 22.7339C64 28.1465 61.9834 33.1011 57.6528 38.3262C53.7788 43.001 48.2114 47.7456 41.7646 53.2397C39.5615 55.1167 37.0649 57.2446 34.4736 59.5107C33.7896 60.1094 32.9106 60.4395 32 60.4395ZM17.8789 7.24902C13.9956 7.24902 10.4282 8.79883 7.83301 11.6133C5.19922 14.4702 3.74854 18.4194 3.74854 22.7339C3.74854 27.2861 5.44043 31.3574 9.23389 35.9346C12.9004 40.3589 18.354 45.0063 24.6685 50.3877L24.6802 50.3975C26.8877 52.2788 29.3901 54.4116 31.9946 56.689C34.6147 54.4072 37.1211 52.271 39.333 50.3867C45.647 45.0054 51.1001 40.3589 54.7666 35.9346C58.5596 31.3574 60.2515 27.2861 60.2515 22.7339C60.2515 18.4194 58.8008 14.4702 56.167 11.6133C53.5723 8.79883 50.0044 7.24902 46.1216 7.24902C43.2769 7.24902 40.665 8.15332 38.3589 9.93652C36.3037 11.5264 34.8721 13.5361 34.0327 14.9424C33.6011 15.6655 32.8413 16.0972 32 16.0972C31.1587 16.0972 30.3989 15.6655 29.9673 14.9424C29.1284 13.5361 27.6968 11.5264 25.6411 9.93652C23.335 8.15332 20.7231 7.24902 17.8789 7.24902Z" fill="#11112B"/>
</svg>
