<svg width="63" height="63" viewBox="0 0 63 63" fill="none" xmlns="http://www.w3.org/2000/svg">
<path d="M59.5937 63L59.4009 62.9773C34.7582 60.0264 8.13105 34.3651 0.056701 5.76426L0 5.54862L0.215466 5.49188C19.4714 0.486729 40.4058 -1.20436 57.6204 0.861261L57.7679 0.883961L57.8019 1.02015C63.4494 21.018 64.1185 43.5469 59.6277 62.8071L59.5823 63H59.5937ZM0.532999 5.86641C8.61869 34.1495 34.883 59.5043 59.2535 62.5347C63.6649 43.422 62.9958 21.1202 57.4277 1.28119C40.3491 -0.739025 19.6302 0.929358 0.532999 5.86641Z" fill="#92DEED"/>
<path d="M62.1453 43.3766C44.2955 41.2429 25.0169 22.6637 19.1766 1.95082L19.5962 1.83732C25.4025 22.3913 44.511 40.8343 62.202 42.9454L62.1566 43.3766H62.1453Z" fill="#92DEED"/>
<path d="M61.6122 22.3913C52.0977 21.2564 41.8119 11.3482 38.6933 0.305122L39.1129 0.191624C42.1862 11.0758 52.3018 20.8478 61.6689 21.96L61.6236 22.3913H61.6122Z" fill="#92DEED"/>
<path d="M35.1325 53.1259L34.7696 52.8989C45.3388 36.113 53.5833 17.216 57.3936 1.03152L57.8132 1.13367C53.9915 17.3635 45.7244 36.3172 35.1325 53.1259Z" fill="#92DEED"/>
</svg>
