<svg width="72" height="72" viewBox="0 0 72 72" fill="none" xmlns="http://www.w3.org/2000/svg">
<path d="M63.0002 36C63.2429 34.8905 63.6933 33.837 64.3277 32.895C65.0483 31.9638 65.5666 30.8925 65.8494 29.7496C66.1323 28.6066 66.1734 27.4173 65.9702 26.2575C65.4441 25.1731 64.6953 24.2119 63.7726 23.4365C62.8499 22.6611 61.774 22.089 60.6152 21.7575C59.6145 21.4142 58.6789 20.9046 57.8477 20.25C57.4221 19.2365 57.1857 18.1537 57.1502 17.055C57.188 15.8577 56.9732 14.6658 56.5196 13.557C56.066 12.4483 55.3839 11.4475 54.5177 10.62C53.4699 10.0568 52.3147 9.72152 51.1282 9.63621C49.9416 9.5509 48.7504 9.71747 47.6327 10.125C46.5673 10.4359 45.4513 10.5353 44.3477 10.4175C43.4721 9.86863 42.7086 9.15857 42.0977 8.325C41.415 7.28761 40.5171 6.40915 39.4651 5.7492C38.413 5.08924 37.2314 4.66321 36.0002 4.5C34.7943 4.66218 33.6361 5.0766 32.601 5.71626C31.5659 6.35592 30.6772 7.20647 29.9927 8.2125C29.3819 9.04606 28.6184 9.75613 27.7427 10.305C26.6391 10.4228 25.5232 10.3234 24.4577 10.0125C23.3401 9.60497 22.1489 9.4384 20.9623 9.52371C19.7757 9.60902 18.6206 9.94428 17.5727 10.5075C16.6903 11.327 15.9914 12.3242 15.5221 13.4334C15.0529 14.5425 14.8239 15.7385 14.8502 16.9425C14.8287 18.0792 14.592 19.2014 14.1527 20.25C13.3298 20.9444 12.3937 21.4924 11.3852 21.87C10.2265 22.2015 9.15061 22.7736 8.22789 23.549C7.30517 24.3244 6.55633 25.2856 6.03023 26.37C5.82706 27.5298 5.8682 28.7191 6.15103 29.8621C6.43385 31.005 6.95214 32.0763 7.67273 33.0075C8.29446 33.9155 8.7444 34.9297 9.00023 36C8.75761 37.1095 8.30718 38.163 7.67273 39.105C6.95214 40.0362 6.43385 41.1075 6.15103 42.2504C5.8682 43.3934 5.82706 44.5827 6.03023 45.7425C6.55633 46.8269 7.30517 47.7881 8.22789 48.5635C9.15061 49.3389 10.2265 49.911 11.3852 50.2425C12.3937 50.6201 13.3298 51.168 14.1527 51.8625C14.5784 52.876 14.8148 53.9588 14.8502 55.0575C14.8124 56.2548 15.0273 57.4467 15.4809 58.5555C15.9345 59.6642 16.6166 60.665 17.4827 61.4925C18.5306 62.0557 19.6857 62.391 20.8723 62.4763C22.0589 62.5616 23.2501 62.395 24.3677 61.9875C25.4332 61.6766 26.5491 61.5772 27.6527 61.695C28.5284 62.2439 29.2919 62.9539 29.9027 63.7875C30.597 64.804 31.4999 65.6609 32.5513 66.3011C33.6027 66.9412 34.7785 67.3499 36.0002 67.5C37.2062 67.3378 38.3644 66.9234 39.3995 66.2837C40.4346 65.6441 41.3233 64.7935 42.0077 63.7875C42.6186 62.9539 43.3821 62.2439 44.2577 61.695C45.3613 61.5772 46.4773 61.6766 47.5427 61.9875C48.6604 62.395 49.8516 62.5616 51.0382 62.4763C52.2247 62.391 53.3799 62.0557 54.4277 61.4925C55.2939 60.665 55.976 59.6642 56.4296 58.5555C56.8832 57.4467 57.098 56.2548 57.0602 55.0575C57.0957 53.9588 57.3321 52.876 57.7577 51.8625C58.5807 51.168 59.5168 50.6201 60.5252 50.2425C61.684 49.911 62.7599 49.3389 63.6826 48.5635C64.6053 47.7881 65.3541 46.8269 65.8802 45.7425C66.0834 44.5827 66.0423 43.3934 65.7594 42.2504C65.4766 41.1075 64.9583 40.0362 64.2377 39.105C63.635 38.1563 63.2152 37.1032 63.0002 36ZM60.4127 41.31C60.9077 42.21 61.8527 43.8525 61.6952 44.3475C61.5377 44.8425 59.8502 45.6525 58.7702 46.1475C57.0348 46.7801 55.4871 47.8403 54.2702 49.23C53.3055 50.8361 52.778 52.6668 52.7402 54.54C52.6052 55.665 52.4027 57.51 51.9302 57.8475C51.4577 58.185 49.6802 57.8475 48.6002 57.5775C46.7849 57.0496 44.8658 56.9877 43.0202 57.3975C41.3073 58.1208 39.8111 59.2759 38.6777 60.75C37.8677 61.65 36.6302 63 36.0002 63C35.3702 63 34.1327 61.65 33.3227 60.75C32.2081 59.2851 30.7362 58.1307 29.0477 57.3975C28.3907 57.2013 27.7084 57.1028 27.0227 57.105C25.8255 57.1501 24.6352 57.3083 23.4677 57.5775C22.3877 57.8025 20.5652 58.1625 20.1377 57.8475C19.7102 57.5325 19.4627 55.5975 19.3277 54.54C19.29 52.6668 18.7625 50.8361 17.7977 49.23C16.5809 47.8403 15.0331 46.7801 13.2977 46.1475C12.2177 45.6525 10.5752 44.91 10.3727 44.3475C10.1702 43.785 11.1602 42.21 11.6552 41.31C12.7097 39.7246 13.3445 37.8976 13.5002 36C13.3243 34.0962 12.6661 32.2687 11.5877 30.69C11.0927 29.79 10.1477 28.1475 10.3052 27.6525C10.4627 27.1575 12.1502 26.3475 13.2302 25.8525C14.9656 25.2199 16.5134 24.1597 17.7302 22.77C18.695 21.1639 19.2225 19.3332 19.2602 17.46C19.3952 16.335 19.5977 14.49 20.0702 14.1525C20.5427 13.815 22.3202 14.1525 23.4002 14.4225C25.2156 14.9504 27.1347 15.0123 28.9802 14.6025C30.6932 13.8792 32.1894 12.7241 33.3227 11.25C34.1327 10.35 35.3702 9 36.0002 9C36.6302 9 37.8677 10.35 38.6777 11.25C39.7924 12.7149 41.2643 13.8693 42.9527 14.6025C44.7983 15.0123 46.7174 14.9504 48.5327 14.4225C49.6087 14.0853 50.7465 13.993 51.8627 14.1525C52.3352 14.49 52.5377 16.4025 52.6727 17.46C52.7105 19.3332 53.238 21.1639 54.2027 22.77C55.4196 24.1597 56.9673 25.2199 58.7027 25.8525C59.7827 26.3475 61.4252 27.09 61.6277 27.6525C61.8302 28.215 60.8402 29.9025 60.3452 30.69C59.2908 32.2754 58.656 34.1024 58.5002 36C58.6762 37.9038 59.3344 39.7313 60.4127 41.31Z" fill="white"/>
<path d="M44.5274 27.6524L32.6249 39.5774L28.5974 35.5274C28.3876 35.3176 28.1386 35.1512 27.8645 35.0377C27.5904 34.9242 27.2966 34.8657 26.9999 34.8657C26.7032 34.8657 26.4095 34.9242 26.1354 35.0377C25.8613 35.1512 25.6122 35.3176 25.4024 35.5274C25.1926 35.7372 25.0262 35.9863 24.9127 36.2604C24.7992 36.5345 24.7407 36.8282 24.7407 37.1249C24.7407 37.4216 24.7992 37.7154 24.9127 37.9895C25.0262 38.2636 25.1926 38.5126 25.4024 38.7224L31.0274 44.3474C31.2366 44.5583 31.4854 44.7257 31.7596 44.8399C32.0338 44.9542 32.3279 45.013 32.6249 45.013C32.922 45.013 33.216 44.9542 33.4902 44.8399C33.7644 44.7257 34.0133 44.5583 34.2224 44.3474L47.7224 30.8474C47.9322 30.6376 48.0986 30.3886 48.2122 30.1145C48.3257 29.8404 48.3841 29.5466 48.3841 29.2499C48.3841 28.9532 48.3257 28.6595 48.2122 28.3854C48.0986 28.1113 47.9322 27.8622 47.7224 27.6524C47.5126 27.4426 47.2636 27.2762 46.9895 27.1627C46.7154 27.0492 46.4216 26.9907 46.1249 26.9907C45.8282 26.9907 45.5345 27.0492 45.2604 27.1627C44.9863 27.2762 44.7372 27.4426 44.5274 27.6524Z" fill="white"/>
</svg>
