<svg width="140" height="140" viewBox="0 0 140 140" fill="none" xmlns="http://www.w3.org/2000/svg">
<path d="M2.39312 82.8702L2.3479 82.6891C-2.00488 67.2893 -0.252464 53.4849 7.16423 44.8063C12.9981 37.9833 21.975 34.9056 32.433 36.1616H32.5234L32.58 36.2408C38.0859 43.2222 44.1912 47.0693 50.1833 47.6237C53.1568 44.4668 57.5548 43.0638 62.6537 43.6748L63.1738 43.7314L62.7668 44.0482C58.8662 47.0919 54.6491 48.4045 50.3529 48.065C50.2624 48.1556 50.1833 48.2574 50.0928 48.3592C46.4071 52.6703 45.5479 59.5498 47.7186 67.2441L47.7638 67.3799L47.6508 67.4704C38.2103 74.8252 21.3645 80.5732 2.59663 82.8362L2.41574 82.8589L2.39312 82.8702ZM27.9558 36.32C19.5442 36.32 12.3876 39.3637 7.50341 45.0892C0.199774 53.6207 -1.54134 67.2101 2.69838 82.3949C21.2514 80.1319 37.8711 74.4744 47.2438 67.2328C45.0843 59.4593 45.9888 52.4892 49.7424 48.0877C49.765 48.065 49.7763 48.0424 49.7989 48.0198C43.8294 47.3522 37.7694 43.4824 32.286 36.5689C30.8049 36.3992 29.3578 36.3087 27.9445 36.3087L27.9558 36.32ZM50.7373 47.669C54.6265 47.8953 58.4818 46.7072 62.0545 44.0482C57.4643 43.6182 53.4959 44.8968 50.7373 47.669Z" fill="#92DEED"/>
<path d="M38.6512 50.6675C30.7032 50.6675 21.4097 47.3635 11.8562 40.9026L12.0936 40.5518C27.8315 51.188 42.8005 53.2021 52.1392 45.9265L52.3993 46.266C48.6118 49.2192 43.9311 50.6675 38.6512 50.6675Z" fill="#92DEED"/>
<path d="M91.7439 93.7326L91.2691 93.4271C87.2894 90.9039 85.1073 87.8035 84.9377 84.4543C84.8699 82.9494 85.2091 81.4105 85.9327 79.8604C79.3526 66.6557 69.132 54.9219 57.6904 46.9674C49.358 50.2262 40.1662 46.5601 32.2295 36.501L31.9016 36.0937L32.4217 36.1502C40.9011 37.1686 49.618 40.8799 57.7357 46.4809C59.3524 45.8246 60.9352 44.9081 62.4728 43.7087L62.5407 43.6521H62.6311C75.1129 45.157 88.5896 58.1467 92.671 72.6187L92.7162 72.7545L92.6032 72.845C89.6523 75.1533 87.5607 77.5181 86.4075 79.849C88.5443 84.1601 90.2967 88.6295 91.5856 93.1782L91.7326 93.7213L91.7439 93.7326ZM86.1927 80.3582C85.5935 81.7386 85.3108 83.1078 85.3787 84.4429C85.5256 87.498 87.4703 90.3721 91.0316 92.7595C89.7993 88.539 88.1712 84.3864 86.204 80.3695L86.1927 80.3582ZM58.1766 46.7751C69.5051 54.7183 79.6126 66.3275 86.1927 79.3851C87.3798 77.1108 89.4149 74.8251 92.2414 72.6074C88.1599 58.373 74.9433 45.6323 62.6877 44.1161C61.2292 45.2476 59.7142 46.1414 58.1766 46.7864V46.7751ZM32.9078 36.6368C40.5507 46.1075 49.3127 49.6039 57.2721 46.6619C49.4597 41.3099 41.082 37.723 32.9078 36.6368Z" fill="#92DEED"/>
<path d="M64.2366 53.8583C63.366 53.8583 62.552 53.7225 61.8058 53.451C59.2507 52.5231 57.453 49.9886 56.6164 46.1414L57.0347 46.0509C57.8374 49.7509 59.5446 52.1724 61.9528 53.0549C65.1863 54.2317 69.6521 52.7042 74.8529 48.6534L75.1129 48.9928C70.9749 52.2176 67.2666 53.8696 64.2366 53.8696V53.8583Z" fill="#92DEED"/>
<path d="M75.9156 67.7419C75.7913 67.7419 75.7347 67.6853 75.6895 67.6174C75.5086 67.3572 75.2599 66.9951 85.5483 58.9727L85.8083 59.3122C79.0021 64.619 76.9332 66.4973 76.3113 67.1648C76.594 67.0291 77.0575 66.7914 77.8602 66.3162L78.0751 66.6896C76.707 67.5043 76.1644 67.7419 75.9043 67.7419H75.9156Z" fill="#92DEED"/>
<path d="M65.989 140C64.5305 140 63.0268 139.909 61.5005 139.728L61.3083 139.706V139.513C61.8171 119.61 67.7753 103.317 77.2271 95.9504L77.2949 95.8938H77.3854C82.3147 96.4935 86.5658 95.1584 89.4488 92.1372C86.6336 89.8742 85.0847 87.2604 84.949 84.4656C84.7568 80.5732 87.3233 76.4432 92.3544 72.5169L92.6031 72.3245L92.6936 72.6301C94.9095 80.4601 94.0051 87.4867 90.2289 91.9109C90.1837 91.9675 90.1271 92.0241 90.0819 92.0807C90.5229 92.4201 91.009 92.7482 91.5065 93.0764L91.5743 93.1216L91.5969 93.2009C95.9384 108.601 94.186 122.405 86.7693 131.084C81.7947 136.911 74.525 140 65.989 140ZM61.7493 139.321C71.9811 140.487 80.7545 137.477 86.4527 130.801C93.7563 122.247 95.4862 108.612 91.2125 93.3932C90.7151 93.0764 90.2402 92.7369 89.788 92.3975C86.8258 95.5204 82.473 96.9122 77.4306 96.3351C68.1371 103.633 62.2919 119.678 61.7493 139.321ZM92.3657 73.06C87.6172 76.8279 85.2091 80.7656 85.3786 84.443C85.503 87.1133 87.0067 89.6253 89.7427 91.8091C89.7993 91.7525 89.8558 91.6846 89.901 91.6281C93.5302 87.3736 94.4234 80.6185 92.3657 73.0487V73.06Z" fill="#92DEED"/>
<path d="M92.4901 118.682C83.2983 105.217 83.4792 92.7482 92.9988 85.3369L93.2589 85.6763C83.9541 92.9293 83.7958 105.184 92.8405 118.445L92.4901 118.682Z" fill="#92DEED"/>
<path d="M47.3794 67.674L47.289 67.3685C45.0843 59.5385 45.9775 52.5118 49.7537 48.0876C49.7989 48.031 49.8554 47.9745 49.9006 47.9179C49.4597 47.5784 48.9735 47.2503 48.4761 46.9222L48.4083 46.8769L48.3856 46.7977C44.0442 31.3979 45.7966 17.5935 53.2133 8.91486C59.0358 2.09187 68.0127 -0.974514 78.4707 0.281458L78.6629 0.304088V0.496445C78.1542 20.3996 72.1959 36.6933 62.7442 44.0595L62.6763 44.116H62.5859C57.6565 43.5163 53.4055 44.8515 50.5225 47.8726C53.3376 50.1357 54.8865 52.7494 55.0222 55.5443C55.2144 59.4366 52.648 63.5666 47.6168 67.493L47.3681 67.6853L47.3794 67.674ZM50.2398 48.1781C50.1833 48.2347 50.1381 48.3026 50.0815 48.3592C46.4523 52.6137 45.5592 59.3687 47.6168 66.9385C52.3653 63.1706 54.7735 59.233 54.6039 55.5556C54.4795 52.8852 52.9758 50.3733 50.2398 48.1895V48.1781ZM48.77 46.6053C49.2675 46.9222 49.7424 47.2616 50.1946 47.6011C53.1567 44.4781 57.5095 43.0864 62.552 43.6634C71.8454 36.3652 77.6906 20.3204 78.2333 0.677486C68.0014 -0.499281 59.228 2.52184 53.5298 9.19773C46.2262 17.7519 44.4964 31.3866 48.77 46.6053Z" fill="#92DEED"/>
<path d="M53.7446 59.8553C51.2686 51.0748 52.2749 43.1882 56.5033 38.2322C59.8385 34.3285 64.9714 32.5747 70.9523 33.2875L70.907 33.7175C65.0845 33.0159 60.0759 34.7245 56.8311 38.5151C52.6932 43.3579 51.7209 51.0974 54.1629 59.7421L53.7446 59.8553Z" fill="#92DEED"/>
<path d="M53.9708 52.8173C50.7486 41.4004 52.0488 31.1603 57.5548 24.722C61.8849 19.6529 68.5441 17.3672 76.3113 18.3064L76.2661 18.7363C68.6459 17.8198 62.1223 20.0489 57.8826 25.0049C52.4784 31.33 51.2008 41.4344 54.3891 52.7042L53.9708 52.8173Z" fill="#92DEED"/>
<path d="M52.3993 46.2659L52.1392 45.9264C61.4779 38.6508 63.5921 23.3189 57.8148 4.9093L58.2218 4.78484C64.0557 23.3642 61.8849 38.8771 52.3993 46.2659Z" fill="#92DEED"/>
<path d="M92.3657 73.06L92.2753 72.7545C88.2278 58.4296 74.9207 45.587 62.5972 44.1047L62.0771 44.0482L62.4841 43.7313C71.8455 36.4331 77.7358 20.2752 78.2333 0.496469V0.258853L78.4707 0.281483C103.039 3.2234 129.585 28.8068 137.635 57.3207L137.703 57.5584L137.454 57.5923C118.754 59.844 101.987 65.5581 92.6145 72.8676L92.3657 73.06ZM63.1512 43.7427C75.3955 45.5078 88.4765 58.1694 92.6031 72.3245C102.044 65.0942 118.652 59.448 137.16 57.185C129.099 29.0104 102.937 3.77784 78.6629 0.734085C78.1202 20.2526 72.3429 36.2634 63.1512 43.7427Z" fill="#92DEED"/>
<path d="M104.248 65.8976C99.7033 49.8076 84.7455 35.3695 70.9071 33.7175L70.9523 33.2876C84.949 34.9622 100.076 49.536 104.655 65.7731L104.237 65.8863L104.248 65.8976Z" fill="#92DEED"/>
<path d="M119.737 60.6813C113.813 39.7032 94.3103 20.8862 76.2548 18.7251L76.3 18.2951C94.5138 20.4676 114.175 39.4316 120.144 60.5569L119.726 60.67L119.737 60.6813Z" fill="#92DEED"/>
<path d="M75.1016 48.9816L74.8415 48.6421C84.2255 41.3326 94.6269 26.9285 102.665 10.1143L103.05 10.2953C94.9887 27.1548 84.542 41.6154 75.1016 48.9702V48.9816Z" fill="#92DEED"/>
<path d="M112.027 104.12C110.568 104.12 109.065 104.029 107.538 103.848H107.448L107.391 103.769C101.885 96.799 95.7801 92.9406 89.788 92.3861C86.8145 95.543 82.4165 96.9348 77.3176 96.3351L76.7975 96.2785L77.2045 95.9617C81.105 92.9179 85.3335 91.6054 89.6184 91.9448C89.7089 91.8543 89.788 91.7525 89.8785 91.6506C93.5642 87.3396 94.4234 80.46 92.2527 72.7658L92.2075 72.63L92.3205 72.5395C101.761 65.1847 118.607 59.4366 137.375 57.1736L137.556 57.151L137.601 57.332C141.942 72.7318 140.19 86.5362 132.773 95.2149C127.799 101.042 120.529 104.131 111.993 104.131L112.027 104.12ZM107.674 103.43C117.951 104.64 126.758 101.619 132.479 94.9207C139.772 86.3891 141.513 72.7997 137.262 57.6149C118.709 59.8779 102.089 65.5355 92.7162 72.7771C94.8757 80.5506 93.9712 87.5206 90.2176 91.9222C90.195 91.9448 90.1837 91.9675 90.1611 91.9788C96.1306 92.6464 102.191 96.5161 107.674 103.43ZM77.9168 95.9617C82.507 96.3803 86.4754 95.1131 89.234 92.3409C85.3335 92.1032 81.4894 93.3026 77.9168 95.9617Z" fill="#92DEED"/>
<path d="M90.0141 92.4993C89.1775 92.4993 88.3182 92.4427 87.4477 92.3409L87.4929 91.9109C93.3268 92.6124 98.324 90.9039 101.557 87.1133C105.695 82.2705 106.668 74.531 104.237 65.8862L104.655 65.7731C107.131 74.5536 106.125 82.4402 101.897 87.3962C99.0476 90.7341 94.887 92.4993 90.0141 92.4993Z" fill="#92DEED"/>
<path d="M101.139 95.2828C100.054 95.2828 98.9458 95.2149 97.8039 95.0791L97.8491 94.6491C105.469 95.5657 111.993 93.3366 116.233 88.3806C121.637 82.0555 122.914 71.9511 119.726 60.6813L120.144 60.5681C123.367 71.9851 122.066 82.2252 116.56 88.6635C112.863 92.9971 107.47 95.2828 101.139 95.2828Z" fill="#92DEED"/>
<path d="M93.2589 85.6763L92.9989 85.3368C102.462 77.9594 119.568 76.8845 138.777 82.4741L138.652 82.8928C119.579 77.3484 102.62 78.3894 93.2589 85.6876V85.6763Z" fill="#92DEED"/>
<path d="M129.087 98.7339L128.963 98.6547C112.886 88.2674 97.7248 86.4005 88.3861 93.6647L88.126 93.3253C93.2363 89.3424 94.7965 81.6481 92.2753 72.7432C88.2278 58.4183 74.9207 45.5757 62.5972 44.0934C58.3801 43.5842 54.6605 44.4781 51.8566 46.6619L51.5966 46.3225C60.924 39.0469 62.8573 23.8621 56.7408 5.7014L56.6955 5.5543L56.8199 5.46378C62.4729 1.06222 69.9687 -0.74819 78.4708 0.281481C103.039 3.2234 129.585 28.8068 137.635 57.3207C142.677 75.1646 139.523 90.6097 129.212 98.6547L129.087 98.7452V98.7339ZM102.202 88.8558C110.15 88.8558 119.455 92.0127 129.065 98.2021C139.138 90.2476 142.191 75.0175 137.216 57.4226C129.212 29.067 102.835 3.61943 78.4255 0.700139C70.0931 -0.295587 62.7555 1.43562 57.193 5.72403C62.8686 22.6966 61.5571 37.1007 53.7786 44.976C56.3111 43.7313 59.3298 43.2901 62.6538 43.6861C75.1355 45.1797 88.6122 58.1694 92.6936 72.6413C94.9209 80.5393 93.9938 87.5093 90.2628 91.8883C93.6998 89.8629 97.7474 88.8671 102.213 88.8671L102.202 88.8558Z" fill="#92DEED"/>
</svg>
