<svg width="94" height="105" viewBox="0 0 94 105" fill="none" xmlns="http://www.w3.org/2000/svg">
<path d="M66.0265 104.168C64.6238 104.168 63.1872 104.089 61.728 103.919L61.2981 103.863C36.7853 100.783 10.3722 75.2545 2.34077 46.8275C-2.00298 31.4196 -0.249644 17.608 7.17093 8.92482C13.0078 2.08694 21.9894 -0.981044 32.4529 0.275585C41.3666 1.33976 50.812 5.40399 59.7936 12.0268C61.0719 12.9777 62.5198 14.0645 63.5718 14.9815C63.8546 15.2193 64.1487 15.4797 64.4654 15.7514C65.2799 16.4533 66.2074 17.2457 66.9201 17.9024C67.6554 18.5816 68.5603 19.4533 69.3521 20.2345L70.0648 20.9251C72.7344 23.5176 75.6529 27.1403 76.7501 28.5101C78.4016 30.5705 79.0577 31.5668 81.8291 35.7103C82.44 36.6273 83.1413 37.8386 83.7521 38.9028L84.2046 39.6726C85.1661 41.3255 86.2973 43.635 87.0778 45.2312C87.4737 46.0577 87.9149 47.0765 88.3334 48.0502C88.5257 48.5143 88.718 48.9558 88.899 49.3521C89.985 52.0012 90.9125 54.6843 91.6591 57.3334C96.0029 72.7412 94.2495 86.5528 86.8289 95.236C81.8517 101.066 74.5782 104.157 66.0378 104.157L66.0265 104.168ZM61.8185 103.5C72.0444 104.666 80.7997 101.632 86.4896 94.9643C93.8084 86.3943 95.5391 72.7186 91.2293 57.4579C90.4827 54.8201 89.5664 52.1483 88.4918 49.5219C88.3221 49.1256 88.1298 48.6841 87.9375 48.22C87.519 47.2464 87.0891 46.2388 86.6932 45.4124C85.924 43.8274 84.7928 41.5179 83.8426 39.8764L83.3901 39.1066C82.7793 38.0537 82.0893 36.8537 81.4784 35.9367C78.7184 31.8045 78.0623 30.8196 76.4221 28.7818C75.3248 27.412 72.4177 23.8006 69.7707 21.2307L69.058 20.5402C68.2662 19.7703 67.3726 18.8873 66.6373 18.2194C65.9247 17.5741 65.0084 16.7816 64.1939 16.0797C63.8772 15.808 63.5718 15.5476 63.3003 15.3099C62.2483 14.3929 60.7438 13.2608 59.5448 12.3777C50.631 5.80023 41.2422 1.75863 32.4077 0.705783C22.0799 -0.528205 13.2341 2.4945 7.49897 9.20784C0.180208 17.7778 -1.55051 31.4536 2.75931 46.7143C10.7455 75.0167 37.0229 100.421 61.3999 103.444C65.8115 84.3339 65.1328 62.0316 59.5335 42.2085L59.952 42.0953C59.9859 42.1972 60.0086 42.3104 60.0425 42.4123C60.0425 42.4123 60.0651 42.4915 60.0764 42.5368C65.574 62.292 66.2074 84.4698 61.8298 103.489L61.8185 103.5Z" fill="#11112B"/>
</svg>
