<svg width="64" height="64" viewBox="0 0 64 64" fill="none" xmlns="http://www.w3.org/2000/svg">
<path d="M47.9998 8.66659H44.6665V7.99992C44.6665 5.42712 42.5726 3.33325 39.9998 3.33325H23.9998C21.427 3.33325 19.3332 5.42712 19.3332 7.99992V8.66659H15.9998C11.9556 8.66659 8.6665 11.9557 8.6665 15.9999V53.3333C8.6665 57.3775 11.9556 60.6666 15.9998 60.6666H47.9998C52.0441 60.6666 55.3332 57.3775 55.3332 53.3333V15.9999C55.3332 11.9557 52.0441 8.66659 47.9998 8.66659ZM23.3332 7.99992C23.3332 7.63272 23.6326 7.33325 23.9998 7.33325H39.9998C40.367 7.33325 40.6665 7.63272 40.6665 7.99992V13.3333C40.6665 13.7005 40.367 13.9999 39.9998 13.9999H23.9998C23.6326 13.9999 23.3332 13.7005 23.3332 13.3333V7.99992ZM51.3332 53.3333C51.3332 55.1719 49.8385 56.6666 47.9998 56.6666H15.9998C14.1612 56.6666 12.6665 55.1719 12.6665 53.3333V15.9999C12.6665 14.1613 14.1612 12.6666 15.9998 12.6666H19.3332V13.3333C19.3332 15.9061 21.427 17.9999 23.9998 17.9999H39.9998C42.5726 17.9999 44.6665 15.9061 44.6665 13.3333V12.6666H47.9998C49.8385 12.6666 51.3332 14.1613 51.3332 15.9999V53.3333Z" fill="white"/>
<path d="M42.6668 35.3333H21.3335C20.2292 35.3333 19.3335 36.229 19.3335 37.3333C19.3335 38.4375 20.2292 39.3333 21.3335 39.3333H42.6668C43.7711 39.3333 44.6668 38.4375 44.6668 37.3333C44.6668 36.229 43.7711 35.3333 42.6668 35.3333Z" fill="white"/>
<path d="M42.6668 24.6667H21.3335C20.2292 24.6667 19.3335 25.5625 19.3335 26.6667C19.3335 27.771 20.2292 28.6667 21.3335 28.6667H42.6668C43.7711 28.6667 44.6668 27.771 44.6668 26.6667C44.6668 25.5625 43.7711 24.6667 42.6668 24.6667Z" fill="white"/>
<path d="M42.6668 46H21.3335C20.2292 46 19.3335 46.8957 19.3335 48C19.3335 49.1043 20.2292 50 21.3335 50H42.6668C43.7711 50 44.6668 49.1043 44.6668 48C44.6668 46.8957 43.7711 46 42.6668 46Z" fill="white"/>
</svg>
