<svg width="109" height="140" viewBox="0 0 109 140" fill="none" xmlns="http://www.w3.org/2000/svg">
<path d="M61.8719 140L61.6341 139.977C37.0215 137.03 10.4267 111.4 2.3622 82.834L2.29424 82.5959L2.54342 82.5619C21.2776 80.3061 38.0748 74.5816 47.4646 67.2587L47.7137 67.066L47.8044 67.3721C51.8593 81.7231 65.1906 94.5891 77.5366 96.0741L78.0576 96.1308L77.6498 96.4482C68.2714 103.76 62.3703 119.947 61.8719 139.762V140ZM2.84924 82.9587C10.9251 111.185 37.1234 136.463 61.4529 139.524C61.9965 119.97 67.7844 103.93 76.9929 96.4368C64.7262 94.6685 51.6214 81.9838 47.4872 67.8028C38.0295 75.0464 21.3908 80.7029 2.84924 82.97V82.9587Z" fill="#11112B"/>
<path d="M63.7974 121.919C45.5504 119.743 25.8535 100.744 19.873 79.5806L20.2921 79.4673C26.2272 100.484 45.7656 119.335 63.8541 121.5L63.8088 121.931L63.7974 121.919Z" fill="#11112B"/>
<path d="M69.1662 106.9C55.1439 105.222 39.989 90.6216 35.4017 74.3549L35.8208 74.2415C40.3741 90.3609 55.3591 104.825 69.2228 106.48L69.1775 106.911L69.1662 106.9Z" fill="#11112B"/>
<path d="M37.3952 130.115L37.0101 129.934C45.086 113.032 55.5517 98.5566 65.0094 91.1884L65.2699 91.5285C55.8689 98.8514 45.4484 113.282 37.3952 130.127V130.115Z" fill="#11112B"/>
<path d="M2.41877 83.0154L2.37346 82.834C-1.98726 67.4061 -0.231645 53.5765 7.19858 44.882C13.0431 38.0466 22.0364 34.9633 32.5134 36.2216H32.604L32.6607 36.3009C38.1767 43.295 44.2931 47.1492 50.2961 47.7046C53.275 44.542 57.681 43.1363 62.7893 43.7485L63.3103 43.8052L62.9026 44.1225C58.9949 47.1719 54.7701 48.4868 50.466 48.1467C50.3754 48.2374 50.2961 48.3394 50.2055 48.4415C46.5131 52.7604 45.6522 59.6525 47.8269 67.3608L47.8722 67.4968L47.759 67.5875C38.3013 74.9557 21.4247 80.7142 2.62265 82.9814L2.44142 83.004L2.41877 83.0154ZM28.0281 36.3803C19.6012 36.3803 12.4314 39.4296 7.53837 45.1654C0.221417 53.7126 -1.52287 67.3268 2.72459 82.5393C21.3115 80.2721 37.9615 74.6043 47.3512 67.3494C45.1878 59.5618 46.094 52.579 49.8544 48.1694C49.877 48.1467 49.8884 48.1241 49.911 48.1014C43.9306 47.4326 37.8596 43.5558 32.3662 36.6296C30.8824 36.4596 29.4326 36.3689 28.0168 36.3689L28.0281 36.3803ZM50.8511 47.75C54.7475 47.9767 58.6098 46.7864 62.189 44.1225C57.5904 43.6918 53.6148 44.9727 50.8511 47.75Z" fill="#11112B"/>
<path d="M19.8844 79.5806C16.6563 68.1429 17.9589 57.8841 23.4749 51.4341C27.813 46.3557 34.4843 44.0772 42.2657 45.0067L42.2204 45.4375C34.5863 44.5193 28.0508 46.7524 23.8034 51.7175C18.3893 58.0541 17.1094 68.1769 20.3035 79.4673L19.8844 79.5806Z" fill="#11112B"/>
<path d="M35.4018 74.3549C32.9212 65.5584 33.9293 57.6574 38.1654 52.6924C41.5068 48.7815 46.6377 47.0245 52.6408 47.7387L52.5955 48.1694C46.751 47.4779 41.7446 49.1783 38.5052 52.9758C34.3597 57.8274 33.3856 65.5811 35.8208 74.2416L35.4018 74.3549Z" fill="#11112B"/>
<path d="M24.1545 61.1828C17.1773 61.1828 9.38467 60.0152 1.22955 57.6347L1.35414 57.2153C20.4507 62.7698 37.4519 61.7269 46.8303 54.4153L47.0908 54.7554C41.6314 59.0063 33.6348 61.1714 24.1545 61.1714V61.1828Z" fill="#11112B"/>
<path d="M108.277 104.088L107.756 104.032C99.2607 103.012 90.5279 99.2934 82.3955 93.6823C80.7758 94.3397 79.19 95.2579 77.6496 96.4595L77.5817 96.5162H77.4911C64.9865 95.0085 51.4853 81.9951 47.3964 67.4968L47.3511 67.3607L47.4644 67.2701C50.4206 64.9576 52.516 62.5884 53.66 60.2533C51.5193 55.9343 49.7636 51.4567 48.4724 46.8998L48.3252 46.3557L48.8009 46.6617C52.7878 49.1896 54.9739 52.2956 55.1438 55.651C55.2117 57.1586 54.8719 58.7003 54.147 60.2533C60.7391 73.482 70.9783 85.2372 82.4408 93.2062C90.7884 89.9528 99.9969 93.6143 107.948 103.692L108.277 104.1V104.088ZM82.8825 93.4896C90.7091 98.8514 99.1021 102.445 107.291 103.533C99.6345 94.0563 90.8677 90.5423 82.8825 93.4896ZM47.8608 67.5081C51.9497 81.7684 65.1904 94.5324 77.4684 96.0514C78.9295 94.9179 80.4473 94.0223 81.9877 93.3762C70.6385 85.4299 60.5125 73.7881 53.9205 60.7067C52.7312 62.9852 50.6924 65.275 47.8608 67.4968V67.5081ZM49.0727 47.3192C50.3073 51.5474 51.9383 55.7076 53.9205 59.7318C54.5208 58.3489 54.804 56.9772 54.736 55.6396C54.5888 52.579 52.6406 49.6997 49.0727 47.3079V47.3192Z" fill="#11112B"/>
<path d="M83.1203 94.113C82.3161 90.4062 80.6171 87.9804 78.1933 87.0962C74.9539 85.9173 70.4912 87.4476 65.2697 91.5058L65.0091 91.1657C70.344 87.0055 74.9652 85.4638 78.3405 86.6881C80.9003 87.6176 82.7012 90.1568 83.5394 94.011L83.1203 94.1016V94.113Z" fill="#11112B"/>
<path d="M54.5435 81.1676L54.283 80.8275C61.1016 75.5111 63.1743 73.6294 63.7973 72.9606C63.5141 73.0853 63.0497 73.3346 62.2569 73.8107L62.0417 73.4367C64.0465 72.2351 64.2843 72.2804 64.4429 72.5071C64.6241 72.7679 64.8733 73.1306 54.5661 81.1676H54.5435Z" fill="#11112B"/>
<path d="M47.4871 67.7915L47.3965 67.4854C45.1878 59.6411 46.0826 52.6016 49.8657 48.1694C49.911 48.1127 49.9676 48.056 50.013 47.9993C49.5712 47.6593 49.0842 47.3305 48.5858 47.0018L48.5178 46.9564L48.4952 46.8771C44.1458 31.4492 45.9014 17.6196 53.3316 8.92513C59.1648 2.08969 68.1581 -0.982285 78.6352 0.275979L78.8277 0.298651V0.491358C78.318 20.4309 72.3489 36.7543 62.8799 44.1338L62.812 44.1905H62.7213C57.783 43.5897 53.5242 44.9273 50.6359 47.954C53.4562 50.2211 55.008 52.8397 55.1439 55.6396C55.3364 59.5391 52.7653 63.6766 47.725 67.6101L47.4758 67.8028L47.4871 67.7915ZM50.3527 48.26C50.2961 48.3167 50.2508 48.3847 50.1942 48.4414C46.5584 52.7036 45.6636 59.4711 47.725 67.0547C52.4821 63.2799 54.8947 59.335 54.7248 55.6509C54.6002 52.9757 53.0938 50.4592 50.3527 48.2714V48.26ZM48.8803 46.6844C49.3787 47.0018 49.8544 47.3419 50.3074 47.6819C53.275 44.5533 57.6357 43.159 62.6874 43.7371C71.9978 36.4256 77.8536 20.3515 78.3973 0.672729C68.1468 -0.506185 59.3574 2.52045 53.6488 9.20852C46.3318 17.7783 44.5989 31.4378 48.8803 46.6844Z" fill="#11112B"/>
<path d="M47.0906 54.7667L46.8301 54.4267C56.1519 47.1605 56.3104 34.8839 47.2492 21.5984L47.6003 21.3604C56.8088 34.8499 56.6276 47.3418 47.0906 54.7667Z" fill="#11112B"/>
<path d="M61.8717 140L61.6339 139.977C37.0212 137.03 10.4265 111.4 2.36197 82.834C-2.68967 64.9576 0.470437 49.4843 10.8003 41.4247L10.9249 41.334L11.0494 41.4133C27.1558 51.8308 42.3447 53.6899 51.7005 46.401L51.961 46.7411C46.8414 50.7313 45.2783 58.4396 47.8041 67.3608C51.859 81.7118 65.1904 94.5778 77.5363 96.0628L78.0574 96.1195L77.6496 96.4369C68.2712 103.748 62.3701 119.936 61.8717 139.751V139.989V140ZM10.9475 41.8667C0.85554 49.8244 -2.20263 65.0823 2.78106 82.7207C10.7776 111.037 37.0552 136.463 61.4526 139.524C61.9963 119.97 67.7842 103.93 76.9927 96.4369C64.6354 94.6572 51.44 81.8025 47.3964 67.4968C45.165 59.5845 46.0938 52.6017 49.8316 48.2147C40.272 53.8373 26.0005 51.5701 10.9475 41.8781V41.8667Z" fill="#11112B"/>
</svg>
