<svg width="24" height="24" viewBox="0 0 24 24" fill="none" xmlns="http://www.w3.org/2000/svg">
<path d="M21.8906 3.5625H2.10938C0.943922 3.5625 0 4.51228 0 5.67188V18.3281C0 19.4946 0.950859 20.4375 2.10938 20.4375H21.8906C23.0463 20.4375 24 19.4986 24 18.3281V5.67188C24 4.51434 23.0598 3.5625 21.8906 3.5625ZM21.5952 4.96875C21.1642 5.39742 13.7476 12.775 13.4916 13.0297C13.0931 13.4281 12.5634 13.6475 12 13.6475C11.4366 13.6475 10.9069 13.4281 10.5071 13.0284C10.3349 12.8571 3.00014 5.56097 2.40478 4.96875H21.5952ZM1.40625 18.0419V5.95898L7.48303 12.0037L1.40625 18.0419ZM2.40567 19.0312L8.48006 12.9955L9.51408 14.0241C10.1781 14.6881 11.061 15.0538 12 15.0538C12.939 15.0538 13.8219 14.6881 14.4846 14.0254L15.5199 12.9955L21.5943 19.0312H2.40567ZM22.5938 18.0419L16.517 12.0037L22.5938 5.95898V18.0419Z" fill="white"/>
</svg>
