<svg width="109" height="140" viewBox="0 0 109 140" fill="none" xmlns="http://www.w3.org/2000/svg">
<path d="M61.8506 140L61.6127 139.977C37.0001 137.03 10.4054 111.4 2.34086 82.834L2.2729 82.5959L2.52208 82.5619C21.2562 80.3061 38.0535 74.5816 47.4432 67.2587L47.6924 67.066L47.783 67.3721C51.8379 81.7231 65.1693 94.5891 77.5152 96.0741L78.0362 96.1308L77.6285 96.4482C68.2501 103.76 62.349 119.947 61.8506 139.762V140ZM2.8279 82.9587C10.9037 111.185 37.1021 136.463 61.4315 139.524C61.9752 119.97 67.7631 103.93 76.9716 96.4368C64.7049 94.6685 51.6001 81.9838 47.4659 67.8028C38.0082 75.0464 21.3695 80.7029 2.8279 82.97V82.9587Z" fill="#92DEED"/>
<path d="M37.3739 130.115L36.9888 129.934C45.0646 113.032 55.5304 98.5566 64.988 91.1884L65.2486 91.5285C55.8475 98.8514 45.4271 113.282 37.3739 130.127V130.115Z" fill="#92DEED"/>
<path d="M16.114 109.756L15.8648 109.405C30.4647 98.874 44.8155 88.1845 54.2618 80.8276L54.5223 81.1677C45.076 88.5245 30.7252 99.2141 16.114 109.756Z" fill="#92DEED"/>
<path d="M2.39749 83.0154L2.35218 82.834C-2.00854 67.4061 -0.252924 53.5765 7.1773 44.882C13.0218 38.0466 22.0151 34.9633 32.4922 36.2216H32.5828L32.6394 36.3009C38.1554 43.295 44.2718 47.1492 50.2748 47.7046C53.2537 44.542 57.6598 43.1363 62.768 43.7485L63.2891 43.8052L62.8813 44.1225C58.9736 47.1719 54.7488 48.4868 50.4447 48.1467C50.3541 48.2374 50.2748 48.3394 50.1842 48.4415C46.4918 52.7604 45.631 59.6525 47.8057 67.3608L47.851 67.4968L47.7377 67.5875C38.28 74.9557 21.4035 80.7142 2.60137 82.9814L2.42014 83.004L2.39749 83.0154ZM28.0068 36.3803C19.5799 36.3803 12.4102 39.4296 7.51709 45.1654C0.200138 53.7126 -1.54415 67.3268 2.70331 82.5393C21.2902 80.2721 37.9402 74.6043 47.3299 67.3494C45.1666 59.5618 46.0727 52.579 49.8331 48.1694C49.8558 48.1467 49.8671 48.1241 49.8897 48.1014C43.9093 47.4326 37.8383 43.5558 32.3449 36.6296C30.8611 36.4596 29.4113 36.3689 27.9955 36.3689L28.0068 36.3803ZM50.8298 47.75C54.7262 47.9767 58.5885 46.7864 62.1677 44.1225C57.5692 43.6918 53.5935 44.9727 50.8298 47.75Z" fill="#92DEED"/>
<path d="M24.1332 61.1828C17.156 61.1828 9.36333 60.0152 1.20821 57.6347L1.3328 57.2153C20.4294 62.7698 37.4305 61.7269 46.8089 54.4153L47.0694 54.7554C41.61 59.0063 33.6135 61.1714 24.1332 61.1714V61.1828Z" fill="#92DEED"/>
<path d="M108.255 104.088L107.734 104.032C99.2395 103.012 90.5068 99.2934 82.3743 93.6823C80.7546 94.3397 79.1689 95.2579 77.6285 96.4595L77.5605 96.5162H77.4699C64.9654 95.0085 51.4641 81.9951 47.3752 67.4968L47.3299 67.3607L47.4432 67.2701C50.3994 64.9576 52.4948 62.5884 53.6388 60.2533C51.4981 55.9343 49.7425 51.4567 48.4513 46.8998L48.304 46.3557L48.7797 46.6617C52.7667 49.1896 54.9527 52.2956 55.1226 55.651C55.1906 57.1586 54.8508 58.7003 54.1259 60.2533C60.7179 73.482 70.9571 85.2372 82.4196 93.2062C90.7673 89.9528 99.9758 93.6143 107.927 103.692L108.255 104.1V104.088ZM82.8613 93.4896C90.688 98.8514 99.081 102.445 107.27 103.533C99.6133 94.0563 90.8466 90.5423 82.8613 93.4896ZM47.8396 67.5081C51.9285 81.7684 65.1693 94.5324 77.4472 96.0514C78.9084 94.9179 80.4261 94.0223 81.9665 93.3762C70.6173 85.4299 60.4914 73.7881 53.8993 60.7067C52.71 62.9852 50.6713 65.275 47.8396 67.4968V67.5081ZM49.0516 47.3192C50.2862 51.5474 51.9172 55.7076 53.8993 59.7318C54.4996 58.3489 54.7828 56.9772 54.7148 55.6396C54.5676 52.579 52.6194 49.6997 49.0516 47.3079V47.3192Z" fill="#92DEED"/>
<path d="M87.6072 92.5033C73.5849 90.8256 58.43 76.2253 53.8427 59.9585L54.2618 59.8451C58.8151 75.9645 73.8001 90.4289 87.6638 92.0839L87.6185 92.5147L87.6072 92.5033Z" fill="#92DEED"/>
<path d="M97.9936 95.2466C79.7466 93.0701 60.0497 74.0715 54.0693 52.9077L54.4883 52.7943C60.4235 73.8107 79.9618 92.662 98.0503 94.8272L98.005 95.2579L97.9936 95.2466Z" fill="#92DEED"/>
<path d="M83.0992 94.113C82.295 90.4062 80.596 87.9804 78.1722 87.0962C74.9328 85.9173 70.4701 87.4476 65.2486 91.5058L64.988 91.1657C70.3229 87.0055 74.9441 85.4638 78.3194 86.6881C80.8792 87.6176 82.6801 90.1568 83.5183 94.011L83.0992 94.1016V94.113Z" fill="#92DEED"/>
<path d="M47.4658 67.7915L47.3752 67.4854C45.1666 59.6411 46.0614 52.6016 49.8444 48.1694C49.8897 48.1127 49.9464 48.056 49.9917 47.9993C49.5499 47.6593 49.0629 47.3305 48.5645 47.0018L48.4966 46.9564L48.4739 46.8771C44.1245 31.4492 45.8801 17.6196 53.3104 8.92513C59.1435 2.08969 68.1368 -0.982285 78.6139 0.275979L78.8064 0.298651V0.491358C78.2967 20.4309 72.3276 36.7543 62.8586 44.1338L62.7907 44.1905H62.7001C57.7617 43.5897 53.5029 44.9273 50.6146 47.954C53.4349 50.2211 54.9867 52.8397 55.1226 55.6396C55.3152 59.5391 52.744 63.6766 47.7037 67.6101L47.4545 67.8028L47.4658 67.7915ZM50.3315 48.26C50.2748 48.3167 50.2295 48.3847 50.1729 48.4414C46.5371 52.7036 45.6423 59.4711 47.7037 67.0547C52.4609 63.2799 54.8734 59.335 54.7035 55.6509C54.5789 52.9757 53.0725 50.4592 50.3315 48.2714V48.26ZM48.859 46.6844C49.3574 47.0018 49.8331 47.3419 50.2862 47.6819C53.2537 44.5533 57.6144 43.159 62.6661 43.7371C71.9765 36.4256 77.8323 20.3515 78.376 0.672729C68.1255 -0.506185 59.3361 2.52045 53.6275 9.20852C46.3105 17.7783 44.5776 31.4378 48.859 46.6844Z" fill="#92DEED"/>
<path d="M53.8427 59.9585C51.3622 51.162 52.3702 43.261 56.6064 38.2959C59.9477 34.3851 65.09 32.6281 71.0817 33.3422L71.0364 33.773C65.2032 33.0702 60.1855 34.7819 56.9348 38.5793C52.7893 43.431 51.8152 51.1847 54.2618 59.8451L53.8427 59.9585Z" fill="#92DEED"/>
<path d="M54.0692 52.9077C50.8412 41.4699 52.1437 31.2111 57.6598 24.7611C61.9978 19.6827 68.6692 17.3929 76.4505 18.3338L76.4052 18.7645C68.7711 17.8463 62.2357 20.0795 57.9882 25.0445C52.5741 31.3812 51.2942 41.504 54.4883 52.7943L54.0692 52.9077Z" fill="#92DEED"/>
<path d="M47.0694 54.7667L46.8089 54.4267C56.1307 47.1605 56.2892 34.8839 47.228 21.5984L47.5791 21.3604C56.7876 34.8499 56.6064 47.3418 47.0694 54.7667Z" fill="#92DEED"/>
<path d="M108.255 104.088L107.734 104.032C83.1219 101.084 56.5271 75.4544 48.4626 46.8884C43.411 29.012 46.5711 13.5274 56.9009 5.47909L57.1387 5.29772L57.2294 5.58112C63.0172 22.7774 61.658 37.3551 53.6728 45.2221C53.4916 47.0245 53.7861 50.2778 54.8055 53.7465C55.2585 55.2995 55.9834 57.3173 56.5158 58.6889C56.7989 59.4144 57.2067 60.3099 57.5692 61.1034C57.6937 61.3755 57.8183 61.6362 57.9316 61.8856C58.7245 63.6313 59.5286 65.0029 61.1483 67.7462C61.1597 67.7688 62.6548 70.274 65.0673 73.414C65.9848 74.6043 67.0155 75.9532 69.4847 78.6171C71.161 80.4195 73.3697 82.4712 74.1399 83.1174C76.5411 85.1351 77.7418 86.144 80.8905 88.1731C81.5815 88.6265 82.4196 89.114 82.9973 89.4087C84.3338 90.0964 85.5306 90.6632 86.5878 91.1091C87.2674 91.3924 88.6832 91.9139 90.4048 92.1633C96.4872 92.8888 102.536 96.8676 107.904 103.658L108.233 104.066L108.255 104.088ZM56.9349 6.01187C46.9335 14.0035 43.9206 29.2161 48.8817 46.7751C56.8443 74.9783 82.952 100.314 107.259 103.544C102.049 97.0943 96.2154 93.3195 90.3709 92.6167C88.5926 92.356 87.1428 91.8232 86.4405 91.5285C85.3683 91.0826 84.1601 90.512 82.816 89.8168C82.0911 89.4427 81.2077 88.8986 80.664 88.5585C77.5039 86.5181 76.2919 85.4979 73.8794 83.4688C73.1092 82.8227 70.8779 80.7482 69.1902 78.9345C66.7097 76.2593 65.6676 74.899 64.7502 73.6974C62.3037 70.5121 60.8085 68.0069 60.7972 67.9842C59.1662 65.2296 58.3507 63.8467 57.5578 62.0783C57.4446 61.8402 57.3313 61.5682 57.1954 61.2961C56.8216 60.5026 56.4138 59.5958 56.1307 58.859C55.5983 57.476 54.8734 55.4356 54.409 53.8826C53.4576 50.6632 53.1291 47.5913 53.2198 45.6755C52.812 46.0496 52.3816 46.4123 51.9399 46.7638L51.668 46.4237C52.0984 46.0609 52.3703 45.8342 52.7101 45.4261C53.1518 44.882 53.333 44.5079 53.401 44.3266L53.8087 44.4626C53.8087 44.4626 53.8087 44.4853 53.8087 44.4966C61.2503 36.6976 62.4509 22.6074 56.9349 6.01187Z" fill="#92DEED"/>
</svg>
